<svg width="200" height="50" viewBox="0 0 200 50" xmlns="http://www.w3.org/2000/svg">
	<path
		fill="#ffffff"
		d="M33.481 22.0135L27.3438 28.1615L32.5901 33.417C34.2848 35.1147 37.0326 35.1147 38.7273 33.417C40.422 31.7193 40.422 28.9667 38.7273 27.269L33.481 22.0135Z"
	/>
	<path
		fill="#ffffff"
		d="M38.8264 0H21.2211C20.5043 0 20.1563 0.877879 20.6779 1.37046L26.156 6.54456L2.7833 29.958C-0.927766 33.6755 -0.927768 39.7029 2.7833 43.4204L6.56813 47.2118C10.2792 50.9294 16.296 50.9294 20.0071 47.2118L28.9276 38.2758L22.9884 32.3262L14.2775 41.0522C13.1688 42.1628 11.3079 41.7794 10.516 41.4489L8.53623 39.4657C7.11081 38.0378 8.20627 36.2265 8.93218 35.4993L32.2932 12.0975L38.2664 18.0811C38.7653 18.5809 39.6183 18.227 39.6183 17.5202V0.79328C39.6183 0.355164 39.2637 0 38.8264 0Z"
	/>
	<path fill="#ffffff" d="M51.0737 28.1614V12.0073H53.0265V26.4261H60.5225V28.1614H51.0737Z" />
	<path
		fill="#ffffff"
		d="M68.365 28.4138C67.1997 28.4138 66.1944 28.1561 65.3493 27.6408C64.5094 27.1202 63.8611 26.3945 63.4044 25.4638C62.953 24.5278 62.7272 23.4393 62.7272 22.1983C62.7272 20.9573 62.953 19.8635 63.4044 18.917C63.8611 17.9652 64.4963 17.2237 65.3099 16.6926C66.1288 16.1563 67.0842 15.8881 68.176 15.8881C68.806 15.8881 69.428 15.9933 70.0422 16.2036C70.6564 16.4139 71.2154 16.7557 71.7193 17.229C72.2233 17.697 72.6249 18.3175 72.9241 19.0905C73.2233 19.8635 73.3729 20.8153 73.3729 21.9459V22.7346H64.0501V21.1255H71.4831C71.4831 20.4419 71.3466 19.832 71.0737 19.2956C70.806 18.7592 70.4228 18.3359 69.9241 18.0257C69.4306 17.7154 68.848 17.5603 68.176 17.5603C67.4359 17.5603 66.7955 17.7443 66.2548 18.1124C65.7194 18.4753 65.3073 18.9485 65.0186 19.5322C64.7299 20.1159 64.5855 20.7417 64.5855 21.4095V22.4822C64.5855 23.3972 64.743 24.1728 65.0579 24.8091C65.3782 25.4401 65.8217 25.9213 66.3887 26.2526C66.9556 26.5786 67.6144 26.7416 68.365 26.7416C68.8532 26.7416 69.2942 26.6732 69.6879 26.5365C70.0868 26.3945 70.4306 26.1842 70.7193 25.9055C71.0081 25.6215 71.2312 25.2692 71.3886 24.8485L73.1839 25.3534C72.9949 25.9633 72.6773 26.4997 72.2312 26.9625C71.785 27.4199 71.2338 27.7775 70.5776 28.0352C69.9215 28.2876 69.1839 28.4138 68.365 28.4138Z"
	/>
	<path
		fill="#ffffff"
		d="M81.4595 16.0458V17.6234H75.1918V16.0458H81.4595ZM77.0185 13.1432H78.8768V24.6908C78.8768 25.2166 78.9529 25.611 79.1052 25.874C79.2626 26.1316 79.4621 26.3051 79.7036 26.3945C79.9503 26.4787 80.2101 26.5207 80.4831 26.5207C80.6878 26.5207 80.8558 26.5102 80.987 26.4892C81.1183 26.4629 81.2233 26.4419 81.302 26.4261L81.68 28.0983C81.554 28.1456 81.3781 28.1929 81.1524 28.2403C80.9267 28.2929 80.6406 28.3191 80.2941 28.3191C79.7692 28.3191 79.2548 28.2061 78.7508 27.98C78.2521 27.7539 77.8374 27.4094 77.5067 26.9467C77.1813 26.4839 77.0185 25.9002 77.0185 25.1956V13.1432Z"
	/>
	<path
		fill="#ffffff"
		d="M86.5205 12.0073V13.4271C86.5205 13.8583 86.4417 14.3184 86.2843 14.8075C86.132 15.2912 85.9063 15.7619 85.6071 16.2194C85.3131 16.6716 84.9562 17.066 84.5362 17.4025L83.5284 16.5822C83.8591 16.1089 84.1452 15.6173 84.3866 15.1072C84.6334 14.5919 84.7567 14.0424 84.7567 13.4587V12.0073H86.5205Z"
	/>
	<path
		fill="#ffffff"
		d="M95.8315 18.7592L94.1622 19.2325C94.0572 18.9538 93.9024 18.683 93.6976 18.42C93.4982 18.1519 93.2252 17.931 92.8787 17.7575C92.5323 17.5839 92.0887 17.4972 91.548 17.4972C90.8079 17.4972 90.1911 17.6681 89.6976 18.0099C89.2095 18.3464 88.9654 18.775 88.9654 19.2956C88.9654 19.7583 89.1333 20.1238 89.4693 20.392C89.8053 20.6602 90.3302 20.8836 91.0441 21.0624L92.8394 21.5041C93.9207 21.7671 94.7265 22.1693 95.2567 22.711C95.7869 23.2473 96.052 23.9388 96.052 24.7854C96.052 25.4796 95.8525 26.1001 95.4535 26.6469C95.0598 27.1938 94.5087 27.625 93.8 27.9405C93.0913 28.256 92.2672 28.4138 91.3276 28.4138C90.094 28.4138 89.073 28.1456 88.2646 27.6093C87.4562 27.0729 86.9444 26.2894 86.7292 25.2587L88.4929 24.817C88.6609 25.469 88.9785 25.9581 89.4457 26.2841C89.9181 26.6101 90.5349 26.7732 91.2961 26.7732C92.1622 26.7732 92.8499 26.5891 93.3591 26.221C93.8735 25.8477 94.1307 25.4007 94.1307 24.8801C94.1307 24.4594 93.9837 24.1071 93.6898 23.8231C93.3958 23.5339 92.9444 23.3183 92.3354 23.1763L90.3197 22.7031C89.2121 22.4402 88.3984 22.0326 87.8788 21.4805C87.3643 20.9231 87.1071 20.2263 87.1071 19.3902C87.1071 18.7066 87.2987 18.1019 87.6819 17.5761C88.0704 17.0502 88.5979 16.6374 89.2646 16.3377C89.9365 16.038 90.6976 15.8881 91.548 15.8881C92.7449 15.8881 93.6845 16.151 94.3669 16.6769C95.0546 17.2027 95.5428 17.8968 95.8315 18.7592Z"
	/>
	<path fill="#ffffff" d="M105.337 28.1614V12.0073H115.007V13.7426H107.29V19.2009H114.282V20.9362H107.29V28.1614H105.337Z" />
	<path
		fill="#ffffff"
		d="M124.963 23.2079V16.0458H126.822V28.1614H124.963V26.1106H124.837C124.554 26.7258 124.113 27.249 123.514 27.6802C122.916 28.1062 122.16 28.3191 121.247 28.3191C120.491 28.3191 119.819 28.1535 119.231 27.8222C118.643 27.4857 118.181 26.9809 117.845 26.3078C117.509 25.6294 117.341 24.7749 117.341 23.7443V16.0458H119.2V23.6181C119.2 24.5015 119.446 25.2061 119.94 25.732C120.438 26.2578 121.074 26.5207 121.845 26.5207C122.307 26.5207 122.777 26.4024 123.255 26.1658C123.738 25.9292 124.142 25.5663 124.467 25.0773C124.798 24.5883 124.963 23.9651 124.963 23.2079Z"
	/>
	<path
		fill="#ffffff"
		d="M135.485 16.0458V17.6234H129.217V16.0458H135.485ZM131.044 13.1432H132.902V24.6908C132.902 25.2166 132.978 25.611 133.131 25.874C133.288 26.1316 133.488 26.3051 133.729 26.3945C133.976 26.4787 134.236 26.5207 134.509 26.5207C134.713 26.5207 134.881 26.5102 135.012 26.4892C135.144 26.4629 135.249 26.4419 135.327 26.4261L135.705 28.0983C135.579 28.1456 135.404 28.1929 135.178 28.2403C134.952 28.2929 134.666 28.3191 134.32 28.3191C133.795 28.3191 133.28 28.2061 132.776 27.98C132.278 27.7539 131.863 27.4094 131.532 26.9467C131.207 26.4839 131.044 25.9002 131.044 25.1956V13.1432Z"
	/>
	<path
		fill="#ffffff"
		d="M145.902 23.2079V16.0458H147.76V28.1614H145.902V26.1106H145.776C145.493 26.7258 145.052 27.249 144.453 27.6802C143.855 28.1062 143.099 28.3191 142.186 28.3191C141.43 28.3191 140.758 28.1535 140.17 27.8222C139.582 27.4857 139.12 26.9809 138.784 26.3078C138.448 25.6294 138.28 24.7749 138.28 23.7443V16.0458H140.138V23.6181C140.138 24.5015 140.385 25.2061 140.879 25.732C141.377 26.2578 142.012 26.5207 142.784 26.5207C143.246 26.5207 143.716 26.4024 144.194 26.1658C144.677 25.9292 145.081 25.5663 145.406 25.0773C145.737 24.5883 145.902 23.9651 145.902 23.2079Z"
	/>
	<path
		fill="#ffffff"
		d="M151.164 28.1614V16.0458H152.959V17.8758H153.085C153.306 17.2763 153.705 16.7899 154.282 16.4166C154.86 16.0432 155.51 15.8565 156.235 15.8565C156.371 15.8565 156.542 15.8592 156.747 15.8644C156.951 15.8697 157.106 15.8776 157.211 15.8881V17.7811C157.148 17.7654 157.004 17.7417 156.778 17.7102C156.558 17.6733 156.324 17.6549 156.077 17.6549C155.489 17.6549 154.965 17.7785 154.503 18.0257C154.046 18.2676 153.684 18.6041 153.416 19.0353C153.154 19.4612 153.022 19.9476 153.022 20.4945V28.1614H151.164Z"
	/>
	<path
		fill="#ffffff"
		d="M164.117 28.4138C162.951 28.4138 161.946 28.1561 161.101 27.6408C160.261 27.1202 159.613 26.3945 159.156 25.4638C158.705 24.5278 158.479 23.4393 158.479 22.1983C158.479 20.9573 158.705 19.8635 159.156 18.917C159.613 17.9652 160.248 17.2237 161.062 16.6926C161.881 16.1563 162.836 15.8881 163.928 15.8881C164.558 15.8881 165.18 15.9933 165.794 16.2036C166.408 16.4139 166.967 16.7557 167.471 17.229C167.975 17.697 168.377 18.3175 168.676 19.0905C168.975 19.8635 169.125 20.8153 169.125 21.9459V22.7346H159.802V21.1255H167.235C167.235 20.4419 167.098 19.832 166.825 19.2956C166.558 18.7592 166.174 18.3359 165.676 18.0257C165.182 17.7154 164.6 17.5603 163.928 17.5603C163.188 17.5603 162.547 17.7443 162.007 18.1124C161.471 18.4753 161.059 18.9485 160.77 19.5322C160.482 20.1159 160.337 20.7417 160.337 21.4095V22.4822C160.337 23.3972 160.495 24.1728 160.81 24.8091C161.13 25.4401 161.573 25.9213 162.14 26.2526C162.707 26.5786 163.366 26.7416 164.117 26.7416C164.605 26.7416 165.046 26.6732 165.44 26.5365C165.839 26.3945 166.182 26.1842 166.471 25.9055C166.76 25.6215 166.983 25.2692 167.14 24.8485L168.936 25.3534C168.747 25.9633 168.429 26.4997 167.983 26.9625C167.537 27.4199 166.986 27.7775 166.329 28.0352C165.673 28.2876 164.936 28.4138 164.117 28.4138Z"
	/>
	<path
		fill="#ffffff"
		d="M181.644 12.0073H185.053V22.498C185.053 23.6759 184.772 24.7066 184.211 25.59C183.654 26.4734 182.875 27.1623 181.872 27.6566C180.869 28.1456 179.701 28.3901 178.368 28.3901C177.03 28.3901 175.859 28.1456 174.856 27.6566C173.854 27.1623 173.074 26.4734 172.518 25.59C171.961 24.7066 171.683 23.6759 171.683 22.498V12.0073H175.093V22.2062C175.093 22.8214 175.226 23.3683 175.494 23.8468C175.767 24.3253 176.15 24.7013 176.644 24.9748C177.137 25.2482 177.712 25.3849 178.368 25.3849C179.03 25.3849 179.604 25.2482 180.093 24.9748C180.586 24.7013 180.967 24.3253 181.234 23.8468C181.507 23.3683 181.644 22.8214 181.644 22.2062V12.0073Z"
	/>
	<path
		fill="#ffffff"
		d="M187.858 28.1614V12.0073H194.22C195.444 12.0073 196.486 12.2413 197.346 12.7093C198.207 13.1721 198.863 13.8162 199.315 14.6418C199.772 15.4621 200 16.4087 200 17.4814C200 18.5541 199.769 19.5007 199.307 20.321C198.845 21.1413 198.176 21.7802 197.299 22.2377C196.428 22.6952 195.373 22.9239 194.134 22.9239H190.079V20.1869H193.583C194.239 20.1869 194.779 20.0738 195.205 19.8477C195.635 19.6164 195.955 19.2982 196.165 18.8933C196.381 18.4831 196.488 18.0125 196.488 17.4814C196.488 16.945 196.381 16.477 196.165 16.0774C195.955 15.6725 195.635 15.3596 195.205 15.1388C194.774 14.9126 194.228 14.7996 193.567 14.7996H191.268V28.1614H187.858Z"
	/>
	<path fill="#ffffff" d="M51 44.8206V37.8974H51.8369V40.9804H55.5219V37.8974H56.3588V44.8206H55.5219V41.7241H51.8369V44.8206H51Z" />
	<path
		fill="#ffffff"
		d="M64.059 44.9287C63.5596 44.9287 63.1288 44.8183 62.7666 44.5975C62.4066 44.3743 62.1288 44.0633 61.933 43.6644C61.7396 43.2633 61.6428 42.7968 61.6428 42.2649C61.6428 41.7331 61.7396 41.2643 61.933 40.8587C62.1288 40.4508 62.401 40.133 62.7497 39.9054C63.1006 39.6755 63.5101 39.5606 63.978 39.5606C64.248 39.5606 64.5146 39.6056 64.7778 39.6958C65.041 39.7859 65.2806 39.9324 65.4966 40.1352C65.7126 40.3358 65.8847 40.6018 66.0129 40.933C66.1411 41.2643 66.2052 41.6722 66.2052 42.1568V42.4948H62.2098V41.8052H65.3953C65.3953 41.5122 65.3369 41.2508 65.2199 41.0209C65.1051 40.7911 64.9409 40.6096 64.7272 40.4767C64.5157 40.3437 64.266 40.2772 63.978 40.2772C63.6608 40.2772 63.3864 40.3561 63.1546 40.5139C62.9252 40.6694 62.7486 40.8722 62.6248 41.1223C62.5011 41.3725 62.4392 41.6407 62.4392 41.9269V42.3866C62.4392 42.7788 62.5067 43.1112 62.6417 43.3839C62.7789 43.6543 62.969 43.8605 63.212 44.0025C63.455 44.1422 63.7373 44.2121 64.059 44.2121C64.2682 44.2121 64.4572 44.1828 64.6259 44.1242C64.7969 44.0633 64.9443 43.9732 65.068 43.8538C65.1918 43.7321 65.2874 43.5811 65.3549 43.4008L66.1243 43.6171C66.0433 43.8785 65.9072 44.1084 65.7159 44.3067C65.5247 44.5028 65.2885 44.656 65.0073 44.7665C64.7261 44.8746 64.41 44.9287 64.059 44.9287Z"
	/>
	<path fill="#ffffff" d="M72.1726 37.8974V44.8206H71.3762V37.8974H72.1726Z" />
	<path fill="#ffffff" d="M78.3872 37.8974V44.8206H77.5908V37.8974H78.3872Z" />
	<path
		fill="#ffffff"
		d="M85.911 44.9287C85.4431 44.9287 85.0325 44.8172 84.6793 44.5941C84.3284 44.371 84.0539 44.0588 83.8559 43.6577C83.6602 43.2565 83.5623 42.7878 83.5623 42.2514C83.5623 41.7105 83.6602 41.2384 83.8559 40.835C84.0539 40.4316 84.3284 40.1183 84.6793 39.8952C85.0325 39.6721 85.4431 39.5606 85.911 39.5606C86.379 39.5606 86.7884 39.6721 87.1394 39.8952C87.4926 40.1183 87.7671 40.4316 87.9628 40.835C88.1608 41.2384 88.2597 41.7105 88.2597 42.2514C88.2597 42.7878 88.1608 43.2565 87.9628 43.6577C87.7671 44.0588 87.4926 44.371 87.1394 44.5941C86.7884 44.8172 86.379 44.9287 85.911 44.9287ZM85.911 44.2121C86.2665 44.2121 86.559 44.1208 86.7884 43.9383C87.0179 43.7557 87.1878 43.5157 87.298 43.2182C87.4082 42.9207 87.4633 42.5985 87.4633 42.2514C87.4633 41.9044 87.4082 41.581 87.298 41.2812C87.1878 40.9815 87.0179 40.7392 86.7884 40.5544C86.559 40.3696 86.2665 40.2772 85.911 40.2772C85.5556 40.2772 85.2631 40.3696 85.0337 40.5544C84.8042 40.7392 84.6343 40.9815 84.5241 41.2812C84.4139 41.581 84.3587 41.9044 84.3587 42.2514C84.3587 42.5985 84.4139 42.9207 84.5241 43.2182C84.6343 43.5157 84.8042 43.7557 85.0337 43.9383C85.2631 44.1208 85.5556 44.2121 85.911 44.2121Z"
	/>
	<path
		fill="#ffffff"
		d="M99.1042 40.0609H98.2673C98.2178 39.8197 98.1312 39.6079 98.0075 39.4254C97.886 39.2428 97.7375 39.0896 97.562 38.9656C97.3888 38.8394 97.1964 38.7448 96.985 38.6817C96.7735 38.6186 96.553 38.587 96.3236 38.587C95.9051 38.587 95.526 38.6929 95.1863 38.9048C94.8489 39.1166 94.58 39.4287 94.3798 39.8411C94.1818 40.2536 94.0828 40.7595 94.0828 41.359C94.0828 41.9584 94.1818 42.4644 94.3798 42.8768C94.58 43.2892 94.8489 43.6013 95.1863 43.8132C95.526 44.025 95.9051 44.1309 96.3236 44.1309C96.553 44.1309 96.7735 44.0994 96.985 44.0363C97.1964 43.9732 97.3888 43.8797 97.562 43.7557C97.7375 43.6295 97.886 43.4751 98.0075 43.2926C98.1312 43.1078 98.2178 42.896 98.2673 42.6571H99.1042C99.0412 43.0109 98.9265 43.3275 98.76 43.607C98.5935 43.8864 98.3865 44.1242 98.1391 44.3203C97.8916 44.5141 97.6138 44.6617 97.3056 44.7631C96.9996 44.8645 96.6723 44.9152 96.3236 44.9152C95.7341 44.9152 95.2099 44.771 94.751 44.4825C94.2921 44.194 93.931 43.7839 93.6678 43.252C93.4046 42.7202 93.2729 42.0892 93.2729 41.359C93.2729 40.6288 93.4046 39.9978 93.6678 39.4659C93.931 38.9341 94.2921 38.5239 94.751 38.2354C95.2099 37.947 95.7341 37.8027 96.3236 37.8027C96.6723 37.8027 96.9996 37.8534 97.3056 37.9549C97.6138 38.0563 97.8916 38.205 98.1391 38.4011C98.3865 38.5949 98.5935 38.8315 98.76 39.111C98.9265 39.3882 99.0412 39.7048 99.1042 40.0609Z"
	/>
	<path
		fill="#ffffff"
		d="M105.833 44.9423C105.505 44.9423 105.207 44.8803 104.939 44.7563C104.671 44.6301 104.459 44.4487 104.301 44.2121C104.144 43.9732 104.065 43.6847 104.065 43.3467C104.065 43.0492 104.124 42.8081 104.241 42.6233C104.358 42.4362 104.514 42.2897 104.71 42.1838C104.905 42.0779 105.121 41.999 105.358 41.9472C105.596 41.8931 105.836 41.8503 106.076 41.8187C106.391 41.7782 106.647 41.7477 106.842 41.7274C107.04 41.7049 107.184 41.6677 107.274 41.6159C107.367 41.5641 107.413 41.4739 107.413 41.3455V41.3184C107.413 40.9849 107.322 40.7257 107.139 40.5409C106.959 40.3561 106.686 40.2637 106.319 40.2637C105.939 40.2637 105.641 40.3471 105.425 40.5139C105.209 40.6806 105.057 40.8587 104.969 41.048L104.214 40.7775C104.349 40.462 104.529 40.2164 104.754 40.0406C104.981 39.8626 105.228 39.7386 105.496 39.6687C105.766 39.5966 106.031 39.5606 106.292 39.5606C106.459 39.5606 106.65 39.5809 106.866 39.6214C107.084 39.6597 107.295 39.7397 107.497 39.8614C107.702 39.9831 107.872 40.1668 108.007 40.4124C108.142 40.6581 108.209 40.9871 108.209 41.3995V44.8206H107.413V44.1174H107.372C107.318 44.2301 107.228 44.3507 107.102 44.4791C106.976 44.6076 106.809 44.7169 106.599 44.807C106.39 44.8972 106.135 44.9423 105.833 44.9423ZM105.955 44.2256C106.27 44.2256 106.535 44.1636 106.751 44.0397C106.969 43.9157 107.134 43.7557 107.244 43.5597C107.356 43.3636 107.413 43.1574 107.413 42.941V42.2108C107.379 42.2514 107.305 42.2886 107.19 42.3224C107.077 42.354 106.947 42.3821 106.798 42.4069C106.652 42.4295 106.509 42.4497 106.37 42.4678C106.233 42.4835 106.121 42.4971 106.036 42.5083C105.829 42.5354 105.635 42.5793 105.455 42.6402C105.278 42.6988 105.134 42.7878 105.023 42.9072C104.915 43.0244 104.861 43.1844 104.861 43.3872C104.861 43.6644 104.964 43.874 105.169 44.016C105.376 44.1557 105.638 44.2256 105.955 44.2256Z"
	/>
	<path
		fill="#ffffff"
		d="M113.622 44.8206V39.6282H114.392V40.4124H114.446C114.54 40.1555 114.711 39.9471 114.958 39.7871C115.206 39.6271 115.485 39.547 115.795 39.547C115.854 39.547 115.927 39.5482 116.015 39.5504C116.102 39.5527 116.169 39.5561 116.214 39.5606V40.3719C116.187 40.3651 116.125 40.355 116.028 40.3415C115.934 40.3257 115.834 40.3178 115.728 40.3178C115.476 40.3178 115.251 40.3708 115.053 40.4767C114.857 40.5803 114.702 40.7246 114.587 40.9094C114.475 41.0919 114.419 41.3004 114.419 41.5348V44.8206H113.622Z"
	/>
	<path
		fill="#ffffff"
		d="M123.133 44.9287C122.633 44.9287 122.203 44.8183 121.84 44.5975C121.48 44.3743 121.203 44.0633 121.007 43.6644C120.813 43.2633 120.717 42.7968 120.717 42.2649C120.717 41.7331 120.813 41.2643 121.007 40.8587C121.203 40.4508 121.475 40.133 121.823 39.9054C122.174 39.6755 122.584 39.5606 123.052 39.5606C123.322 39.5606 123.588 39.6056 123.852 39.6958C124.115 39.7859 124.354 39.9324 124.57 40.1352C124.786 40.3358 124.958 40.6018 125.087 40.933C125.215 41.2643 125.279 41.6722 125.279 42.1568V42.4948H121.284V41.8052H124.469C124.469 41.5122 124.411 41.2508 124.294 41.0209C124.179 40.7911 124.015 40.6096 123.801 40.4767C123.59 40.3437 123.34 40.2772 123.052 40.2772C122.735 40.2772 122.46 40.3561 122.228 40.5139C121.999 40.6694 121.822 40.8722 121.699 41.1223C121.575 41.3725 121.513 41.6407 121.513 41.9269V42.3866C121.513 42.7788 121.581 43.1112 121.715 43.3839C121.853 43.6543 122.043 43.8605 122.286 44.0025C122.529 44.1422 122.811 44.2121 123.133 44.2121C123.342 44.2121 123.531 44.1828 123.7 44.1242C123.871 44.0633 124.018 43.9732 124.142 43.8538C124.266 43.7321 124.361 43.5811 124.429 43.4008L125.198 43.6171C125.117 43.8785 124.981 44.1084 124.79 44.3067C124.599 44.5028 124.362 44.656 124.081 44.7665C123.8 44.8746 123.484 44.9287 123.133 44.9287Z"
	/>
	<path
		fill="#ffffff"
		d="M132.623 44.9287C132.124 44.9287 131.693 44.8183 131.331 44.5975C130.971 44.3743 130.693 44.0633 130.497 43.6644C130.304 43.2633 130.207 42.7968 130.207 42.2649C130.207 41.7331 130.304 41.2643 130.497 40.8587C130.693 40.4508 130.965 40.133 131.314 39.9054C131.665 39.6755 132.074 39.5606 132.542 39.5606C132.812 39.5606 133.079 39.6056 133.342 39.6958C133.605 39.7859 133.845 39.9324 134.061 40.1352C134.277 40.3358 134.449 40.6018 134.577 40.933C134.705 41.2643 134.769 41.6722 134.769 42.1568V42.4948H130.774V41.8052H133.96C133.96 41.5122 133.901 41.2508 133.784 41.0209C133.669 40.7911 133.505 40.6096 133.291 40.4767C133.08 40.3437 132.83 40.2772 132.542 40.2772C132.225 40.2772 131.951 40.3561 131.719 40.5139C131.489 40.6694 131.313 40.8722 131.189 41.1223C131.065 41.3725 131.003 41.6407 131.003 41.9269V42.3866C131.003 42.7788 131.071 43.1112 131.206 43.3839C131.343 43.6543 131.533 43.8605 131.776 44.0025C132.019 44.1422 132.302 44.2121 132.623 44.2121C132.832 44.2121 133.021 44.1828 133.19 44.1242C133.361 44.0633 133.508 43.9732 133.632 43.8538C133.756 43.7321 133.852 43.5811 133.919 43.4008L134.688 43.6171C134.607 43.8785 134.471 44.1084 134.28 44.3067C134.089 44.5028 133.853 44.656 133.571 44.7665C133.29 44.8746 132.974 44.9287 132.623 44.9287Z"
	/>
	<path
		fill="#ffffff"
		d="M139.94 44.8206V39.6282H140.71V40.4124H140.764C140.858 40.1555 141.029 39.9471 141.277 39.7871C141.524 39.6271 141.803 39.547 142.114 39.547C142.172 39.547 142.245 39.5482 142.333 39.5504C142.421 39.5527 142.487 39.5561 142.532 39.5606V40.3719C142.505 40.3651 142.443 40.355 142.346 40.3415C142.252 40.3257 142.152 40.3178 142.046 40.3178C141.794 40.3178 141.569 40.3708 141.371 40.4767C141.176 40.5803 141.02 40.7246 140.906 40.9094C140.793 41.0919 140.737 41.3004 140.737 41.5348V44.8206H139.94Z"
	/>
</svg>
