<svg width="95" height="30" viewBox="0 0 95 30" fill="none" xmlns="http://www.w3.org/2000/svg">
<path d="M2.5289 28.2417C2.27764 28.5535 1.95141 28.7115 1.5593 28.7115C1.2312 28.7115 0.956481 28.6015 0.742791 28.3843C0.528846 28.167 0.420301 27.9025 0.420301 27.5982C0.420301 27.2946 0.530291 27.0364 0.747211 26.8313C0.964556 26.6256 1.23783 26.5213 1.5593 26.5213C1.96798 26.5213 2.29396 26.6791 2.52839 26.9905L2.5436 27.0106L2.8666 26.8072L2.85266 26.784C2.72984 26.5808 2.55151 26.4193 2.32269 26.3041C2.09455 26.1891 1.84286 26.1309 1.57486 26.1309C1.11858 26.1309 0.739561 26.2786 0.448181 26.5699C0.1568 26.8613 0.00915527 27.2161 0.00915527 27.6242C0.00915527 28.0326 0.155185 28.383 0.443251 28.6658C0.731146 28.9485 1.09452 29.0918 1.52318 29.0918C1.79475 29.0918 2.05128 29.0371 2.28571 28.9293C2.52142 28.8213 2.71182 28.6634 2.85173 28.4606L2.86762 28.4375L2.54471 28.2222L2.5289 28.2417Z" fill="black"/>
<path d="M5.40163 26.1309C4.99839 26.1309 4.65133 26.2778 4.37015 26.5678C4.0894 26.8573 3.94702 27.2109 3.94702 27.6191C3.94702 28.0205 4.08855 28.3698 4.36752 28.6577C4.647 28.9458 4.99575 29.0919 5.40418 29.0919C5.8126 29.0919 6.16051 28.9457 6.43812 28.6577C6.71556 28.3698 6.85632 28.0186 6.85632 27.614C6.85632 27.2095 6.71386 26.8576 6.43293 26.5678C6.15175 26.2779 5.80478 26.1309 5.40163 26.1309ZM6.44509 27.6244C6.44509 27.9218 6.34266 28.1784 6.14062 28.3873C5.93883 28.5957 5.68842 28.7014 5.39653 28.7014C5.10455 28.7014 4.85686 28.5967 4.66017 28.39C4.46306 28.1828 4.36318 27.9271 4.36318 27.6296C4.36318 27.3321 4.46663 27.0718 4.67054 26.8562C4.87412 26.6409 5.12011 26.5318 5.40163 26.5318C5.68298 26.5318 5.92982 26.6409 6.13535 26.8562C6.34088 27.072 6.44509 27.3304 6.44509 27.6244Z" fill="black"/>
<path d="M10.4561 26.6501C10.1796 26.3055 9.82287 26.1309 9.39455 26.1309C8.9999 26.1309 8.65641 26.2771 8.37353 26.565C8.0909 26.8529 7.94751 27.2033 7.94751 27.6063C7.94751 28.0094 8.08997 28.3613 8.37081 28.6524C8.65182 28.9441 9.00143 29.0918 9.41002 29.0918C9.79856 29.0918 10.1502 28.9182 10.4561 28.5758V28.999H10.857V26.2032H10.4561V26.6501ZM10.1698 26.841C10.3734 27.0497 10.4767 27.3099 10.4767 27.614C10.4767 27.9284 10.3717 28.1929 10.1647 28.3996C9.95776 28.6067 9.70642 28.7117 9.41767 28.7117C9.12927 28.7117 8.87809 28.6025 8.67112 28.3873C8.46389 28.1719 8.35874 27.9134 8.35874 27.6192C8.35874 27.3249 8.46218 27.0665 8.66601 26.8511C8.86959 26.6358 9.12247 26.5267 9.41767 26.5267C9.71305 26.5266 9.96601 26.6324 10.1698 26.841Z" fill="black"/>
<path d="M14.6172 28.2417C14.3659 28.5535 14.0397 28.7115 13.6476 28.7115C13.3195 28.7115 13.0447 28.6015 12.831 28.3843C12.6171 28.167 12.5086 27.9025 12.5086 27.5982C12.5086 27.2946 12.6185 27.0364 12.8355 26.8313C13.0529 26.6256 13.3261 26.5213 13.6476 26.5213C14.0562 26.5213 14.3823 26.6791 14.6166 26.9905L14.6319 27.0106L14.9549 26.8072L14.9409 26.784C14.8182 26.5808 14.6398 26.4193 14.4109 26.3041C14.1828 26.1891 13.9312 26.1309 13.6631 26.1309C13.2068 26.1309 12.8278 26.2786 12.5364 26.5699C12.2451 26.8613 12.0974 27.2161 12.0974 27.6242C12.0974 28.0326 12.2434 28.383 12.5315 28.6658C12.8194 28.9485 13.1829 29.0918 13.6115 29.0918C13.883 29.0918 14.1395 29.0371 14.374 28.9293C14.6097 28.8213 14.8001 28.6634 14.9401 28.4606L14.9559 28.4375L14.6329 28.2222L14.6172 28.2417Z" fill="black"/>
<path d="M18.1483 26.3034C17.9791 26.1889 17.7864 26.1309 17.5755 26.1309C17.189 26.1309 16.853 26.3025 16.5757 26.6414V25.145H16.1646V28.9988H16.5757V27.9647C16.5757 27.5944 16.5911 27.3447 16.6213 27.223C16.6513 27.1032 16.7106 26.9851 16.7972 26.8717C16.884 26.7586 16.9903 26.6692 17.1132 26.6061C17.2359 26.5429 17.3662 26.511 17.5007 26.511C17.6346 26.511 17.7502 26.5351 17.8442 26.5828C17.9372 26.6302 18.0125 26.7005 18.068 26.7919C18.1244 26.8846 18.1614 26.9838 18.1779 27.0866C18.1949 27.1922 18.2034 27.387 18.2034 27.6655V28.9989H18.6145V27.5623C18.6145 27.2097 18.5791 26.9379 18.5095 26.7552C18.4392 26.5699 18.3176 26.4179 18.1483 26.3034Z" fill="black"/>
<path d="M20.2869 26.2031H19.8757V28.9989H20.2869V26.2031Z" fill="black"/>
<path d="M20.0811 25.145C19.9929 25.145 19.9167 25.1773 19.8548 25.2411C19.7931 25.3047 19.7618 25.3806 19.7618 25.4667C19.7618 25.5495 19.7932 25.6237 19.8548 25.6872C19.9166 25.7509 19.9927 25.7833 20.0811 25.7833C20.1691 25.7833 20.2451 25.7519 20.3069 25.69C20.3688 25.6281 20.4002 25.5522 20.4002 25.464C20.4002 25.3761 20.3688 25.3001 20.3069 25.2383C20.2451 25.1764 20.1691 25.145 20.0811 25.145Z" fill="black"/>
<path d="M23.5576 26.3034C23.3885 26.1889 23.1957 26.1309 22.9848 26.1309C22.5983 26.1309 22.2623 26.3025 21.9851 26.6414V26.2032H21.5739V28.9989H21.9851V27.9648C21.9851 27.594 22.0004 27.3444 22.0307 27.2231C22.0606 27.1035 22.1197 26.9852 22.2064 26.8718C22.2932 26.7587 22.3995 26.6692 22.5225 26.6062C22.6451 26.543 22.772 26.5111 22.8996 26.5111C23.0276 26.5111 23.1375 26.531 23.2264 26.5706C23.3146 26.6097 23.3883 26.6678 23.4455 26.7428C23.503 26.8186 23.5466 26.9124 23.5748 27.0219C23.6034 27.1327 23.6178 27.3492 23.6178 27.6654V28.9988H24.0238V27.5623C24.0238 27.2093 23.9885 26.9377 23.9188 26.7551C23.8482 26.5698 23.7267 26.4178 23.5576 26.3034Z" fill="black"/>
<path d="M27.7363 26.6315C27.4401 26.2993 27.0947 26.1309 26.7085 26.1309C26.3022 26.1309 25.9509 26.2725 25.6646 26.5516C25.3783 26.8312 25.233 27.1695 25.233 27.5572C25.233 27.9312 25.3695 28.2607 25.6383 28.5365C25.9076 28.8125 26.2493 28.9525 26.6542 28.9525C26.8705 28.9525 27.0792 28.9082 27.2745 28.8211C27.4484 28.7434 27.6035 28.6285 27.7363 28.4789V28.5225C27.7363 28.8126 27.7019 29.028 27.6336 29.163C27.5659 29.2963 27.4484 29.4079 27.2841 29.4941C27.1185 29.5811 26.9205 29.6251 26.6956 29.6251C26.2302 29.6251 25.896 29.4493 25.7027 29.1027L25.6949 29.0885H25.2562L25.2711 29.1261C25.502 29.7061 25.9863 30.0003 26.7109 30.0003C26.9228 30.0003 27.1205 29.9685 27.2981 29.9058C27.4764 29.843 27.6309 29.7508 27.7571 29.6314C27.8833 29.5122 27.9812 29.3611 28.0477 29.1824C28.1139 29.0046 28.1476 28.7235 28.1476 28.347V26.2033H27.7363V26.6315ZM27.4553 26.8232C27.652 27.0199 27.7518 27.2669 27.7518 27.5572C27.7518 27.8544 27.653 28.0995 27.4583 28.2857C27.2634 28.4724 27.0084 28.5671 26.7006 28.5671C26.3927 28.5671 26.137 28.4699 25.9403 28.2783C25.7438 28.0869 25.6442 27.8513 25.6442 27.5781C25.6442 27.3045 25.7475 27.0583 25.9515 26.846C26.1549 26.6342 26.4139 26.5268 26.7212 26.5268C27.0116 26.5267 27.2584 26.6264 27.4553 26.8232Z" fill="black"/>
<path d="M33.7134 26.6501C33.4368 26.3055 33.08 26.1309 32.6518 26.1309C32.2571 26.1309 31.9136 26.2771 31.6309 26.565C31.3481 26.8529 31.2048 27.2033 31.2048 27.6063C31.2048 28.0093 31.3472 28.3613 31.628 28.6525C31.9091 28.9441 32.2587 29.0918 32.6673 29.0918C33.0559 29.0918 33.4075 28.9182 33.7134 28.5758V28.999H34.1142V26.2032H33.7134V26.6501ZM33.427 26.841C33.6307 27.0498 33.7339 27.3099 33.7339 27.614C33.7339 27.9284 33.629 28.1929 33.422 28.3996C33.215 28.6067 32.9637 28.7117 32.6749 28.7117C32.3866 28.7117 32.1353 28.6025 31.9284 28.3873C31.721 28.1717 31.616 27.9133 31.616 27.6192C31.616 27.325 31.7194 27.0666 31.9233 26.8511C32.127 26.6358 32.3799 26.5267 32.6749 26.5267C32.9704 26.5266 33.2233 26.6324 33.427 26.841Z" fill="black"/>
<path d="M37.4519 26.3034C37.2828 26.1889 37.0901 26.1309 36.8791 26.1309C36.4926 26.1309 36.1567 26.3025 35.8794 26.6414V26.2032H35.4683V28.9989H35.8794V27.9648C35.8794 27.5942 35.8948 27.3447 35.925 27.2231C35.955 27.1035 36.0142 26.9852 36.1008 26.8718C36.1877 26.7587 36.294 26.6692 36.4169 26.6062C36.5395 26.543 36.6665 26.5111 36.7939 26.5111C36.9218 26.5111 37.0318 26.531 37.1207 26.5706C37.2091 26.6099 37.2827 26.6678 37.3398 26.7428C37.3974 26.8186 37.441 26.9125 37.4693 27.0219C37.4978 27.1327 37.5122 27.3493 37.5122 27.6654V28.9988H37.9182V27.5623C37.9182 27.2096 37.8829 26.9378 37.8132 26.7551C37.7427 26.5699 37.6211 26.4179 37.4519 26.3034Z" fill="black"/>
<path d="M41.6208 26.6499C41.3442 26.3053 40.9873 26.1308 40.5591 26.1308C40.1644 26.1308 39.8209 26.2769 39.5383 26.5649C39.2554 26.8528 39.1121 27.2041 39.1121 27.6086C39.1121 28.0131 39.2536 28.3651 39.5327 28.6548C39.812 28.9447 40.1616 29.0917 40.5719 29.0917C40.9621 29.0917 41.3147 28.9181 41.6208 28.5756V28.9988H42.0215V25.145H41.6208V26.6499ZM41.3392 26.843C41.5397 27.0535 41.6413 27.3146 41.6413 27.6189C41.6413 27.9331 41.533 28.1965 41.3195 28.4019C41.1054 28.6073 40.8538 28.7115 40.5719 28.7115C40.2902 28.7115 40.0426 28.6015 39.8358 28.3845C39.6285 28.1674 39.5233 27.909 39.5233 27.6164C39.5233 27.3239 39.6259 27.0662 39.8281 26.8507C40.03 26.6355 40.2846 26.5264 40.5849 26.5264C40.8854 26.5264 41.1392 26.6329 41.3392 26.843Z" fill="black"/>
<path d="M46.7839 26.1308C46.367 26.1308 46.0068 26.2975 45.7121 26.6262V25.145H45.3113V28.9988H45.7121V28.5469C46.0003 28.9086 46.357 29.0918 46.7735 29.0918C47.1684 29.0918 47.5118 28.9449 47.7946 28.6551C48.0772 28.3656 48.2205 28.0135 48.2205 27.6087C48.2205 27.2041 48.0799 26.8528 47.8025 26.565C47.5247 26.277 47.182 26.1308 46.7839 26.1308ZM47.8093 27.601C47.8093 27.8937 47.7051 28.1521 47.4994 28.3692C47.2943 28.5862 47.0414 28.6961 46.7478 28.6961C46.4542 28.6961 46.2021 28.5879 45.9986 28.3743C45.7948 28.1606 45.6914 27.8943 45.6914 27.5831C45.6914 27.2755 45.7937 27.0163 45.9959 26.8126C46.1975 26.6091 46.4522 26.506 46.753 26.506C47.0532 26.506 47.3068 26.6159 47.507 26.8326C47.7076 27.05 47.8093 27.3085 47.8093 27.601Z" fill="black"/>
<path d="M51.4172 27.2372C51.4172 27.6083 51.4018 27.8579 51.3717 27.9789C51.3418 28.0983 51.2827 28.2164 51.1959 28.3302C51.1091 28.4433 51.0029 28.5328 50.88 28.5959C50.7572 28.6589 50.6303 28.6909 50.5028 28.6909C50.3745 28.6909 50.2646 28.6708 50.176 28.6314C50.0875 28.5921 50.0139 28.5343 49.9568 28.4593C49.8992 28.3836 49.8558 28.2898 49.8275 28.1801C49.7989 28.0695 49.7845 27.8528 49.7845 27.5365V26.2033H49.3784V27.6398C49.3784 27.9929 49.4138 28.2645 49.4835 28.447C49.554 28.6323 49.6756 28.7842 49.8446 28.8986C50.0137 29.0131 50.2065 29.0711 50.4175 29.0711C50.804 29.0711 51.14 28.8995 51.4172 28.5606V28.9989H51.8284V26.2031H51.4172V27.2372Z" fill="black"/>
<path d="M53.7983 26.5162C53.9692 26.5162 54.1483 26.6058 54.3315 26.7822L54.3511 26.8011L54.6165 26.5298L54.5971 26.5105C54.3416 26.2586 54.0894 26.1309 53.8473 26.1309C53.6054 26.1309 53.4078 26.203 53.2605 26.3451C53.113 26.4875 53.0381 26.6617 53.0381 26.8629C53.0381 27.0632 53.0915 27.229 53.1966 27.3553C53.2999 27.4797 53.4572 27.5958 53.6649 27.7006C53.8659 27.8019 54.0114 27.8933 54.0973 27.9723C54.1796 28.0484 54.2198 28.1431 54.2198 28.2618C54.2198 28.3805 54.1736 28.4811 54.079 28.5694C53.9849 28.657 53.8696 28.7013 53.7364 28.7013C53.546 28.7013 53.3601 28.6019 53.184 28.4059L53.1635 28.3831L52.9054 28.6711L52.9202 28.6894C53.0221 28.816 53.1479 28.9156 53.2937 28.9859C53.4394 29.0561 53.5936 29.0918 53.752 29.0918C53.9925 29.0918 54.1978 29.0092 54.3625 28.8464C54.5271 28.6835 54.6108 28.4808 54.6108 28.2435C54.6108 28.0553 54.5538 27.8938 54.4413 27.7636C54.3314 27.636 54.1696 27.5158 53.9611 27.4064C53.758 27.2998 53.6132 27.2073 53.5307 27.1317C53.4516 27.059 53.4132 26.9744 53.4132 26.8732C53.4132 26.7718 53.4492 26.6889 53.5233 26.6199C53.5976 26.5501 53.6875 26.5162 53.7983 26.5162Z" fill="black"/>
<path d="M55.9427 25.145C55.8545 25.145 55.7782 25.1773 55.7164 25.2411C55.6547 25.3047 55.6234 25.3806 55.6234 25.4667C55.6234 25.5496 55.6547 25.6238 55.7164 25.6872C55.7781 25.7509 55.8544 25.7833 55.9427 25.7833C56.0307 25.7833 56.1068 25.7518 56.1683 25.69C56.2304 25.6281 56.2618 25.5522 56.2618 25.464C56.2618 25.3761 56.2305 25.3001 56.1683 25.2383C56.1068 25.1765 56.0307 25.145 55.9427 25.145Z" fill="black"/>
<path d="M56.1483 26.2031H55.7369V28.9989H56.1483V26.2031Z" fill="black"/>
<path d="M59.4192 26.3034C59.25 26.1889 59.0571 26.1309 58.8463 26.1309C58.4597 26.1309 58.1239 26.3025 57.8467 26.6414V26.2032H57.4354V28.9989H57.8467V27.9648C57.8467 27.5939 57.8621 27.3443 57.892 27.2233C57.9222 27.1033 57.9815 26.985 58.0679 26.8718C58.1547 26.7587 58.261 26.6692 58.384 26.6062C58.5067 26.543 58.6336 26.5111 58.7611 26.5111C58.8892 26.5111 58.9992 26.531 59.088 26.5706C59.1761 26.6097 59.2498 26.6678 59.3071 26.7428C59.3646 26.8186 59.4082 26.9125 59.4364 27.0219C59.4651 27.1327 59.4794 27.3493 59.4794 27.6654V28.9988H59.8854V27.5623C59.8854 27.2096 59.85 26.9378 59.7803 26.7551C59.7097 26.5698 59.5881 26.4178 59.4192 26.3034Z" fill="black"/>
<path d="M63.9523 27.6392C63.942 27.1764 63.7979 26.8052 63.5236 26.5361C63.2493 26.2673 62.9057 26.1309 62.5029 26.1309C62.0995 26.1309 61.7559 26.2778 61.4816 26.5679C61.2077 26.8574 61.069 27.2093 61.069 27.6139C61.069 28.0187 61.207 28.3697 61.4791 28.6574C61.7516 28.9456 62.1021 29.0918 62.5209 29.0918C63.1073 29.0918 63.5568 28.8091 63.8563 28.2515L63.8696 28.2268L63.521 28.0467L63.5084 28.0707C63.2841 28.4959 62.9415 28.7115 62.4901 28.7115C62.2168 28.7115 61.9814 28.6128 61.7899 28.4179C61.6035 28.2286 61.5015 27.9761 61.4864 27.6672H63.9532L63.9523 27.6392ZM61.5307 27.3078C61.6902 26.7822 62.0096 26.5266 62.5056 26.5266C62.7494 26.5266 62.9678 26.5994 63.1547 26.7429C63.3329 26.8796 63.4486 27.0698 63.4992 27.3078H61.5307Z" fill="black"/>
<path d="M65.7933 26.5162C65.964 26.5162 66.1433 26.6058 66.3265 26.7822L66.3462 26.8011L66.6115 26.5298L66.592 26.5105C66.3365 26.2586 66.0844 26.1309 65.8423 26.1309C65.6004 26.1309 65.4028 26.203 65.2554 26.3451C65.1078 26.4875 65.033 26.6617 65.033 26.8629C65.033 27.0633 65.0864 27.2291 65.1916 27.3553C65.2946 27.4796 65.452 27.5958 65.6598 27.7006C65.8607 27.8017 66.0061 27.8933 66.0922 27.9723C66.1746 28.0484 66.2147 28.1431 66.2147 28.2618C66.2147 28.3805 66.1688 28.4811 66.0741 28.5694C65.9798 28.657 65.8646 28.7013 65.7314 28.7013C65.5409 28.7013 65.355 28.6019 65.1789 28.4059L65.1585 28.3831L64.9006 28.6711L64.9153 28.6894C65.0173 28.816 65.1428 28.9156 65.2886 28.9859C65.4343 29.0561 65.5885 29.0918 65.7471 29.0918C65.9875 29.0918 66.1928 29.0092 66.3574 28.8464C66.5221 28.6835 66.6056 28.4808 66.6056 28.2435C66.6056 28.0553 66.5487 27.8938 66.4363 27.7636C66.3263 27.636 66.1646 27.5158 65.9562 27.4064C65.753 27.2998 65.6081 27.2073 65.5256 27.1317C65.4466 27.059 65.4082 26.9744 65.4082 26.8732C65.4082 26.7719 65.4442 26.689 65.5182 26.6199C65.5925 26.5501 65.6825 26.5162 65.7933 26.5162Z" fill="black"/>
<path d="M68.4103 26.5162C68.5811 26.5162 68.7604 26.6058 68.9435 26.7822L68.9633 26.8011L69.2285 26.5298L69.209 26.5105C68.9537 26.2586 68.7015 26.1309 68.4593 26.1309C68.2174 26.1309 68.02 26.2028 67.8725 26.3451C67.7249 26.4875 67.65 26.6617 67.65 26.8629C67.65 27.0632 67.7035 27.229 67.8086 27.3553C67.9118 27.4797 68.0691 27.5958 68.2768 27.7006C68.478 27.8019 68.6235 27.8933 68.7092 27.9723C68.7916 28.0484 68.8318 28.1431 68.8318 28.2618C68.8318 28.3805 68.7858 28.4811 68.6911 28.5694C68.5956 28.6582 68.4834 28.7013 68.3484 28.7013C68.1579 28.7013 67.9721 28.6019 67.796 28.4059L67.7755 28.3831L67.5176 28.6711L67.5323 28.6894C67.634 28.8158 67.7598 28.9156 67.9056 28.9859C68.0513 29.0561 68.2056 29.0918 68.3642 29.0918C68.6045 29.0918 68.8098 29.0092 68.9745 28.8464C69.139 28.6837 69.2227 28.4809 69.2227 28.2435C69.2227 28.0553 69.1657 27.8938 69.0534 27.7636C68.9434 27.636 68.7818 27.5158 68.5731 27.4064C68.3698 27.2996 68.2249 27.2071 68.1427 27.1317C68.0636 27.059 68.0252 26.9744 68.0252 26.8732C68.0252 26.7719 68.0612 26.689 68.1353 26.6199C68.2096 26.5501 68.2994 26.5162 68.4103 26.5162Z" fill="black"/>
<path d="M73.0264 25.145H72.6153V26.2031H72.13V26.5576H72.6153V28.5945C72.6153 28.7629 72.6543 28.8892 72.7312 28.9697C72.8085 29.0506 72.9299 29.0917 73.0917 29.0917C73.1758 29.0917 73.292 29.0795 73.4371 29.0552L73.46 29.0514V28.7013H73.2209C73.0937 28.7013 73.0596 28.6868 73.0511 28.6807C73.0469 28.6777 73.0264 28.6569 73.0264 28.5378V26.5576H73.5838V26.2031H73.0264V25.145Z" fill="black"/>
<path d="M75.1875 26.2508C75.1107 26.3145 75.0313 26.4087 74.9512 26.5319V26.2033H74.5349V28.9991H74.9512V28.0425C74.9512 27.5895 74.9735 27.273 75.0175 27.1021C75.0609 26.9333 75.1292 26.7937 75.2208 26.6874C75.3544 26.5316 75.5075 26.4901 75.6477 26.5743L75.6709 26.5882L75.8864 26.2411L75.8607 26.2272C75.625 26.0984 75.3773 26.0929 75.1875 26.2508Z" fill="black"/>
<path d="M79.222 26.6501C78.9452 26.3055 78.5886 26.1309 78.1603 26.1309C77.7656 26.1309 77.4221 26.2771 77.1392 26.565C76.8566 26.8529 76.7131 27.2033 76.7131 27.6063C76.7131 28.0093 76.8556 28.3613 77.1365 28.6524C77.4175 28.9441 77.7671 29.0918 78.1756 29.0918C78.5643 29.0918 78.9159 28.9182 79.222 28.5758V28.999H79.6228V26.2032H79.222V26.6501ZM78.9355 26.841C79.1391 27.0497 79.2423 27.3099 79.2423 27.614C79.2423 27.9284 79.1376 28.1926 78.9304 28.3996C78.7235 28.6067 78.4721 28.7117 78.1834 28.7117C77.895 28.7117 77.6437 28.6025 77.4367 28.3873C77.2295 28.1719 77.1244 27.9134 77.1244 27.6192C77.1244 27.3249 77.228 27.0665 77.4318 26.8511C77.6354 26.6358 77.8883 26.5267 78.1834 26.5267C78.4788 26.5266 78.7318 26.6324 78.9355 26.841Z" fill="black"/>
<path d="M81.3362 26.2031H80.9249V28.9989H81.3362V26.2031Z" fill="black"/>
<path d="M81.1306 25.145C81.0425 25.145 80.9663 25.1773 80.9043 25.2411C80.8427 25.3047 80.8114 25.3806 80.8114 25.4667C80.8114 25.5495 80.8427 25.6237 80.9043 25.6872C80.9661 25.7509 81.0423 25.7833 81.1306 25.7833C81.2185 25.7833 81.2947 25.7519 81.3564 25.69C81.4184 25.6281 81.4498 25.5522 81.4498 25.464C81.4498 25.3761 81.4185 25.3001 81.3564 25.2383C81.2946 25.1764 81.2185 25.145 81.1306 25.145Z" fill="black"/>
<path d="M84.6067 26.3034C84.4375 26.1889 84.2449 26.1309 84.0339 26.1309C83.6474 26.1309 83.3116 26.3025 83.0342 26.6414V26.2032H82.623V28.9989H83.0342V27.9648C83.0342 27.5942 83.0496 27.3447 83.0797 27.2231C83.1098 27.1035 83.169 26.9852 83.2555 26.8718C83.3423 26.7587 83.4486 26.6694 83.5716 26.6062C83.6943 26.543 83.8213 26.5111 83.9487 26.5111C84.0769 26.5111 84.1868 26.531 84.2755 26.5706C84.3639 26.6099 84.4375 26.6678 84.4946 26.7428C84.5522 26.8186 84.5958 26.9125 84.624 27.0219C84.6526 27.1327 84.667 27.3493 84.667 27.6654V28.9988H85.0729V27.5623C85.0729 27.2096 85.0376 26.9378 84.9679 26.7551C84.8973 26.5698 84.7758 26.4178 84.6067 26.3034Z" fill="black"/>
<path d="M86.5397 25.145C86.4515 25.145 86.3751 25.1773 86.3133 25.2411C86.2517 25.3047 86.2203 25.3806 86.2203 25.4667C86.2203 25.5495 86.2517 25.6237 86.3133 25.6872C86.375 25.7509 86.4513 25.7833 86.5397 25.7833C86.6276 25.7833 86.7036 25.7519 86.7654 25.69C86.8274 25.6281 86.8587 25.5522 86.8587 25.464C86.8587 25.3761 86.8274 25.3001 86.7654 25.2383C86.7036 25.1764 86.6276 25.145 86.5397 25.145Z" fill="black"/>
<path d="M86.7454 26.2031H86.3342V28.9989H86.7454V26.2031Z" fill="black"/>
<path d="M90.0157 26.3034C89.8466 26.1889 89.6539 26.1309 89.4429 26.1309C89.0563 26.1309 88.7205 26.3025 88.4432 26.6414V26.2032H88.032V28.9989H88.4432V27.9648C88.4432 27.5942 88.4585 27.3447 88.4886 27.2231C88.5187 27.1035 88.5779 26.9852 88.6645 26.8718C88.7514 26.7587 88.8577 26.6692 88.9805 26.6062C89.1032 26.543 89.2302 26.5111 89.3577 26.5111C89.4857 26.5111 89.5956 26.531 89.6845 26.5706C89.7727 26.6097 89.8465 26.6678 89.9037 26.7428C89.9611 26.8186 90.0047 26.9125 90.0331 27.0219C90.0615 27.1327 90.076 27.3493 90.076 27.6654V28.9988H90.4819V27.5623C90.4819 27.2096 90.4465 26.9378 90.377 26.7551C90.3064 26.5699 90.1848 26.4179 90.0157 26.3034Z" fill="black"/>
<path d="M94.1949 26.2032V26.6314C93.8985 26.2992 93.553 26.1309 93.1669 26.1309C92.7604 26.1309 92.4094 26.2724 92.1232 26.5516C91.8367 26.8309 91.6915 27.1693 91.6915 27.5572C91.6915 27.9312 91.8279 28.2606 92.0969 28.5364C92.3661 28.8124 92.7079 28.9525 93.1127 28.9525C93.3291 28.9525 93.5378 28.9082 93.7331 28.8211C93.907 28.7435 94.0621 28.6284 94.195 28.479V28.5225C94.195 28.8124 94.1603 29.0279 94.0922 29.1629C94.0246 29.2963 93.9071 29.4078 93.7426 29.4942C93.5772 29.581 93.3792 29.6251 93.1541 29.6251C92.6888 29.6251 92.3547 29.4494 92.1614 29.1026L92.1535 29.0885H91.7147L91.7297 29.1262C91.9606 29.7061 92.4449 30.0002 93.1695 30.0002C93.3814 30.0002 93.579 29.9685 93.7568 29.9058C93.9351 29.843 94.0894 29.7506 94.2156 29.6314C94.3417 29.5122 94.4397 29.3611 94.5063 29.1823C94.5724 29.0041 94.6061 28.7232 94.6061 28.3471V26.2032H94.1949ZM94.2103 27.5572C94.2103 27.8542 94.1117 28.0994 93.917 28.2856C93.7221 28.4724 93.4671 28.567 93.1592 28.567C92.8513 28.567 92.5955 28.4697 92.399 28.2782C92.2025 28.0867 92.1029 27.8513 92.1029 27.5779C92.1029 27.3045 92.2062 27.0582 92.4099 26.846C92.6135 26.6341 92.8726 26.5267 93.1798 26.5267C93.4701 26.5267 93.717 26.6265 93.9139 26.8232C94.1106 27.0198 94.2103 27.2668 94.2103 27.5572Z" fill="black"/>
<path d="M61.6879 23.5825H74.1072L75.2017 20.768H64.5024V13.8639H72.4531L73.5903 11.0645H64.5024V2.81461H74.0889L75.2017 0H61.6879V23.5825Z" fill="black"/>
<path d="M89.0328 13.5035C90.1039 13.1479 91.0455 12.5228 91.8333 11.6441C92.9606 10.3877 93.5319 8.56665 93.5319 6.88636C93.5319 5.02767 92.8406 3.20178 91.5854 1.94633C90.2937 0.654841 88.7208 0 86.9103 0L78.3197 0.02788V23.5825H81.1344V13.8401H86.0473L91.412 23.5825H94.5724L89.0328 13.5035ZM90.7176 6.88636C90.7176 7.9498 90.3515 9.16088 89.5984 9.90633C88.8451 10.6593 87.9658 11.0254 86.9103 11.0254H81.1345V2.81461H86.9103C87.9658 2.81461 88.8451 3.1807 89.5984 3.9338C90.3199 4.65562 90.7176 5.77558 90.7176 6.88636Z" fill="black"/>
<path d="M30.6701 0H24.6793V23.5826H30.6701C33.8971 23.5826 36.6987 22.4171 38.9971 20.1184C41.2857 17.83 42.4461 15.0284 42.4461 11.7914C42.4461 8.55432 41.2857 5.75263 38.9971 3.46409C36.6983 1.16552 33.8967 0 30.6701 0ZM39.6468 11.7914C39.6468 14.2584 38.7601 16.3959 37.0114 18.1442C35.2617 19.8852 33.1283 20.7679 30.6701 20.7679H27.494V2.81469H30.6701C33.1282 2.81469 35.2612 3.69691 37.0097 5.4366C38.7595 7.18625 39.6468 9.32434 39.6468 11.7914Z" fill="black"/>
<path d="M48.3188 0H45.5043V23.5825H57.8916L59.0181 20.7681H48.3188V0Z" fill="black"/>
<path d="M3.92505 13.8526H7.25629L8.29796 11.1052L4.99766 11.1045L3.92505 13.8526Z" fill="black"/>
<path d="M11.1206 4.00393L12.6891 0.033323L12.6883 0.031283L12.6834 0.019043H9.45906L6.11499 8.38645H9.40738L11.1202 4.00385" fill="black"/>
<path d="M12.6829 0.0180664L11.1202 4.0038L12.8408 8.38658H3.20858L2.12695 11.1055H17.1401L12.6829 0.0180664Z" fill="black"/>
<path d="M17.5985 20.8677L17.5886 20.8678L4.47494 20.8725H1.10222L0.0252686 23.5829H22.0238L20.9513 20.8677H17.5985Z" fill="black"/>
<path d="M15.9623 16.5719L17.5916 20.8878H20.9444L18.1462 13.853H1.08163L0 16.5719H15.9623Z" fill="black"/>
<path d="M6.1802 16.5742H2.83077L1.10229 20.874H4.48674L5.39973 18.5543L6.1802 16.5742Z" fill="black"/>
</svg>
