<svg width="126" height="40" viewBox="0 0 126 40" fill="none" xmlns="http://www.w3.org/2000/svg">
<path fill-rule="evenodd" clip-rule="evenodd" d="M40.0365 20C40.0365 31.0457 31.0822 40 20.0365 40C15.2048 40 10.7733 38.2867 7.31638 35.4344L8.8733 33.8775C11.9272 36.3372 15.8099 37.8095 20.0365 37.8095C29.8724 37.8095 37.846 29.8359 37.846 20C37.846 10.1641 29.8724 2.19048 20.0365 2.19048C15.7734 2.19048 11.8602 3.68834 8.79439 6.18645L7.23828 4.63035C10.7064 1.73928 15.1684 0 20.0365 0C31.0822 0 40.0365 8.95431 40.0365 20Z" fill="black"/>
<path d="M15.4762 8.04739V19.095H2.33333C2.26984 16.9839 2.98095 11.9236 6.33333 8.5712L4.66667 6.95215C1.08571 10.5331 0.0634921 16.7617 0 19.4283C0 26.2855 3.1746 31.3648 4.7619 33.0474L6.38095 31.3807C3.21905 28.2188 2.36508 23.5553 2.33333 21.6188H15.4762V32.476H17.7143V10.2379H25.6667C29.1333 11.7236 29.9365 14.8252 29.9048 16.1902C29.9048 20.3426 26.4127 21.5395 24.6667 21.6188H20.5238L28.5714 32.476H31.5238L24.6667 23.1902H25.6667C31.0762 23.1902 32.2698 18.5236 32.1905 16.1902C32.1905 10.4283 27.8413 8.63469 25.6667 8.04739H15.4762Z" fill="black"/>
<path fill-rule="evenodd" clip-rule="evenodd" d="M52.2856 26.6661C57.598 26.6661 61.9046 22.3595 61.9046 17.047C61.9046 11.7346 57.598 7.42798 52.2856 7.42798C47.0204 7.42798 42.7432 11.6583 42.6675 16.9056L42.6665 16.9042L42.5713 32.6185H45.4284V23.7928C47.1733 25.5663 49.601 26.6661 52.2856 26.6661ZM52.2856 24.2851C56.2831 24.2851 59.5237 21.0445 59.5237 17.047C59.5237 13.0495 56.2831 9.80893 52.2856 9.80893C48.2881 9.80893 45.0475 13.0495 45.0475 17.047C45.0475 21.0445 48.2881 24.2851 52.2856 24.2851Z" fill="black"/>
<path fill-rule="evenodd" clip-rule="evenodd" d="M83.5237 17.047C83.5237 17.4337 83.5009 17.8151 83.4565 18.1899H66.7562C67.3042 21.6443 70.296 24.2851 73.9046 24.2851C76.8134 24.2851 79.3214 22.5693 80.4717 20.0946H83.0309C81.7562 23.9133 78.1519 26.6661 73.9046 26.6661C68.5922 26.6661 64.2856 22.3595 64.2856 17.047C64.2856 11.7346 68.5922 7.42798 73.9046 7.42798C79.2171 7.42798 83.5237 11.7346 83.5237 17.047ZM66.8483 15.428C67.5836 12.2099 70.4637 9.80893 73.9046 9.80893C77.3455 9.80893 80.2256 12.2099 80.9609 15.428H66.8483Z" fill="black"/>
<path fill-rule="evenodd" clip-rule="evenodd" d="M102.047 23.542C100.289 25.4621 97.7612 26.6661 94.9522 26.6661C89.6398 26.6661 85.3332 22.3595 85.3332 17.047C85.3332 11.7346 89.6398 7.42798 94.9522 7.42798C100.265 7.42798 104.571 11.7346 104.571 17.047C104.571 17.0639 104.571 17.0807 104.571 17.0976C104.571 17.1125 104.571 17.1274 104.571 17.1423H104.571L104.714 26.4756H102.047V23.542ZM102.19 17.047C102.19 21.0445 98.9497 24.2851 94.9522 24.2851C90.9548 24.2851 87.7141 21.0445 87.7141 17.047C87.7141 13.0495 90.9548 9.80893 94.9522 9.80893C98.9497 9.80893 102.19 13.0495 102.19 17.047Z" fill="black"/>
<path d="M107.047 7.90417V26.4756H109.667V22.2375L112.571 18.7613L119 26.4756H121.905L113.905 16.9994L121.238 7.90417H117.809L109.667 18.4756V7.90417H107.047Z" fill="black"/>
<path d="M47.2273 31.5179C47.2273 31.2595 47.2755 31.0352 47.3718 30.8449C47.4704 30.6522 47.6114 30.5031 47.7946 30.3973C47.9779 30.2916 48.1952 30.2388 48.4465 30.2388C48.6979 30.2388 48.9152 30.2916 49.0984 30.3973C49.2817 30.5031 49.4226 30.6522 49.5213 30.8449C49.6223 31.0352 49.6728 31.2583 49.6728 31.5144C49.6728 31.7752 49.6223 32.0018 49.5213 32.1945C49.4226 32.3848 49.2817 32.5339 49.0984 32.642C48.9152 32.7477 48.6979 32.8006 48.4465 32.8006C48.1952 32.8006 47.9779 32.7477 47.7946 32.642C47.6137 32.5339 47.474 32.3836 47.3753 32.191C47.2766 31.9983 47.2273 31.774 47.2273 31.5179ZM47.8017 31.5179C47.8017 31.774 47.8545 31.9748 47.9602 32.1205C48.0683 32.2638 48.2304 32.3354 48.4465 32.3354C48.658 32.3354 48.8189 32.2638 48.9293 32.1205C49.0397 31.9748 49.0949 31.774 49.0949 31.5179C49.0949 31.2595 49.0397 31.0598 48.9293 30.9189C48.8212 30.7756 48.6603 30.7039 48.4465 30.7039C48.2304 30.7039 48.0683 30.7756 47.9602 30.9189C47.8545 31.0598 47.8017 31.2595 47.8017 31.5179Z" fill="black"/>
<path d="M51.0548 32.7618V30.2775H51.4636L52.8132 31.9936H52.7181V30.2775H53.229V32.7618H52.8203L51.4742 31.0457H51.5658V32.7618H51.0548Z" fill="black"/>
<path d="M54.6845 32.7618V30.2775H55.2342V32.3002H56.3548V32.7618H54.6845Z" fill="black"/>
<path d="M57.6431 32.7618V30.2775H58.1928V32.7618H57.6431Z" fill="black"/>
<path d="M59.6485 32.7618V30.2775H60.0572L61.4069 31.9936H61.3117V30.2775H61.8227V32.7618H61.4139L60.0678 31.0457H60.1594V32.7618H59.6485Z" fill="black"/>
<path d="M63.2781 32.7618V30.2775H65.0048V30.7039H63.8032V31.2853H64.9202V31.7152H63.8032V32.3354H65.0048V32.7618H63.2781Z" fill="black"/>
<path d="M67.9944 32.7618L69.1361 30.2775H69.5907L70.7465 32.7618H70.1897L69.8902 32.0712L70.1052 32.2227H68.6287L68.8472 32.0712L68.5476 32.7618H67.9944ZM69.3616 30.8554L68.9071 31.9337L68.8119 31.7998H69.9219L69.8409 31.9337L69.3757 30.8554H69.3616Z" fill="black"/>
<path d="M72.7807 32.8006C72.581 32.8006 72.3942 32.7759 72.2204 32.7266C72.0466 32.6772 71.8986 32.6091 71.7764 32.5222L71.9385 32.0923C72.0184 32.1463 72.1029 32.1921 72.1922 32.2297C72.2815 32.2673 72.3755 32.2967 72.4741 32.3178C72.5728 32.3366 72.6761 32.346 72.7842 32.346C72.9534 32.346 73.0732 32.3202 73.1436 32.2685C73.2165 32.2168 73.2529 32.151 73.2529 32.0712C73.2529 31.9983 73.2282 31.9431 73.1789 31.9055C73.1319 31.8656 73.045 31.8315 72.9181 31.8033L72.5023 31.7188C72.2744 31.6718 72.1041 31.5919 71.9914 31.4792C71.8786 31.3664 71.8222 31.216 71.8222 31.0281C71.8222 30.8684 71.8645 30.7298 71.9491 30.6123C72.0336 30.4948 72.1523 30.4032 72.305 30.3374C72.46 30.2717 72.6409 30.2388 72.8476 30.2388C73.0238 30.2388 73.1883 30.2634 73.341 30.3128C73.4937 30.3621 73.6194 30.4326 73.718 30.5242L73.5559 30.9259C73.4596 30.8484 73.3515 30.7908 73.2317 30.7532C73.1143 30.7133 72.9827 30.6933 72.8371 30.6933C72.6844 30.6933 72.5669 30.7204 72.4847 30.7744C72.4048 30.8284 72.3649 30.9024 72.3649 30.9964C72.3649 31.0669 72.3895 31.1244 72.4389 31.1691C72.4882 31.2113 72.5751 31.2454 72.6996 31.2712L73.1084 31.3523C73.341 31.3993 73.5136 31.478 73.6264 31.5884C73.7392 31.6988 73.7955 31.8456 73.7955 32.0289C73.7955 32.1839 73.7533 32.319 73.6687 32.4341C73.5865 32.5492 73.469 32.6397 73.3163 32.7054C73.166 32.7689 72.9874 32.8006 72.7807 32.8006Z" fill="black"/>
<path d="M76.0525 32.8006C75.8528 32.8006 75.666 32.7759 75.4922 32.7266C75.3183 32.6772 75.1703 32.6091 75.0482 32.5222L75.2103 32.0923C75.2901 32.1463 75.3747 32.1921 75.464 32.2297C75.5532 32.2673 75.6472 32.2967 75.7459 32.3178C75.8445 32.3366 75.9479 32.346 76.056 32.346C76.2251 32.346 76.3449 32.3202 76.4154 32.2685C76.4882 32.2168 76.5246 32.151 76.5246 32.0712C76.5246 31.9983 76.5 31.9431 76.4506 31.9055C76.4037 31.8656 76.3167 31.8315 76.1899 31.8033L75.7741 31.7188C75.5462 31.6718 75.3759 31.5919 75.2631 31.4792C75.1504 31.3664 75.094 31.216 75.094 31.0281C75.094 30.8684 75.1363 30.7298 75.2208 30.6123C75.3054 30.4948 75.424 30.4032 75.5767 30.3374C75.7318 30.2717 75.9127 30.2388 76.1194 30.2388C76.2956 30.2388 76.46 30.2634 76.6127 30.3128C76.7654 30.3621 76.8911 30.4326 76.9898 30.5242L76.8277 30.9259C76.7314 30.8484 76.6233 30.7908 76.5035 30.7532C76.386 30.7133 76.2545 30.6933 76.1088 30.6933C75.9561 30.6933 75.8387 30.7204 75.7565 30.7744C75.6766 30.8284 75.6366 30.9024 75.6366 30.9964C75.6366 31.0669 75.6613 31.1244 75.7106 31.1691C75.76 31.2113 75.8469 31.2454 75.9714 31.2712L76.3802 31.3523C76.6127 31.3993 76.7854 31.478 76.8982 31.5884C77.0109 31.6988 77.0673 31.8456 77.0673 32.0289C77.0673 32.1839 77.025 32.319 76.9405 32.4341C76.8582 32.5492 76.7408 32.6397 76.5881 32.7054C76.4377 32.7689 76.2592 32.8006 76.0525 32.8006Z" fill="black"/>
<path d="M78.4256 32.7618V30.2775H80.1523V30.7039H78.9507V31.2853H80.0677V31.7152H78.9507V32.3354H80.1523V32.7618H78.4256Z" fill="black"/>
<path d="M82.3517 32.8006C82.152 32.8006 81.9652 32.7759 81.7914 32.7266C81.6175 32.6772 81.4695 32.6091 81.3474 32.5222L81.5095 32.0923C81.5893 32.1463 81.6739 32.1921 81.7632 32.2297C81.8524 32.2673 81.9464 32.2967 82.0451 32.3178C82.1437 32.3366 82.2471 32.346 82.3552 32.346C82.5243 32.346 82.6441 32.3202 82.7146 32.2685C82.7874 32.2168 82.8238 32.151 82.8238 32.0712C82.8238 31.9983 82.7992 31.9431 82.7498 31.9055C82.7029 31.8656 82.6159 31.8315 82.4891 31.8033L82.0733 31.7188C81.8454 31.6718 81.6751 31.5919 81.5623 31.4792C81.4496 31.3664 81.3932 31.216 81.3932 31.0281C81.3932 30.8684 81.4355 30.7298 81.52 30.6123C81.6046 30.4948 81.7232 30.4032 81.8759 30.3374C82.031 30.2717 82.2119 30.2388 82.4186 30.2388C82.5948 30.2388 82.7592 30.2634 82.9119 30.3128C83.0646 30.3621 83.1903 30.4326 83.289 30.5242L83.1269 30.9259C83.0306 30.8484 82.9225 30.7908 82.8027 30.7532C82.6852 30.7133 82.5537 30.6933 82.408 30.6933C82.2553 30.6933 82.1379 30.7204 82.0556 30.7744C81.9758 30.8284 81.9358 30.9024 81.9358 30.9964C81.9358 31.0669 81.9605 31.1244 82.0098 31.1691C82.0592 31.2113 82.1461 31.2454 82.2706 31.2712L82.6794 31.3523C82.9119 31.3993 83.0846 31.478 83.1974 31.5884C83.3101 31.6988 83.3665 31.8456 83.3665 32.0289C83.3665 32.1839 83.3242 32.319 83.2397 32.4341C83.1574 32.5492 83.04 32.6397 82.8873 32.7054C82.7369 32.7689 82.5584 32.8006 82.3517 32.8006Z" fill="black"/>
<path d="M85.6234 32.8006C85.4237 32.8006 85.237 32.7759 85.0631 32.7266C84.8893 32.6772 84.7413 32.6091 84.6191 32.5222L84.7812 32.0923C84.8611 32.1463 84.9457 32.1921 85.0349 32.2297C85.1242 32.2673 85.2182 32.2967 85.3168 32.3178C85.4155 32.3366 85.5189 32.346 85.6269 32.346C85.7961 32.346 85.9159 32.3202 85.9864 32.2685C86.0592 32.2168 86.0956 32.151 86.0956 32.0712C86.0956 31.9983 86.0709 31.9431 86.0216 31.9055C85.9746 31.8656 85.8877 31.8315 85.7608 31.8033L85.345 31.7188C85.1172 31.6718 84.9468 31.5919 84.8341 31.4792C84.7213 31.3664 84.6649 31.216 84.6649 31.0281C84.6649 30.8684 84.7072 30.7298 84.7918 30.6123C84.8764 30.4948 84.995 30.4032 85.1477 30.3374C85.3027 30.2717 85.4836 30.2388 85.6904 30.2388C85.8666 30.2388 86.031 30.2634 86.1837 30.3128C86.3364 30.3621 86.4621 30.4326 86.5607 30.5242L86.3987 30.9259C86.3023 30.8484 86.1943 30.7908 86.0745 30.7532C85.957 30.7133 85.8254 30.6933 85.6798 30.6933C85.5271 30.6933 85.4096 30.7204 85.3274 30.7744C85.2475 30.8284 85.2076 30.9024 85.2076 30.9964C85.2076 31.0669 85.2323 31.1244 85.2816 31.1691C85.3309 31.2113 85.4179 31.2454 85.5424 31.2712L85.9511 31.3523C86.1837 31.3993 86.3564 31.478 86.4691 31.5884C86.5819 31.6988 86.6383 31.8456 86.6383 32.0289C86.6383 32.1839 86.596 32.319 86.5114 32.4341C86.4292 32.5492 86.3117 32.6397 86.159 32.7054C86.0087 32.7689 85.8301 32.8006 85.6234 32.8006Z" fill="black"/>
<path d="M88.0001 32.7618V30.2775H88.4829L89.3462 32.2156H89.2335L90.0968 30.2775H90.576V32.7618H90.0757V31.0739H90.2166L89.4449 32.7618H89.1277L88.3525 31.0739H88.5005V32.7618H88.0001Z" fill="black"/>
<path d="M92.0392 32.7618V30.2775H93.7659V30.7039H92.5643V31.2853H93.6813V31.7152H92.5643V32.3354H93.7659V32.7618H92.0392Z" fill="black"/>
<path d="M95.1011 32.7618V30.2775H95.5098L96.8594 31.9936H96.7643V30.2775H97.2752V32.7618H96.8665L95.5204 31.0457H95.612V32.7618H95.1011Z" fill="black"/>
<path d="M99.3051 32.7618V30.7251H98.5157V30.2775H100.644V30.7251H99.8548V32.7618H99.3051Z" fill="black"/>
<path d="M105.044 32.8006C104.779 32.8006 104.551 32.7477 104.361 32.642C104.17 32.5363 104.024 32.3883 103.92 32.198C103.819 32.0054 103.769 31.7787 103.769 31.5179C103.769 31.2572 103.819 31.0316 103.92 30.8413C104.024 30.6511 104.17 30.5031 104.361 30.3973C104.551 30.2916 104.779 30.2388 105.044 30.2388C105.216 30.2388 105.372 30.2634 105.513 30.3128C105.654 30.3598 105.774 30.4291 105.872 30.5207L105.7 30.9541C105.592 30.8695 105.488 30.8096 105.39 30.7744C105.293 30.7392 105.184 30.7215 105.062 30.7215C104.829 30.7215 104.651 30.7908 104.526 30.9294C104.404 31.0657 104.343 31.2618 104.343 31.5179C104.343 31.774 104.404 31.9713 104.526 32.1099C104.651 32.2485 104.829 32.3178 105.062 32.3178C105.184 32.3178 105.293 32.3002 105.39 32.265C105.488 32.2297 105.592 32.1698 105.7 32.0852L105.872 32.5187C105.774 32.6079 105.654 32.6772 105.513 32.7266C105.372 32.7759 105.216 32.8006 105.044 32.8006Z" fill="black"/>
<path d="M107.207 32.7618V30.2775H108.934V30.7039H107.732V31.2853H108.849V31.7152H107.732V32.3354H108.934V32.7618H107.207Z" fill="black"/>
<path d="M110.269 32.7618V30.2775H110.678L112.028 31.9936H111.932V30.2775H112.443V32.7618H112.035L110.689 31.0457H110.78V32.7618H110.269Z" fill="black"/>
<path d="M114.473 32.7618V30.7251H113.684V30.2775H115.812V30.7251H115.023V32.7618H114.473Z" fill="black"/>
<path d="M117.064 32.7618V30.2775H118.791V30.7039H117.589V31.2853H118.706V31.7152H117.589V32.3354H118.791V32.7618H117.064Z" fill="black"/>
<path d="M120.126 32.7618V30.2775H121.253C121.533 30.2775 121.749 30.3445 121.902 30.4784C122.054 30.6099 122.131 30.7944 122.131 31.0316C122.131 31.1867 122.096 31.3206 122.025 31.4333C121.957 31.5438 121.858 31.6295 121.729 31.6906C121.602 31.7493 121.45 31.7787 121.271 31.7787L121.313 31.7012H121.458C121.559 31.7012 121.648 31.7282 121.726 31.7822C121.805 31.8362 121.871 31.9149 121.923 32.0183L122.293 32.7618H121.687L121.303 31.9619C121.275 31.8938 121.23 31.8492 121.169 31.828C121.11 31.8045 121.042 31.7928 120.964 31.7928H120.675V32.7618H120.126ZM120.675 31.3981H121.158C121.302 31.3981 121.411 31.3687 121.486 31.31C121.561 31.2513 121.599 31.1644 121.599 31.0492C121.599 30.9341 121.561 30.8484 121.486 30.792C121.411 30.7333 121.302 30.7039 121.158 30.7039H120.675V31.3981Z" fill="black"/>
<path fill-rule="evenodd" clip-rule="evenodd" d="M125.377 8.99972C125.377 9.89161 124.654 10.6146 123.762 10.6146C122.87 10.6146 122.147 9.89161 122.147 8.99972C122.147 8.10783 122.87 7.38481 123.762 7.38481C124.654 7.38481 125.377 8.10783 125.377 8.99972ZM125.619 8.99972C125.619 10.0254 124.788 10.8569 123.762 10.8569C122.737 10.8569 121.905 10.0254 121.905 8.99972C121.905 7.97405 122.737 7.14258 123.762 7.14258C124.788 7.14258 125.619 7.97405 125.619 8.99972ZM123.197 8.19227V9.72643H123.477V9.10406H123.715C123.773 9.10406 123.822 9.11204 123.862 9.128C123.904 9.14396 123.935 9.17732 123.956 9.2281L124.181 9.72643H124.489L124.266 9.24551C124.235 9.18022 124.196 9.13162 124.149 9.09971C124.128 9.08576 124.106 9.07485 124.082 9.067C124.107 9.0598 124.131 9.05112 124.153 9.04095C124.229 9.00468 124.288 8.95318 124.328 8.88645C124.37 8.81971 124.391 8.7392 124.391 8.6449C124.391 8.50273 124.345 8.39174 124.253 8.31195C124.162 8.23216 124.032 8.19227 123.865 8.19227H123.197ZM123.819 8.89733H123.477V8.41206H123.819C123.917 8.41206 123.992 8.43237 124.042 8.47299C124.094 8.51361 124.12 8.57381 124.12 8.6536C124.12 8.7334 124.094 8.79433 124.042 8.8364C123.992 8.87702 123.917 8.89733 123.819 8.89733Z" fill="black"/>
</svg>
