<svg width="63" height="36" viewBox="0 0 63 36" fill="none" xmlns="http://www.w3.org/2000/svg">
<path d="M6.63012 35.1773H5.31197L4.21023 31.8131L3.08881 35.1773H1.79033L0 29.6489H1.45587L2.47892 33.0525L3.63968 29.6489H4.7611L5.94153 33.0525L6.96458 29.6489H8.40078L6.63012 35.1773Z" fill="black"/>
<path d="M15.464 32.4032C15.4668 32.7836 15.393 33.1607 15.2469 33.512C15.1008 33.8632 14.8855 34.1814 14.6137 34.4477C14.342 34.7139 14.0194 34.9227 13.6652 35.0615C13.3111 35.2004 12.9326 35.2665 12.5523 35.256C12.1564 35.2888 11.7581 35.2392 11.3823 35.1102C11.0066 34.9813 10.6617 34.7758 10.3695 34.5068C10.0772 34.2378 9.84392 33.9111 9.68435 33.5473C9.52477 33.1835 9.44238 32.7906 9.44238 32.3934C9.44238 31.9962 9.52477 31.6033 9.68435 31.2395C9.84392 30.8757 10.0772 30.549 10.3695 30.28C10.6617 30.011 11.0066 29.8055 11.3823 29.6766C11.7581 29.5476 12.1564 29.498 12.5523 29.5308C12.9342 29.5202 13.3144 29.5869 13.6699 29.727C14.0254 29.8671 14.3489 30.0776 14.6209 30.3459C14.8929 30.6143 15.1078 30.9349 15.2527 31.2884C15.3976 31.642 15.4695 32.0212 15.464 32.4032ZM14.0869 32.4032C14.0753 32.1025 13.9755 31.8118 13.8 31.5673C13.6245 31.3229 13.381 31.1354 13.0998 31.0282C12.8186 30.9211 12.5121 30.899 12.2184 30.9647C11.9247 31.0304 11.6568 31.181 11.4481 31.3978C11.2393 31.6146 11.0989 31.888 11.0443 32.1839C10.9897 32.4799 11.0234 32.7853 11.1411 33.0623C11.2587 33.3393 11.4553 33.5756 11.7062 33.7417C11.9571 33.9079 12.2514 33.9966 12.5523 33.9968C12.7589 33.997 12.9634 33.9554 13.1535 33.8746C13.3436 33.7938 13.5155 33.6755 13.6588 33.5267C13.8021 33.3779 13.9139 33.2017 13.9874 33.0086C14.061 32.8156 14.0948 32.6097 14.0869 32.4032Z" fill="black"/>
<path d="M19.9495 33.5444H18.9265V35.138H17.5493V29.6489H19.9495C21.3267 29.6489 22.2317 30.3965 22.2317 31.577C22.2367 31.9095 22.1538 32.2374 21.9915 32.5275C21.8291 32.8177 21.593 33.0599 21.307 33.2296L22.6055 35.138H21.0119L19.9495 33.5444ZM19.9299 32.3246C20.4611 32.3246 20.8742 32.0295 20.8742 31.577C20.8742 31.1245 20.4611 30.849 19.9299 30.849H18.9265V32.3246H19.9299Z" fill="black"/>
<path d="M26.0484 34.0362V35.138H24.6909V29.6489H26.0484V32.1475L28.2322 29.6489H29.8652L27.7601 32.0491L30.0422 35.138H28.3699L26.8354 33.1312L26.0484 34.0362Z" fill="black"/>
<path d="M33.4656 35.138H32.0884V29.6489H33.4656V35.138Z" fill="black"/>
<path d="M41.0591 35.138H40.0164L37.3801 32.1278V35.138H36.0029V29.6489H37.0456L39.7016 32.7377V29.6489H41.0591V35.138Z" fill="black"/>
<path d="M46.2535 30.8687V35.138H44.896V30.8687H43.145V29.6489H48.0045V30.8687H46.2535Z" fill="black"/>
<path d="M55.2837 32.4033C55.2915 32.9808 55.1274 33.5476 54.8122 34.0315C54.497 34.5155 54.0451 34.8948 53.5137 35.1213C52.9824 35.3477 52.3958 35.411 51.8284 35.3031C51.261 35.1953 50.7385 34.9211 50.3273 34.5155C49.9162 34.1099 49.6349 33.5912 49.5193 33.0253C49.4038 32.4594 49.4591 31.872 49.6783 31.3376C49.8974 30.8033 50.2706 30.3462 50.7502 30.0245C51.2299 29.7027 51.7944 29.5309 52.3719 29.5309C52.7532 29.523 53.1321 29.5916 53.4863 29.7327C53.8406 29.8737 54.163 30.0844 54.4344 30.3521C54.7059 30.6199 54.9209 30.9394 55.0668 31.2917C55.2126 31.644 55.2864 32.022 55.2837 32.4033ZM53.9065 32.4033C53.8949 32.1026 53.7952 31.8119 53.6197 31.5674C53.4442 31.3229 53.2007 31.1354 52.9194 31.0283C52.6382 30.9211 52.3317 30.8991 52.038 30.9648C51.7443 31.0305 51.4764 31.1811 51.2677 31.3979C51.0589 31.6146 50.9185 31.888 50.864 32.184C50.8094 32.4799 50.843 32.7854 50.9607 33.0624C51.0784 33.3394 51.2749 33.5756 51.5258 33.7418C51.7767 33.9079 52.071 33.9966 52.3719 33.9969C52.5785 33.997 52.783 33.9555 52.9731 33.8747C53.1633 33.7939 53.3352 33.6756 53.4784 33.5267C53.6217 33.3779 53.7335 33.2017 53.8071 33.0087C53.8806 32.8156 53.9144 32.6097 53.9065 32.4033Z" fill="black"/>
<path d="M62.504 35.138H61.4612L58.8249 32.1278V35.138H57.4478V29.6489H58.5101L61.1465 32.7377V29.6489H62.504V35.138Z" fill="black"/>
<path d="M38.6442 9.32572C38.2314 10.4328 37.7523 11.5143 37.2095 12.5645H43.2243V22.1709C42.2305 22.326 41.2149 22.2699 40.2445 22.0062C37.3751 21.2377 35.0023 18.8223 33.2365 14.7053L34.1194 12.8938C35.7196 9.76487 36.8233 7.45934 36.8233 5.92231C36.8995 5.17392 36.8172 4.41793 36.5816 3.70316C36.3459 2.98839 35.9622 2.33072 35.4552 1.77263C34.9482 1.21453 34.3292 0.768419 33.6381 0.463089C32.947 0.157758 32.1993 0 31.4431 0C30.6869 0 29.9392 0.157758 29.2481 0.463089C28.557 0.768419 27.938 1.21453 27.431 1.77263C26.924 2.33072 26.5403 2.98839 26.3046 3.70316C26.069 4.41793 25.9867 5.17392 26.0629 5.92231C26.0629 7.45934 27.2217 9.76487 28.7668 12.8938L29.7049 14.7053C27.8839 18.8223 25.5663 21.2377 22.6417 22.0062C21.6713 22.2699 20.6557 22.326 19.6619 22.1709V12.5645H25.7319C25.1249 11.3568 24.6282 10.2589 24.242 9.32572H16.4062V24.5862L17.3995 24.9704C18.479 25.3541 19.6194 25.5401 20.7656 25.5194C22.2056 25.5359 23.6335 25.2555 24.9593 24.696C27.4977 23.5981 29.7049 21.5121 31.4707 18.493C33.1813 21.5121 35.3885 23.5981 37.9821 24.696C39.2874 25.259 40.6981 25.5396 42.1206 25.5194C43.2668 25.5401 44.4072 25.3541 45.4867 24.9704L46.5351 24.5862V9.32572H38.6442ZM31.4707 10.9725C30.5878 9.27083 29.3738 6.74572 29.3738 5.92231C29.3246 5.62383 29.3413 5.31828 29.4227 5.02684C29.5041 4.73541 29.6482 4.46506 29.845 4.23454C30.0418 4.00402 30.2867 3.81885 30.5627 3.69185C30.8386 3.56486 31.1391 3.49908 31.4431 3.49908C31.7472 3.49908 32.0476 3.56486 32.3235 3.69185C32.5995 3.81885 32.8443 4.00402 33.0412 4.23454C33.238 4.46506 33.3821 4.73541 33.4635 5.02684C33.5449 5.31828 33.5616 5.62383 33.5124 5.92231C33.5124 6.74572 32.2984 9.27083 31.4707 10.9725Z" fill="black"/>
</svg>
