<svg width="200" height="50" viewBox="0 0 200 50" fill="none" xmlns="http://www.w3.org/2000/svg">
<path d="M33.481 22.0137L27.3438 28.1616L32.5901 33.4171C34.2848 35.1148 37.0326 35.1148 38.7273 33.4171C40.422 31.7194 40.422 28.9669 38.7273 27.2692L33.481 22.0137Z" fill="#2719CC"/>
<path d="M38.8264 0H21.2211C20.5043 0 20.1563 0.877879 20.6779 1.37046L26.156 6.54456L2.7833 29.958C-0.927766 33.6755 -0.927768 39.7029 2.7833 43.4204L6.56813 47.2118C10.2792 50.9294 16.296 50.9294 20.0071 47.2118L28.9276 38.2758L22.9884 32.3262L14.2775 41.0522C13.1688 42.1628 11.3079 41.7794 10.516 41.4489L8.53623 39.4657C7.11081 38.0378 8.20627 36.2265 8.93218 35.4993L32.2932 12.0975L38.2664 18.0811C38.7653 18.5809 39.6183 18.227 39.6183 17.5202V0.79328C39.6183 0.355164 39.2637 0 38.8264 0Z" fill="#2719CC"/>
<path d="M51.0742 28.1619V12.0078H53.027V26.4266H60.523V28.1619H51.0742Z" fill="black"/>
<path d="M68.3655 28.4143C67.2002 28.4143 66.1949 28.1566 65.3498 27.6413C64.5099 27.1207 63.8616 26.395 63.4049 25.4643C62.9535 24.5283 62.7277 23.4398 62.7277 22.1988C62.7277 20.9578 62.9535 19.864 63.4049 18.9175C63.8616 17.9657 64.4968 17.2242 65.3104 16.6931C66.1293 16.1568 67.0847 15.8886 68.1765 15.8886C68.8065 15.8886 69.4285 15.9937 70.0427 16.2041C70.6568 16.4144 71.2159 16.7562 71.7198 17.2295C72.2238 17.6975 72.6253 18.318 72.9246 19.091C73.2238 19.864 73.3734 20.8158 73.3734 21.9463V22.7351H64.0506V21.126H71.4836C71.4836 20.4424 71.3471 19.8324 71.0742 19.2961C70.8065 18.7597 70.4232 18.3364 69.9246 18.0261C69.4311 17.7159 68.8484 17.5608 68.1765 17.5608C67.4364 17.5608 66.796 17.7448 66.2553 18.1129C65.7198 18.4757 65.3078 18.949 65.0191 19.5327C64.7304 20.1164 64.586 20.7422 64.586 21.41V22.4827C64.586 23.3977 64.7435 24.1733 65.0584 24.8096C65.3786 25.4406 65.8222 25.9218 66.3891 26.253C66.9561 26.5791 67.6149 26.7421 68.3655 26.7421C68.8537 26.7421 69.2946 26.6737 69.6883 26.537C70.0873 26.395 70.4311 26.1847 70.7198 25.906C71.0086 25.622 71.2316 25.2697 71.3891 24.849L73.1844 25.3538C72.9954 25.9638 72.6778 26.5002 72.2316 26.9629C71.7854 27.4204 71.2343 27.778 70.5781 28.0357C69.9219 28.2881 69.1844 28.4143 68.3655 28.4143Z" fill="black"/>
<path d="M81.46 16.0463V17.6239H75.1923V16.0463H81.46ZM77.019 13.1436H78.8773V24.6913C78.8773 25.2171 78.9534 25.6115 79.1056 25.8744C79.2631 26.1321 79.4626 26.3056 79.7041 26.395C79.9508 26.4792 80.2106 26.5212 80.4836 26.5212C80.6883 26.5212 80.8563 26.5107 80.9875 26.4897C81.1188 26.4634 81.2237 26.4424 81.3025 26.4266L81.6804 28.0988C81.5545 28.1461 81.3786 28.1934 81.1529 28.2408C80.9272 28.2933 80.6411 28.3196 80.2946 28.3196C79.7697 28.3196 79.2553 28.2066 78.7513 27.9805C78.2526 27.7543 77.8379 27.4099 77.5072 26.9472C77.1818 26.4844 77.019 25.9007 77.019 25.1961V13.1436Z" fill="black"/>
<path d="M86.521 12.0078V13.4276C86.521 13.8588 86.4422 14.3189 86.2848 14.808C86.1325 15.2917 85.9068 15.7624 85.6076 16.2199C85.3136 16.6721 84.9567 17.0665 84.5367 17.403L83.5289 16.5827C83.8596 16.1094 84.1457 15.6178 84.3871 15.1077C84.6338 14.5924 84.7572 14.0428 84.7572 13.4592V12.0078H86.521Z" fill="black"/>
<path d="M95.832 18.7597L94.1627 19.233C94.0577 18.9543 93.9029 18.6835 93.6981 18.4205C93.4987 18.1524 93.2257 17.9315 92.8792 17.758C92.5328 17.5844 92.0892 17.4977 91.5485 17.4977C90.8084 17.4977 90.1916 17.6686 89.6981 18.0104C89.2099 18.3469 88.9659 18.7755 88.9659 19.2961C88.9659 19.7588 89.1338 20.1243 89.4698 20.3925C89.8057 20.6606 90.3307 20.8841 91.0446 21.0629L92.8399 21.5046C93.9212 21.7676 94.727 22.1698 95.2572 22.7115C95.7874 23.2478 96.0525 23.9393 96.0525 24.7859C96.0525 25.4801 95.853 26.1006 95.454 26.6474C95.0603 27.1943 94.5091 27.6255 93.8005 27.941C93.0918 28.2565 92.2677 28.4143 91.3281 28.4143C90.0945 28.4143 89.0735 28.1461 88.2651 27.6097C87.4567 27.0734 86.9449 26.2899 86.7296 25.2592L88.4934 24.8175C88.6614 25.4695 88.979 25.9586 89.4462 26.2846C89.9186 26.6106 90.5354 26.7736 91.2966 26.7736C92.1627 26.7736 92.8504 26.5896 93.3595 26.2215C93.874 25.8481 94.1312 25.4012 94.1312 24.8806C94.1312 24.4599 93.9842 24.1076 93.6903 23.8236C93.3963 23.5344 92.9448 23.3188 92.3359 23.1768L90.3202 22.7036C89.2126 22.4406 88.3989 22.0331 87.8792 21.481C87.3648 20.9236 87.1076 20.2268 87.1076 19.3907C87.1076 18.7071 87.2992 18.1024 87.6824 17.5765C88.0708 17.0507 88.5984 16.6379 89.2651 16.3382C89.937 16.0384 90.6981 15.8886 91.5485 15.8886C92.7454 15.8886 93.685 16.1515 94.3674 16.6773C95.0551 17.2032 95.5433 17.8973 95.832 18.7597Z" fill="black"/>
<path d="M105.338 28.1619V12.0078H115.007V13.7431H107.291V19.2014H114.283V20.9367H107.291V28.1619H105.338Z" fill="black"/>
<path d="M124.964 23.2084V16.0463H126.822V28.1619H124.964V26.1111H124.838C124.554 26.7263 124.113 27.2495 123.515 27.6807C122.917 28.1067 122.161 28.3196 121.247 28.3196C120.491 28.3196 119.819 28.154 119.232 27.8227C118.644 27.4862 118.182 26.9813 117.846 26.3083C117.51 25.6299 117.342 24.7754 117.342 23.7448V16.0463H119.2V23.6185C119.2 24.502 119.447 25.2066 119.94 25.7325C120.439 26.2583 121.074 26.5212 121.846 26.5212C122.308 26.5212 122.777 26.4029 123.255 26.1663C123.738 25.9297 124.142 25.5668 124.468 25.0778C124.798 24.5887 124.964 23.9656 124.964 23.2084Z" fill="black"/>
<path d="M135.485 16.0463V17.6239H129.218V16.0463H135.485ZM131.044 13.1436H132.903V24.6913C132.903 25.2171 132.979 25.6115 133.131 25.8744C133.289 26.1321 133.488 26.3056 133.73 26.395C133.976 26.4792 134.236 26.5212 134.509 26.5212C134.714 26.5212 134.882 26.5107 135.013 26.4897C135.144 26.4634 135.249 26.4424 135.328 26.4266L135.706 28.0988C135.58 28.1461 135.404 28.1934 135.178 28.2408C134.953 28.2933 134.667 28.3196 134.32 28.3196C133.795 28.3196 133.281 28.2066 132.777 27.9805C132.278 27.7543 131.863 27.4099 131.533 26.9472C131.207 26.4844 131.044 25.9007 131.044 25.1961V13.1436Z" fill="black"/>
<path d="M145.903 23.2084V16.0463H147.761V28.1619H145.903V26.1111H145.777C145.493 26.7263 145.052 27.2495 144.454 27.6807C143.855 28.1067 143.1 28.3196 142.186 28.3196C141.43 28.3196 140.758 28.154 140.17 27.8227C139.583 27.4862 139.121 26.9813 138.785 26.3083C138.449 25.6299 138.281 24.7754 138.281 23.7448V16.0463H140.139V23.6185C140.139 24.502 140.386 25.2066 140.879 25.7325C141.378 26.2583 142.013 26.5212 142.785 26.5212C143.247 26.5212 143.716 26.4029 144.194 26.1663C144.677 25.9297 145.081 25.5668 145.407 25.0778C145.737 24.5887 145.903 23.9656 145.903 23.2084Z" fill="black"/>
<path d="M151.165 28.1619V16.0463H152.96V17.8763H153.086C153.306 17.2768 153.705 16.7904 154.283 16.4171C154.86 16.0437 155.511 15.857 156.235 15.857C156.372 15.857 156.542 15.8597 156.747 15.8649C156.952 15.8702 157.107 15.8781 157.212 15.8886V17.7816C157.149 17.7659 157.004 17.7422 156.779 17.7106C156.558 17.6738 156.325 17.6554 156.078 17.6554C155.49 17.6554 154.965 17.779 154.503 18.0261C154.046 18.268 153.684 18.6046 153.416 19.0358C153.154 19.4617 153.023 19.9481 153.023 20.495V28.1619H151.165Z" fill="black"/>
<path d="M164.117 28.4143C162.952 28.4143 161.947 28.1566 161.101 27.6413C160.262 27.1207 159.613 26.395 159.157 25.4643C158.705 24.5283 158.479 23.4398 158.479 22.1988C158.479 20.9578 158.705 19.864 159.157 18.9175C159.613 17.9657 160.248 17.2242 161.062 16.6931C161.881 16.1568 162.836 15.8886 163.928 15.8886C164.558 15.8886 165.18 15.9937 165.794 16.2041C166.409 16.4144 166.968 16.7562 167.472 17.2295C167.975 17.6975 168.377 18.318 168.676 19.091C168.975 19.864 169.125 20.8158 169.125 21.9463V22.7351H159.802V21.126H167.235C167.235 20.4424 167.099 19.8324 166.826 19.2961C166.558 18.7597 166.175 18.3364 165.676 18.0261C165.183 17.7159 164.6 17.5608 163.928 17.5608C163.188 17.5608 162.548 17.7448 162.007 18.1129C161.472 18.4757 161.06 18.949 160.771 19.5327C160.482 20.1164 160.338 20.7422 160.338 21.41V22.4827C160.338 23.3977 160.495 24.1733 160.81 24.8096C161.13 25.4406 161.574 25.9218 162.141 26.253C162.708 26.5791 163.367 26.7421 164.117 26.7421C164.605 26.7421 165.046 26.6737 165.44 26.537C165.839 26.395 166.183 26.1847 166.472 25.906C166.76 25.622 166.983 25.2697 167.141 24.849L168.936 25.3538C168.747 25.9638 168.43 26.5002 167.983 26.9629C167.537 27.4204 166.986 27.778 166.33 28.0357C165.674 28.2881 164.936 28.4143 164.117 28.4143Z" fill="black"/>
<path d="M181.644 12.0078H185.054V22.4985C185.054 23.6764 184.773 24.7071 184.211 25.5905C183.655 26.4739 182.875 27.1628 181.873 27.6571C180.87 28.1461 179.702 28.3906 178.369 28.3906C177.03 28.3906 175.859 28.1461 174.857 27.6571C173.854 27.1628 173.075 26.4739 172.518 25.5905C171.962 24.7071 171.684 23.6764 171.684 22.4985V12.0078H175.093V22.2066C175.093 22.8219 175.227 23.3688 175.495 23.8473C175.768 24.3258 176.151 24.7018 176.644 24.9752C177.138 25.2487 177.712 25.3854 178.369 25.3854C179.03 25.3854 179.605 25.2487 180.093 24.9752C180.586 24.7018 180.967 24.3258 181.235 23.8473C181.508 23.3688 181.644 22.8219 181.644 22.2066V12.0078Z" fill="#2719CC"/>
<path d="M187.859 28.1619V12.0078H194.221C195.444 12.0078 196.486 12.2418 197.347 12.7098C198.208 13.1726 198.864 13.8167 199.315 14.6423C199.772 15.4626 200 16.4092 200 17.4819C200 18.5546 199.769 19.5012 199.308 20.3215C198.846 21.1418 198.176 21.7807 197.3 22.2382C196.428 22.6957 195.373 22.9244 194.134 22.9244H190.079V20.1874H193.583C194.239 20.1874 194.78 20.0743 195.205 19.8482C195.636 19.6168 195.956 19.2987 196.166 18.8938C196.381 18.4836 196.489 18.013 196.489 17.4819C196.489 16.9455 196.381 16.4775 196.166 16.0779C195.956 15.673 195.636 15.3601 195.205 15.1392C194.775 14.9131 194.229 14.8001 193.567 14.8001H191.268V28.1619H187.859Z" fill="#2719CC"/>
<path d="M73.3193 44.8206V37.8974H74.1562V40.9804H77.8413V37.8974H78.6782V44.8206H77.8413V41.7241H74.1562V44.8206H73.3193Z" fill="black"/>
<path d="M86.3784 44.9287C85.8789 44.9287 85.4481 44.8183 85.0859 44.5975C84.7259 44.3743 84.4481 44.0633 84.2524 43.6644C84.0589 43.2633 83.9622 42.7968 83.9622 42.2649C83.9622 41.7331 84.0589 41.2643 84.2524 40.8587C84.4481 40.4508 84.7203 40.133 85.069 39.9054C85.42 39.6755 85.8294 39.5606 86.2974 39.5606C86.5673 39.5606 86.8339 39.6056 87.0971 39.6958C87.3604 39.7859 87.5999 39.9324 87.8159 40.1352C88.0319 40.3358 88.204 40.6018 88.3322 40.933C88.4605 41.2643 88.5246 41.6722 88.5246 42.1568V42.4948H84.5291V41.8052H87.7147C87.7147 41.5122 87.6562 41.2508 87.5392 41.0209C87.4245 40.7911 87.2602 40.6096 87.0465 40.4767C86.835 40.3437 86.5853 40.2772 86.2974 40.2772C85.9802 40.2772 85.7057 40.3561 85.474 40.5139C85.2445 40.6694 85.0679 40.8722 84.9442 41.1223C84.8204 41.3725 84.7586 41.6407 84.7586 41.9269V42.3866C84.7586 42.7788 84.8261 43.1112 84.961 43.3839C85.0983 43.6543 85.2884 43.8605 85.5313 44.0025C85.7743 44.1422 86.0566 44.2121 86.3784 44.2121C86.5876 44.2121 86.7766 44.1828 86.9453 44.1242C87.1163 44.0633 87.2636 43.9732 87.3874 43.8538C87.5111 43.7321 87.6067 43.5811 87.6742 43.4008L88.4436 43.6171C88.3626 43.8785 88.2265 44.1084 88.0353 44.3067C87.844 44.5028 87.6078 44.656 87.3266 44.7665C87.0454 44.8746 86.7293 44.9287 86.3784 44.9287Z" fill="black"/>
<path d="M94.4919 37.8974V44.8206H93.6955V37.8974H94.4919Z" fill="black"/>
<path d="M100.706 37.8974V44.8206H99.9101V37.8974H100.706Z" fill="black"/>
<path d="M108.23 44.9287C107.762 44.9287 107.352 44.8172 106.999 44.5941C106.648 44.371 106.373 44.0588 106.175 43.6577C105.98 43.2565 105.882 42.7878 105.882 42.2514C105.882 41.7105 105.98 41.2384 106.175 40.835C106.373 40.4316 106.648 40.1183 106.999 39.8952C107.352 39.6721 107.762 39.5606 108.23 39.5606C108.698 39.5606 109.108 39.6721 109.459 39.8952C109.812 40.1183 110.086 40.4316 110.282 40.835C110.48 41.2384 110.579 41.7105 110.579 42.2514C110.579 42.7878 110.48 43.2565 110.282 43.6577C110.086 44.0588 109.812 44.371 109.459 44.5941C109.108 44.8172 108.698 44.9287 108.23 44.9287ZM108.23 44.2121C108.586 44.2121 108.878 44.1208 109.108 43.9383C109.337 43.7557 109.507 43.5157 109.617 43.2182C109.728 42.9207 109.783 42.5985 109.783 42.2514C109.783 41.9044 109.728 41.581 109.617 41.2812C109.507 40.9815 109.337 40.7392 109.108 40.5544C108.878 40.3696 108.586 40.2772 108.23 40.2772C107.875 40.2772 107.582 40.3696 107.353 40.5544C107.124 40.7392 106.954 40.9815 106.843 41.2812C106.733 41.581 106.678 41.9044 106.678 42.2514C106.678 42.5985 106.733 42.9207 106.843 43.2182C106.954 43.5157 107.124 43.7557 107.353 43.9383C107.582 44.1208 107.875 44.2121 108.23 44.2121Z" fill="black"/>
<path d="M121.424 40.0609H120.587C120.537 39.8197 120.451 39.6079 120.327 39.4254C120.205 39.2428 120.057 39.0896 119.881 38.9656C119.708 38.8394 119.516 38.7448 119.304 38.6817C119.093 38.6186 118.872 38.587 118.643 38.587C118.224 38.587 117.845 38.6929 117.506 38.9048C117.168 39.1166 116.899 39.4287 116.699 39.8411C116.501 40.2536 116.402 40.7595 116.402 41.359C116.402 41.9584 116.501 42.4644 116.699 42.8768C116.899 43.2892 117.168 43.6013 117.506 43.8132C117.845 44.025 118.224 44.1309 118.643 44.1309C118.872 44.1309 119.093 44.0994 119.304 44.0363C119.516 43.9732 119.708 43.8797 119.881 43.7557C120.057 43.6295 120.205 43.4751 120.327 43.2926C120.451 43.1078 120.537 42.896 120.587 42.6571H121.424C121.361 43.0109 121.246 43.3275 121.079 43.607C120.913 43.8864 120.706 44.1242 120.458 44.3203C120.211 44.5141 119.933 44.6617 119.625 44.7631C119.319 44.8645 118.992 44.9152 118.643 44.9152C118.053 44.9152 117.529 44.771 117.07 44.4825C116.611 44.194 116.25 43.7839 115.987 43.252C115.724 42.7202 115.592 42.0892 115.592 41.359C115.592 40.6288 115.724 39.9978 115.987 39.4659C116.25 38.9341 116.611 38.5239 117.07 38.2354C117.529 37.947 118.053 37.8027 118.643 37.8027C118.992 37.8027 119.319 37.8534 119.625 37.9549C119.933 38.0563 120.211 38.205 120.458 38.4011C120.706 38.5949 120.913 38.8315 121.079 39.111C121.246 39.3882 121.361 39.7048 121.424 40.0609Z" fill="black"/>
<path d="M128.153 44.9423C127.824 44.9423 127.526 44.8803 127.258 44.7563C126.991 44.6301 126.778 44.4487 126.621 44.2121C126.463 43.9732 126.384 43.6847 126.384 43.3467C126.384 43.0492 126.443 42.8081 126.56 42.6233C126.677 42.4362 126.833 42.2897 127.029 42.1838C127.225 42.0779 127.441 41.999 127.677 41.9472C127.915 41.8931 128.155 41.8503 128.396 41.8187C128.711 41.7782 128.966 41.7477 129.162 41.7274C129.36 41.7049 129.504 41.6677 129.594 41.6159C129.686 41.5641 129.732 41.4739 129.732 41.3455V41.3184C129.732 40.9849 129.641 40.7257 129.459 40.5409C129.279 40.3561 129.005 40.2637 128.639 40.2637C128.258 40.2637 127.96 40.3471 127.744 40.5139C127.528 40.6806 127.377 40.8587 127.289 41.048L126.533 40.7775C126.668 40.462 126.848 40.2164 127.073 40.0406C127.3 39.8626 127.548 39.7386 127.815 39.6687C128.085 39.5966 128.351 39.5606 128.612 39.5606C128.778 39.5606 128.969 39.5809 129.185 39.6214C129.404 39.6597 129.614 39.7397 129.816 39.8614C130.021 39.9831 130.191 40.1668 130.326 40.4124C130.461 40.6581 130.528 40.9871 130.528 41.3995V44.8206H129.732V44.1174H129.692C129.638 44.2301 129.548 44.3507 129.422 44.4791C129.296 44.6076 129.128 44.7169 128.919 44.807C128.71 44.8972 128.454 44.9423 128.153 44.9423ZM128.274 44.2256C128.589 44.2256 128.855 44.1636 129.071 44.0397C129.289 43.9157 129.453 43.7557 129.563 43.5597C129.676 43.3636 129.732 43.1574 129.732 42.941V42.2108C129.698 42.2514 129.624 42.2886 129.509 42.3224C129.397 42.354 129.266 42.3821 129.118 42.4069C128.972 42.4295 128.829 42.4497 128.689 42.4678C128.552 42.4835 128.441 42.4971 128.355 42.5083C128.148 42.5354 127.955 42.5793 127.775 42.6402C127.597 42.6988 127.453 42.7878 127.343 42.9072C127.235 43.0244 127.181 43.1844 127.181 43.3872C127.181 43.6644 127.283 43.874 127.488 44.016C127.695 44.1557 127.957 44.2256 128.274 44.2256Z" fill="black"/>
<path d="M135.941 44.8206V39.6282H136.711V40.4124H136.765C136.859 40.1555 137.03 39.9471 137.278 39.7871C137.525 39.6271 137.804 39.547 138.115 39.547C138.173 39.547 138.246 39.5482 138.334 39.5504C138.422 39.5527 138.488 39.5561 138.533 39.5606V40.3719C138.506 40.3651 138.444 40.355 138.348 40.3415C138.253 40.3257 138.153 40.3178 138.047 40.3178C137.795 40.3178 137.57 40.3708 137.372 40.4767C137.177 40.5803 137.021 40.7246 136.907 40.9094C136.794 41.0919 136.738 41.3004 136.738 41.5348V44.8206H135.941Z" fill="black"/>
<path d="M145.452 44.9287C144.953 44.9287 144.522 44.8183 144.16 44.5975C143.8 44.3743 143.522 44.0633 143.326 43.6644C143.133 43.2633 143.036 42.7968 143.036 42.2649C143.036 41.7331 143.133 41.2643 143.326 40.8587C143.522 40.4508 143.794 40.133 144.143 39.9054C144.494 39.6755 144.903 39.5606 145.371 39.5606C145.641 39.5606 145.908 39.6056 146.171 39.6958C146.434 39.7859 146.674 39.9324 146.89 40.1352C147.106 40.3358 147.278 40.6018 147.406 40.933C147.534 41.2643 147.598 41.6722 147.598 42.1568V42.4948H143.603V41.8052H146.788C146.788 41.5122 146.73 41.2508 146.613 41.0209C146.498 40.7911 146.334 40.6096 146.12 40.4767C145.909 40.3437 145.659 40.2772 145.371 40.2772C145.054 40.2772 144.779 40.3561 144.548 40.5139C144.318 40.6694 144.142 40.8722 144.018 41.1223C143.894 41.3725 143.832 41.6407 143.832 41.9269V42.3866C143.832 42.7788 143.9 43.1112 144.035 43.3839C144.172 43.6543 144.362 43.8605 144.605 44.0025C144.848 44.1422 145.13 44.2121 145.452 44.2121C145.661 44.2121 145.85 44.1828 146.019 44.1242C146.19 44.0633 146.337 43.9732 146.461 43.8538C146.585 43.7321 146.681 43.5811 146.748 43.4008L147.517 43.6171C147.436 43.8785 147.3 44.1084 147.109 44.3067C146.918 44.5028 146.682 44.656 146.4 44.7665C146.119 44.8746 145.803 44.9287 145.452 44.9287Z" fill="black"/>
<path d="M154.943 44.9287C154.443 44.9287 154.012 44.8183 153.65 44.5975C153.29 44.3743 153.012 44.0633 152.817 43.6644C152.623 43.2633 152.526 42.7968 152.526 42.2649C152.526 41.7331 152.623 41.2643 152.817 40.8587C153.012 40.4508 153.285 40.133 153.633 39.9054C153.984 39.6755 154.394 39.5606 154.862 39.5606C155.132 39.5606 155.398 39.6056 155.661 39.6958C155.925 39.7859 156.164 39.9324 156.38 40.1352C156.596 40.3358 156.768 40.6018 156.896 40.933C157.025 41.2643 157.089 41.6722 157.089 42.1568V42.4948H153.093V41.8052H156.279C156.279 41.5122 156.22 41.2508 156.103 41.0209C155.989 40.7911 155.824 40.6096 155.611 40.4767C155.399 40.3437 155.15 40.2772 154.862 40.2772C154.544 40.2772 154.27 40.3561 154.038 40.5139C153.809 40.6694 153.632 40.8722 153.508 41.1223C153.385 41.3725 153.323 41.6407 153.323 41.9269V42.3866C153.323 42.7788 153.39 43.1112 153.525 43.3839C153.662 43.6543 153.853 43.8605 154.096 44.0025C154.339 44.1422 154.621 44.2121 154.943 44.2121C155.152 44.2121 155.341 44.1828 155.509 44.1242C155.68 44.0633 155.828 43.9732 155.952 43.8538C156.075 43.7321 156.171 43.5811 156.238 43.4008L157.008 43.6171C156.927 43.8785 156.791 44.1084 156.599 44.3067C156.408 44.5028 156.172 44.656 155.891 44.7665C155.61 44.8746 155.294 44.9287 154.943 44.9287Z" fill="black"/>
<path d="M162.26 44.8206V39.6282H163.029V40.4124H163.083C163.178 40.1555 163.349 39.9471 163.596 39.7871C163.844 39.6271 164.123 39.547 164.433 39.547C164.491 39.547 164.565 39.5482 164.652 39.5504C164.74 39.5527 164.806 39.5561 164.851 39.5606V40.3719C164.824 40.3651 164.763 40.355 164.666 40.3415C164.571 40.3257 164.471 40.3178 164.365 40.3178C164.114 40.3178 163.889 40.3708 163.691 40.4767C163.495 40.5803 163.34 40.7246 163.225 40.9094C163.112 41.0919 163.056 41.3004 163.056 41.5348V44.8206H162.26Z" fill="black"/>
</svg>
