<svg width="20" height="17" viewBox="0 0 20 17" fill="none" xmlns="http://www.w3.org/2000/svg">
<path fill-rule="evenodd" clip-rule="evenodd" d="M20 1.97304C19.2651 2.3077 18.4739 2.53401 17.644 2.63513C18.4915 2.11509 19.1419 1.29048 19.4483 0.308177C18.6547 0.789698 17.7778 1.14 16.841 1.32779C16.0944 0.510411 15.0273 0 13.8463 0C11.5819 0 9.74467 1.88395 9.74467 4.20729C9.74467 4.53714 9.77989 4.85735 9.85032 5.16553C6.4401 4.98977 3.41727 3.31648 1.39226 0.768026C1.03891 1.3916 0.836995 2.11509 0.836995 2.88552C0.836995 4.34453 1.56131 5.6326 2.66244 6.38739C1.99096 6.36692 1.35704 6.17552 0.802956 5.86253V5.91429C0.802956 7.95353 2.21752 9.65451 4.09579 10.0397C3.75183 10.1384 3.38909 10.1878 3.01462 10.1878C2.75048 10.1878 2.49222 10.1625 2.24218 10.1132C2.76457 11.784 4.27892 13.0011 6.07501 13.0336C4.671 14.1628 2.90074 14.8357 0.979042 14.8357C0.647998 14.8357 0.320479 14.8164 0 14.7779C1.81605 15.9697 3.9737 16.6667 6.28984 16.6667C13.8381 16.6667 17.9644 10.2564 17.9644 4.69604C17.9644 4.51306 17.9609 4.33008 17.9539 4.15071C18.7556 3.55724 19.4518 2.8169 20 1.97304Z" fill="white"/>
</svg>
