<svg width="20" height="15" viewBox="0 0 20 15" fill="none" xmlns="http://www.w3.org/2000/svg">
<path fill-rule="evenodd" clip-rule="evenodd" d="M7.935 9.6958L7.93437 4.03656L13.3381 6.87594L7.935 9.6958ZM19.8 3.0559C19.8 3.0559 19.6044 1.668 19.005 1.05682C18.2444 0.254296 17.3919 0.250512 17.0012 0.203934C14.2025 -2.9554e-06 10.0044 0 10.0044 0H9.99563C9.99563 0 5.7975 -2.9554e-06 2.99875 0.203934C2.6075 0.250512 1.75563 0.254296 0.994377 1.05682C0.395002 1.668 0.199998 3.0559 0.199998 3.0559C0.199998 3.0559 0 4.68614 0 6.31574V7.84401C0 9.47424 0.199998 11.1038 0.199998 11.1038C0.199998 11.1038 0.395002 12.4917 0.994377 13.1029C1.75563 13.9055 2.755 13.8803 3.2 13.964C4.8 14.1188 10 14.1667 10 14.1667C10 14.1667 14.2025 14.1604 17.0012 13.9564C17.3919 13.9092 18.2444 13.9055 19.005 13.1029C19.6044 12.4917 19.8 11.1038 19.8 11.1038C19.8 11.1038 20 9.47424 20 7.84401V6.31574C20 4.68614 19.8 3.0559 19.8 3.0559Z" fill="white"/>
</svg>
