<svg width="56" height="35" viewBox="0 0 56 35" fill="none" xmlns="http://www.w3.org/2000/svg">
<path fill-rule="evenodd" clip-rule="evenodd" d="M0 5.6908V30.019C0 33.8887 3.41448 34.951 5.12172 34.9984C9.2191 34.9984 10.4331 31.6788 10.528 30.019V19.7755H6.40215V31.8685C5.37781 34.031 4.2681 32.7695 3.84129 31.8685V17.7838H10.528V5.6908C10.528 4.12583 8.96301 0 5.12172 0C2.04869 0 0.42681 3.79387 0 5.6908ZM5.26399 1.99178C4.35346 1.99178 4.03099 2.94025 3.98356 3.41448V16.0765H6.54442L6.40215 3.27221C6.40215 2.8454 6.17452 1.99178 5.26399 1.99178Z" fill="black"/>
<path d="M16.7879 34.9984H12.8043V15.0806C12.8043 10.6418 16.3136 9.3424 18.0683 9.24755C19.2065 9.24755 20.6292 10.2909 21.1982 10.8125C22.3364 9.67437 23.854 9.29498 24.4705 9.24755C28.2264 9.24755 29.4499 13.1363 29.5922 15.0806V34.9984H25.6086V12.5198C24.8119 10.2434 23.7591 11.5713 23.3323 12.5198V34.9984H19.0642V12.5198C18.1537 10.2434 17.1673 11.5713 16.7879 12.5198V34.9984Z" fill="black"/>
<path d="M44.6728 34.9984V0.85362H48.9409V20.7714H50.2213C51.018 20.7714 51.2172 20.0127 51.2172 19.6333V9.81664H55.2008V21.056C55.2008 21.8527 54.3472 22.3364 53.9204 22.4787C54.6033 22.4787 55.0585 23.4271 55.2008 23.9014V34.9984H51.2172V24.4705C51.2172 23.7876 50.6481 23.6168 50.3636 23.6168H48.9409V34.9984H44.6728Z" fill="black"/>
<path fill-rule="evenodd" clip-rule="evenodd" d="M42.3965 15.3652V20.4869H35.9943V31.8685C36.3737 32.7221 37.3886 33.9172 38.4129 31.8685V22.7632H42.3965V29.5922C42.4439 31.3943 41.486 34.9984 37.2748 34.9984C35.4727 35.0459 31.8685 34.031 31.8685 29.5922V15.3652C31.9633 13.2785 33.1205 9.10528 36.9902 9.10528C40.86 9.10528 42.2068 13.2785 42.3965 15.3652ZM35.9943 12.662C36.0418 12.1878 36.3358 11.2393 37.1325 11.2393C38.1284 11.2393 38.4129 12.3775 38.4129 12.662V18.9219H35.9943V12.662Z" fill="black"/>
</svg>
