<svg width="55" height="35" viewBox="0 0 55 35" fill="none" xmlns="http://www.w3.org/2000/svg">
<path fill-rule="evenodd" clip-rule="evenodd" d="M52.2352 20.9208H52.4852V20.2127H52.7351L53.1933 20.9208H53.4432L52.985 20.2127C53.2766 20.171 53.4016 20.0461 53.4016 19.7545C53.4016 19.4629 53.235 19.2963 52.8601 19.2963H52.2352V20.9208ZM52.5268 19.5046H52.8601C53.11 19.5046 53.1933 19.5879 53.1933 19.7545C53.1933 19.8794 53.1517 19.9628 53.0683 19.9628C53.0267 20.0044 52.9017 20.0044 52.7768 20.0044H52.5268V19.5046ZM51.4021 20.0877C51.4021 20.5043 51.5271 20.8375 51.777 21.0874C52.027 21.3374 52.3602 21.4623 52.7351 21.4623C53.11 21.4623 53.4432 21.3374 53.7348 21.0874C53.9847 20.8375 54.1097 20.5043 54.1097 20.0877C54.1097 19.7128 53.9847 19.3796 53.7348 19.088C53.4849 18.8381 53.1516 18.7131 52.7768 18.7131C52.4019 18.7131 52.0686 18.8381 51.8187 19.088C51.5688 19.3796 51.4021 19.7128 51.4021 20.0877ZM51.6521 20.0877C51.6521 19.7545 51.777 19.4629 51.9853 19.2546C52.1936 19.0463 52.4852 18.9214 52.7768 18.9214C53.0683 18.9214 53.3599 19.0463 53.5682 19.2546C53.7765 19.4629 53.9014 19.7545 53.9014 20.0877C53.9014 20.421 53.7765 20.7125 53.6099 20.9208C53.4016 21.1291 53.11 21.2541 52.7768 21.2541C52.4435 21.2541 52.1936 21.1291 51.9437 20.9208C51.777 20.7125 51.6521 20.4626 51.6521 20.0877ZM0 35.0002C1.58289 34.4587 2.9575 33.7089 4.12384 33.4589V29.2101H7.6645V25.4195H4.12384V23.5451C5.37348 23.8367 6.91471 24.0866 8.74753 24.2116V20.2127C5.74838 19.7961 2.83253 19.0463 0 18.0466V35.0002ZM13.8711 27.419L14.5792 25.6695L15.1624 27.419H13.8711ZM17.2868 21.7123C15.5373 21.6706 13.8294 21.4207 12.1632 21.0041L8.08105 32.6258C9.74725 32.2926 11.2468 32.001 12.5798 31.8344L13.1629 30.1682H15.9122L16.3287 31.4179C17.7033 31.1679 19.1613 31.043 20.7441 30.9597L17.2868 21.7123ZM25.9927 26.0444V24.2949C26.4925 24.2949 27.284 24.5448 27.284 25.0863C27.2423 25.7111 26.7841 26.0444 25.9927 26.0444ZM30.1165 26.7942C30.1165 26.7942 31.5328 26.0444 31.5328 24.8364C31.5328 22.5454 29.9499 22.1705 29.3251 22.1705C26.6591 22.2121 24.2015 22.1705 21.9521 22.0455V30.8763L25.8677 30.7514V27.5856C27.034 27.3773 27.9921 28.4187 27.9921 30.8347L32.1576 30.9597C32.0326 29.2935 31.3245 27.8772 30.1165 26.7942ZM36.4064 29.2518V27.294C36.4064 27.294 37.781 27.2107 37.7393 28.4604C37.6977 29.4184 36.4064 29.2518 36.4064 29.2518ZM36.448 23.7117C36.448 23.7117 37.6144 23.5034 37.6144 24.6281C37.6144 25.7111 36.448 25.6695 36.448 25.6695V23.7117ZM41.28 27.1274C40.8218 26.5026 40.1553 26.336 40.1553 26.336C40.1553 26.336 41.1967 25.9194 41.28 24.5448C41.3217 23.3785 41.0301 22.3371 40.3636 21.8372C39.7388 21.4207 38.7391 21.5456 38.2392 21.5873C36.3231 21.8372 34.4903 22.0872 32.6991 22.2538V31.043C32.6991 31.043 35.9898 31.3762 38.3225 31.6261C39.5722 31.7511 41.6966 31.8344 41.7799 28.8769C41.8215 28.1271 41.5716 27.5439 41.28 27.1274ZM46.6118 28.1688L47.3616 25.8778L48.0281 28.2104L46.6118 28.1688ZM50.1525 19.5046C48.3613 20.0461 46.7785 20.421 45.4871 20.5876L41.5299 31.9177L45.2372 32.7508L45.9037 30.8347L48.6529 31.1263L49.4027 33.7505L54.0681 34.9585L50.1525 19.5046Z" fill="black"/>
<path fill-rule="evenodd" clip-rule="evenodd" d="M20.1611 20.4209C24.5348 18.7131 28.7836 18.7131 32.8242 20.4209C29.7833 16.3388 23.3685 16.3804 20.1611 20.4209ZM16.6204 20.171C23.2852 15.5473 29.8667 15.5473 36.3648 20.171C32.6575 12.1316 21.1191 11.5484 16.6204 20.171ZM12.6632 19.5878C21.9522 11.0902 31.1996 11.0902 40.322 19.5878C35.6983 6.92475 18.2449 6.71647 12.6632 19.5878ZM7.99783 18.6298C19.078 6.00834 34.0738 6.21661 45.0707 18.6298C38.3226 0.593202 15.1625 0.593202 7.99783 18.6298ZM3.20752 17.2968C16.1622 0.218308 36.6564 0.0933431 49.736 17.2968C42.738 -4.98856 11.6218 -6.52979 3.20752 17.2968Z" fill="#FAD501"/>
</svg>
