<svg width="60" height="30" viewBox="0 0 60 30" fill="none" xmlns="http://www.w3.org/2000/svg">
<path d="M47.2376 0C46.5053 0 45.9116 0.593626 45.9116 1.32597V5.63536C45.9116 6.3677 46.5053 6.96133 47.2376 6.96133H51.8785C52.6108 6.96133 53.2044 6.3677 53.2044 5.63536V1.32597C53.2044 0.593626 52.6108 0 51.8785 0H47.2376Z" fill="black"/>
<path d="M19.2265 0.662983V28.674C19.2265 29.116 19.4585 30 20.3867 30H25.0276C25.3039 30 25.8564 29.7348 25.8564 28.674V23.7017C26.0773 23.0939 26.8177 22.1768 28.011 23.3702C29.2044 24.5635 34.3646 28.2873 36.7956 30H42.9282C43.7017 29.779 44.9503 29.0386 43.7569 27.8453C42.5635 26.6519 38.2873 23.5911 36.2983 22.2099L33.1492 19.7238C32.7624 19.5027 32.2542 18.8618 33.3149 18.0663C34.3757 17.2707 37.4033 15.3038 38.7845 14.4199H45.9116V25.5249C45.9116 26.9613 46.8398 29.8343 50.5525 29.8343H58.5083C58.8398 29.779 59.5028 29.4696 59.5028 28.674V24.3646C59.5028 23.9779 59.3039 23.2044 58.5083 23.2044H53.8674C53.4807 23.2044 52.7072 22.9392 52.7072 21.8785V14.4199H58.5083C58.895 14.4199 59.6685 14.221 59.6685 13.4254V9.44751C59.6685 9.06075 59.4365 8.28729 58.5083 8.28729H38.7845L27.8453 15.2486C27.2376 15.4144 25.989 15.4806 25.8564 14.4199C25.7237 13.3591 25.8011 11.5469 25.8564 10.7735V1.49171C25.8564 1.10495 25.6575 0.29831 24.8619 0.165746C24.0663 0.0331006 21.4365 0.11047 20.221 0.165746C19.8895 0.165746 19.2265 0.265129 19.2265 0.662983Z" fill="black"/>
<path d="M8.96533 0.331492H16.0773C16.8096 0.331492 17.4033 0.925118 17.4033 1.65746V5.63536C17.4033 6.3677 16.8096 6.96133 16.0773 6.96133H5.9518C4.9532 6.96133 4.14365 6.15178 4.14365 5.15317C4.14365 2.49023 6.30239 0.331492 8.96533 0.331492Z" fill="black"/>
<path d="M4.14365 28.674V14.4199H1.32597C0.26521 14.4199 0 13.7569 0 13.4254V9.28177C0 8.48622 0.883964 8.17682 1.32597 8.12155H14.0884C15.0166 8.12155 15.2486 9.11602 15.2486 9.61326V13.4254C15.2486 14.221 14.4751 14.4199 14.0884 14.4199H10.9392V28.674C10.9392 29.7348 10.2762 30 9.94475 30H5.63536C4.442 30 4.14365 29.116 4.14365 28.674Z" fill="black"/>
</svg>
