<?xml version="1.0" encoding="UTF-8" standalone="no"?>
<svg
   xmlns:dc="http://purl.org/dc/elements/1.1/"
   xmlns:cc="http://creativecommons.org/ns#"
   xmlns:rdf="http://www.w3.org/1999/02/22-rdf-syntax-ns#"
   xmlns:svg="http://www.w3.org/2000/svg"
   xmlns="http://www.w3.org/2000/svg"
   viewBox="0 0 1122.52 793.70667"
   height="793.70667"
   width="1122.52"
   xml:space="preserve"
   id="svg2"
   version="1.1"><metadata
     id="metadata8"><rdf:RDF><cc:Work
         rdf:about=""><dc:format>image/svg+xml</dc:format><dc:type
           rdf:resource="http://purl.org/dc/dcmitype/StillImage" /></cc:Work></rdf:RDF></metadata><defs
     id="defs6"><clipPath
       id="clipPath26"
       clipPathUnits="userSpaceOnUse"><path
         id="path24"
         d="M 0,595.28 H 841.89 V 0 H 0 Z" /></clipPath></defs><g
     transform="matrix(1.3333333,0,0,-1.3333333,0,793.70667)"
     id="g10"><path
       id="path12"
       style="fill:#231f20;fill-opacity:1;fill-rule:evenodd;stroke:none"
       d="M 77.626,184.382 H 93.56 V 172.166 H 77.626 Z" /><path
       id="path14"
       style="fill:#231f20;fill-opacity:1;fill-rule:evenodd;stroke:none"
       d="M 77.626,163.874 H 93.56 V 87.544 H 77.626 Z" /><g
       transform="translate(104.8193,163.874)"
       id="g16"><path
         id="path18"
         style="fill:#231f20;fill-opacity:1;fill-rule:evenodd;stroke:none"
         d="m 0,0 v -76.33 h 14.871 v 54.338 L 15.184,-22.107 46.21,-76.33 H 62.144 V 0 H 47.273 V -53.052 L 47.067,-53.135 16.774,0 Z" /></g><g
       id="g20"><g
         clip-path="url(#clipPath26)"
         id="g22"><g
           transform="translate(211.8628,165.9014)"
           id="g28"><path
             id="path30"
             style="fill:#231f20;fill-opacity:1;fill-rule:evenodd;stroke:none"
             d="m 0,0 c -23.707,0 -35.296,-17.771 -35.296,-40.291 0,-22.107 11.062,-40.062 34.868,-40.062 18.711,0 29.757,10.931 33.153,28.142 H 16.791 c -1.904,-9.446 -8.202,-14.343 -16.89,-14.343 -14.573,0 -18.926,13.948 -18.926,26.263 0,14.54 5.952,26.46 19.239,26.46 9.233,0 14.442,-4.468 16.577,-13.19 H 32.725 C 30.697,-9.066 16.272,0 0,0" /></g><path
           id="path32"
           style="fill:#231f20;fill-opacity:1;fill-rule:evenodd;stroke:none"
           d="M 253.325,163.874 H 269.25 V 87.544 H 253.325 Z" /><path
           id="path34"
           style="fill:#231f20;fill-opacity:1;fill-rule:evenodd;stroke:none"
           d="M 253.325,184.382 H 269.25 V 172.166 H 253.325 Z" /><g
           transform="translate(306.6572,163.874)"
           id="g36"><path
             id="path38"
             style="fill:#231f20;fill-opacity:1;fill-rule:evenodd;stroke:none"
             d="m 0,0 v -76.33 h 15.925 v 34.241 H 45.69 V -76.33 H 61.641 V 0 H 45.69 V -28.916 H 15.925 l 0,28.916 z" /></g><g
           transform="translate(414.459,152.3994)"
           id="g40"><path
             id="path42"
             style="fill:#231f20;fill-opacity:1;fill-rule:evenodd;stroke:none"
             d="m 0,0 c 13.172,0 20.821,-10.419 20.821,-26.608 0,-17.525 -8.407,-26.757 -20.714,-26.757 -13.082,0 -20.731,10.42 -20.731,26.675 C -20.624,-8.936 -11.804,0 0,0 m 0.107,13.502 c -16.791,0 -36.681,-9.595 -36.681,-40.192 0,-29.956 19.132,-40.161 36.681,-40.161 16.881,0 36.64,9.463 36.64,40.243 0,30.515 -20.063,40.11 -36.64,40.11" /></g><g
           transform="translate(460.8086,163.874)"
           id="g44"><path
             id="path46"
             style="fill:#231f20;fill-opacity:1;fill-rule:evenodd;stroke:none"
             d="m 0,0 v -76.33 h 52.682 v 13.848 H 15.934 l 0,62.482 z" /></g><path
           id="path48"
           style="fill:#231f20;fill-opacity:1;fill-rule:evenodd;stroke:none"
           d="m 595.458,163.874 h 15.926 v -76.33 h -15.926 z" /><g
           transform="translate(537.3447,150.6689)"
           id="g50"><path
             id="path52"
             style="fill:#231f20;fill-opacity:1;fill-rule:evenodd;stroke:none"
             d="m 0,0 h 16.024 c 14.261,-0.1 16.799,-13.074 16.799,-24.021 0,-10.831 -3.412,-25.899 -17.111,-25.899 H 0 Z m -15.661,13.205 v -76.33 h 33.185 c 23.691,0 31.572,21.267 31.572,39.979 0,19.453 -8.622,36.236 -30.945,36.351 z" /></g><g
           transform="translate(622.6436,163.874)"
           id="g54"><path
             id="path56"
             style="fill:#231f20;fill-opacity:1;fill-rule:evenodd;stroke:none"
             d="m 0,0 v -76.33 h 14.887 v 54.338 L 15.2,-22.107 46.227,-76.33 H 62.185 V 0 H 47.281 V -53.052 L 47.075,-53.135 16.799,0 Z" /></g><g
           transform="translate(731.0391,165.9014)"
           id="g58"><path
             id="path60"
             style="fill:#231f20;fill-opacity:1;fill-rule:evenodd;stroke:none"
             d="m 0,0 c -24.234,0 -37.193,-17.771 -37.193,-40.406 0,-24.021 14.013,-39.947 35.173,-39.947 11.268,0 17.763,4.353 23.707,11.557 0.528,-3.28 1.055,-6.462 1.583,-9.561 h 10.625 v 41.132 H 2.011 v -12.859 h 17.771 c -1.813,-9.645 -8.828,-16.783 -18.711,-16.783 -15.727,0 -21.992,11.277 -21.992,26.229 0,15.958 7.534,27.45 21.876,27.45 6.711,0 14.673,-4.056 16.8,-12.563 H 33.573 C 31.669,-9.265 17.631,0 0,0" /></g><path
           id="path62"
           style="fill:#231f20;fill-opacity:1;fill-rule:evenodd;stroke:none"
           d="m 595.458,184.382 h 15.926 v -12.216 h -15.926 z" /><g
           transform="translate(380.1348,468.4971)"
           id="g64"><path
             id="path66"
             style="fill:#ed1c24;fill-opacity:1;fill-rule:evenodd;stroke:none"
             d="M 0,0 C 0,22.734 18.415,41.157 41.133,41.157 63.867,41.157 82.281,22.734 82.281,0 82.281,-22.701 63.867,-41.132 41.133,-41.132 18.415,-41.132 0,-22.701 0,0" /></g><g
           transform="translate(348.2842,410.2686)"
           id="g68"><path
             id="path70"
             style="fill:#231f20;fill-opacity:1;fill-rule:nonzero;stroke:none"
             d="m 0,0 c 18.217,-28.273 28.702,-61.946 28.702,-98.058 0,-34.088 -9.397,-65.94 -25.735,-93.158 l 36.88,-16.766 c 18.546,32.378 29.138,69.9 29.138,109.924 0,42.162 -11.696,81.589 -32.155,115.154 z" /></g><g
           transform="translate(494.2832,410.2686)"
           id="g72"><path
             id="path74"
             style="fill:#231f20;fill-opacity:1;fill-rule:nonzero;stroke:none"
             d="m 0,0 c -18.232,-28.273 -28.718,-61.946 -28.718,-98.058 0,-34.088 9.397,-65.94 25.735,-93.158 l -36.888,-16.766 c -18.538,32.378 -29.139,69.9 -29.139,109.924 0,42.162 11.689,81.589 32.164,115.154 z" /></g></g></g></g></svg>