<svg width="115" height="20" viewBox="0 0 115 20" fill="none" xmlns="http://www.w3.org/2000/svg">
<path d="M6.23069 4.99021H0V19.4956H0.208128V19.5044H6.43882V4.99459H6.23069V4.99021Z" fill="black"/>
<path d="M6.23836 0.506719V0.500147H0V3.86306H0.208128V3.86963H6.44539V0.506719H6.23836Z" fill="black"/>
<path d="M86.0526 7.69599L87.5796 12.6571H84.6034L86.0526 7.69599ZM89.1713 0.50791L89.1691 0.501337H82.8343L76.0176 19.4968H76.229L76.2268 19.5034H82.6974L83.4116 16.996H88.6641L89.4046 19.4968H89.6072L89.6094 19.5034H96.1907L89.3761 0.50791H89.1713Z" fill="black"/>
<path d="M114.777 0.506815H114.576V0.500242H108.233V5.04729L108.209 8.77168L102.265 0.506815H102.065L102.06 0.500242H96.2217V19.4979H96.4287V19.5034H102.772V14.9827L102.776 11.2867L108.74 19.4979H108.944L108.948 19.5034H114.777V0.506815Z" fill="black"/>
<path d="M61.4121 0.506815H61.2017L61.2072 0.500242H53.5163L49.0033 6.3804V0.506815H48.7984V0.500242H38.5235C42.2325 2.05463 44.8122 5.6903 44.8122 9.96349C44.8122 14.2597 42.1953 17.9567 38.4479 19.4979H38.6681C38.6637 19.499 38.6604 19.5023 38.6571 19.5034H49.0033V13.4874L49.6342 12.4665L54.0991 19.4979H54.3007L54.305 19.5034H62.1558L54.0936 8.03119L61.4121 0.506815Z" fill="black"/>
<path d="M24.4302 9.96775C24.4302 5.71099 27.0165 2.05999 30.7047 0.496836H30.4867C30.4911 0.494644 30.4944 0.492453 30.4988 0.490261L20.2249 0.501219V5.04717L20.2041 8.82962L14.256 0.506695H14.0556L14.0512 0.501219H8.21484V19.4967H8.42407V19.5044H14.7676V14.9825L14.7479 11.2691L20.7321 19.4978L20.9369 19.4967L20.9413 19.5044L31.0837 19.4836C27.344 17.9401 24.4302 14.2585 24.4302 9.96775Z" fill="black"/>
<path d="M66.3715 5.4661C66.3715 4.80009 66.9564 4.40793 68.2534 4.38821C68.8164 4.39917 69.3356 4.49885 69.7585 4.72012C70.2087 4.95892 70.5516 5.35546 70.6578 6.0149H70.8626C70.8626 6.01709 70.8637 6.01818 70.8637 6.02037H76.7801C76.332 2.6958 73.9265 0.005476 68.6455 0.005476H68.6313C68.5678 0.005476 68.5064 0 68.4396 0C63.6855 0 60.1966 2.03089 60.1966 6.06638C60.1966 13.3235 71.1321 11.3441 71.1321 14.2195C71.1321 15.0904 70.1561 15.5844 68.6729 15.6129C68.0847 15.5997 67.4636 15.453 66.9827 15.1484C66.4536 14.8319 66.0856 14.3313 65.953 13.6466H65.7471C65.7471 13.6444 65.746 13.6422 65.7449 13.639H59.776C59.9085 17.0709 63.1827 20 68.2008 20C69.5131 20 70.7279 19.8642 71.8102 19.5925H72.0435C75.2585 18.7764 77.3048 16.7521 77.3048 13.4604C77.3048 6.54836 66.3715 8.31745 66.3715 5.4661Z" fill="black"/>
<path d="M34.5093 5.33147C31.9219 5.33147 29.8297 7.4237 29.8297 10.0056C29.8297 12.5886 31.9219 14.6841 34.5093 14.6841C37.0934 14.6841 39.19 12.5886 39.19 10.0056C39.19 7.4237 37.0934 5.33147 34.5093 5.33147Z" fill="#EE3035"/>
</svg>
