<svg xmlns="http://www.w3.org/2000/svg" height="800" width="1200" id="svg3977" version="1.1" viewBox="-147.42165 -98.2195 1277.6543 589.317">
	<defs id="defs3899"><style id="style3897"/></defs>
	<g transform="translate(-20.074 -14.134) scale(5.41966)" id="g4596" fill-opacity="1" fill-rule="nonzero" stroke="none">
	<path d="M7.597 65.99h4.989l-2.495-7.256-.907-1.134-.113-1.21h2.305l5.292 14.816h-2.306l-1.171-3.477H6.992l-.151-.794z" id="path4478" fill="#002b49"/>
	<path d="M6.992 67.73L5.82 71.205H3.704L9.07 56.391l1.36 1.36-.34.983-2.494 7.257.453.944z" id="path4480" fill="#002b49"/>
	<path d="M28.044 69.43h4.989l.151-.038.151-.038.114-.037.151-.038.113-.038.114-.038.151-.075.113-.038.076-.076.113-.075.114-.076.075-.076.114-.075.075-.076.076-.113.075-.076.038-.113.076-.114.038-.075.075-.151.038-.114.038-.113.038-.113v-.152l.037-.113v-.151l.038-.151v-.302l-.038-.152v-.151l-.037-.113v-.152l-.038-.113-.038-.151-.038-.114-.075-.113-.038-.113-.076-.076-.075-.113-.076-.076-.076-.113-.075-.076-.076-.076-.113-.075-.113-.076-.114-.075-.113-.038-.114-.076-.113-.037-.151-.076-.114-.038-.15-.038-.152-.037h-.151l-.19-.038-.301-.038h-4.536l-.416-.907.416-.832h4.347l.264-.037.265-.038.226-.076.076-.038.113-.037.114-.038.075-.076.114-.038.075-.075.076-.038.076-.076.075-.075.076-.076.038-.075.075-.114.038-.075.076-.114v-.113l.075-.076.038-.264.038-.227.038-.265v-.567l-.038-.264v-.113l-.038-.114-.038-.113-.038-.114-.037-.113-.038-.076-.076-.113-.038-.076-.075-.113-.076-.076-.038-.037-.113-.114-.076-.038-.075-.075-.114-.038-.075-.076-.114-.037-.113-.038-.113-.038-.114-.038-.264-.075-.303-.038-.302-.038h-4.082l-1.21-.264-.944-1.474h6.198l.265.037h.302l.265.038.226.038.265.038.227.038.227.075.226.076.227.075.19.076.188.075.189.114.151.075.19.114.15.151.152.113.15.114.114.151.114.151.113.151.113.19.076.15.075.19.076.188.076.19.037.188.038.227.038.19.038.226v1.02l-.038.265-.076.227-.037.226-.076.19-.113.226-.114.19-.15.188-.152.151-.151.19-.19.15-.188.152-.227.15-.227.152-.264.151.34.114.34.15.265.114.302.19.113.075.114.075.113.076.113.113.114.114.113.075.114.114.075.113.076.113.075.114.076.113.076.114.037.113.076.151.038.114.038.15.037.152.038.113.038.151v.152l.038.34.038.302v.265l-.038.227-.038.264-.038.227-.038.189-.037.227-.076.189-.076.189-.113.226-.076.19-.113.15-.113.19-.152.15-.15.152-.152.151-.151.151-.151.114-.19.113-.188.113-.19.114-.226.113-.189.076-.227.075-.227.076-.264.075-.227.038-.264.076-.265.038-.302.037h-.265l-.302.038h-6.653l1.059-1.55z" id="path4482" fill="#002b49"/>
	<path d="M25.89 71.206V56.391l1.663.68.491 1.058v4.573l.718.794-.718.945v4.989l-.34.907z" id="path4484" fill="#002b49"/>
	<path d="M44.636 69.657h.341l.15-.038.19-.038.15-.038.152-.038.151-.037.113-.076.152-.075.15-.076.114-.076.114-.113.113-.076.113-.113.114-.113.113-.114.076-.151.075-.113.114-.152.075-.15.038-.152.076-.151.075-.19.038-.188.076-.189.037-.189.038-.189v-.189l.038-.227v-.189l.038-.226v-.454l-.038-.189v-.227l-.038-.189v-.226l-.038-.19-.037-.15-.076-.19-.038-.189-.038-.15-.075-.152-.076-.189-.075-.113-.076-.152-.113-.15-.076-.114-.113-.151-.076-.114-.113-.113-.114-.076-.113-.113-.151-.076-.114-.075-.15-.076-.114-.075-.151-.038-.151-.038-.152-.038-.15-.038-.152-.037h-.34l-.756-.87.756-.869h.264l.303.038.264.038.265.037.264.038.227.076.265.075.227.114.226.113.227.114.227.113.227.151.189.151.189.152.189.189.189.188.15.19.152.188.151.227.151.19.114.226.15.265.114.226.076.227.075.265.114.264.038.265.075.302.038.265.038.302v.302l.038.265-.038.34v.303l-.038.264-.038.302-.075.265-.038.302-.114.265-.075.264-.114.227-.075.265-.151.227-.114.226-.15.227-.152.227-.151.189-.19.189-.15.189-.19.151-.188.189-.227.151-.19.114-.226.15-.227.114-.264.114-.227.075-.265.114-.226.075-.265.038-.264.075h-.303l-.264.038h-.303l-.756-.869z" id="path4486" fill="#002b49"/>
	<path d="M44.636 71.395h-.264l-.303-.038h-.264l-.265-.075-.264-.038-.227-.076-.265-.075-.227-.113-.226-.114-.227-.113-.227-.114-.227-.15-.189-.152-.226-.151-.152-.19-.189-.188-.188-.19-.152-.188-.15-.227-.152-.189-.113-.227-.114-.264-.113-.227-.114-.227-.075-.264-.076-.265-.075-.264-.038-.303-.076-.264v-.303l-.038-.302v-.605l.038-.302v-.303l.076-.264.038-.302.075-.265.076-.265.075-.264.114-.265.113-.226.114-.227.15-.227.114-.227.151-.227.19-.189.15-.189.19-.188.188-.19.19-.15.226-.152.19-.151.226-.113.227-.114.264-.113.227-.114.227-.075.264-.076.303-.038.264-.037.265-.038.264-.038h.303l.567.87-.567.869h-.34l-.19.037-.15.038-.152.038-.15.038-.152.038-.151.075-.151.076-.114.075-.113.076-.151.076-.114.113-.113.113-.114.114-.075.113-.113.114-.076.15-.076.152-.075.151-.076.151-.075.151-.076.152-.038.189-.038.189-.037.189-.038.189-.038.226-.038.19v1.322l.038.19.038.226.038.189.037.189.038.189.038.151.076.189.075.151.076.151.075.151.076.152.076.113.113.151.075.114.114.113.113.113.114.076.113.113.113.076.152.076.113.075.151.076.151.038.152.037.15.038.152.038.151.038h.341l.566.831z" id="path4488" fill="#002b49"/>
	<path d="M58.923 63.043l-.151-.152-.152-.15-.15-.114-.152-.114-.151-.113-.151-.076-.151-.075-.19-.076-.15-.075-.152-.038-.189-.038-.15-.038-.19-.038-.189-.037h-.831l-.19.037-.15.038-.19.038-.15.076-.114.037-.151.076-.114.076-.075.113-.114.076-.037.113-.076.113-.038.152v.113l-.038.151.038.151v.151l.038.152.038.113.075.113.076.114.113.113.114.076.15.075.19.076.189.113.227.038.226.076.303.075.302.076.34.075.416.114.378.075.34.114.303.075.264.114.265.113.226.114.227.113.151.113.152.114.15.113.114.151.151.152.114.113.075.151.076.151.113.19.076.15.038.19.037.188.038.152.038.189v.983l-.038.15-.075.19-.038.15-.076.152-.038.15-.075.152-.114.151-.075.151-.113.114-.114.151-.113.113-.114.114-.15.113-.114.114-.151.113-.19.076-.15.113-.19.076-.15.037-.19.076-.189.075-.226.038-.19.038-.226.076-.19.037h-.226l-.227.038h-.869l-.34-.038-.34-.037-.34-.038-.303-.076-.302-.075-.303-.076-.302-.113-.264-.151-.265-.114-.265-.189-.264-.151-.227-.227-.227-.189-.264-.227-.227-.264 1.398-1.285.152.189.189.189.15.189.19.151.15.113.19.152.151.113.189.076.189.075.189.076.189.075.227.038.226.038.227.038h.756l.265-.038h.226l.227-.076.227-.037.189-.076.151-.076.151-.075.152-.076.113-.113.113-.151.076-.114.038-.151.075-.151.038-.151v-.34l-.038-.152-.037-.113-.038-.151-.076-.114-.075-.113-.114-.076-.151-.113-.151-.076-.19-.075-.226-.114-.227-.075-.264-.076-.34-.075-.34-.114-.379-.075-.453-.114-.416-.113-.378-.113-.34-.152-.151-.075-.151-.076-.152-.075-.15-.076-.114-.113-.151-.076-.114-.076-.113-.113-.076-.076-.113-.113-.076-.113-.075-.114-.076-.113-.075-.113-.076-.114-.038-.151-.038-.113-.037-.152-.038-.113-.038-.151v-.151l-.038-.152v-.679l.038-.151v-.189l.076-.151.037-.151.038-.152.076-.15.075-.152.076-.113.076-.151.113-.114.113-.113.076-.114.151-.113.114-.113.113-.114.151-.075.151-.076.151-.076.152-.075.189-.076.15-.075.19-.038.189-.076.189-.038.189-.037.189-.038h.226l.227-.038h1.021l.302.038.265.038.264.037.227.076.265.076.226.075.227.076.227.113.227.114.189.15.226.152.19.151.226.19.19.188z" id="path4490" fill="#002b49"/>
	<path d="M72.416 68.75l-.19.34-.188.302-.227.265-.227.264-.113.114-.114.15-.15.076-.114.114-.151.113-.114.076-.15.113-.114.076-.151.075-.152.076-.15.076-.152.037-.151.076-.151.038-.151.075-.19.038-.34.076-.34.037-.378.038h-.642l-.303-.038h-.264l-.265-.075-.227-.038-.264-.075-.265-.076-.226-.113-.227-.076-.227-.113-.227-.152-.189-.15-.226-.152-.19-.151-.188-.151-.152-.19-.189-.188-.15-.19-.152-.226-.113-.227-.152-.189-.113-.264-.113-.227-.076-.265-.113-.264-.076-.265-.038-.264-.075-.265-.038-.302-.038-.303v-.302l-.038-.302.038-.303v-.302l.038-.303.038-.302.038-.264.075-.265.076-.302.075-.265.114-.227.113-.264.113-.227.114-.227.151-.227.151-.189.151-.226.152-.19.189-.15.189-.19.189-.15.188-.152.19-.151.226-.151.227-.114.227-.075.227-.114.264-.075.227-.076.264-.038.265-.037.302-.038.265-.038h.642l.34.038.34.038.303.075.303.076.302.113.151.076.151.038.151.075.114.076.151.075.113.076.114.113.15.076.228.227.226.226.227.227.227.265.189.302.189.303-1.739 1.02-.15-.265-.152-.226-.113-.19-.152-.188-.15-.151-.152-.152-.113-.113-.151-.113-.152-.114-.15-.075-.152-.076-.189-.038-.151-.038-.19-.037h-.754l-.151.037-.19.038-.15.038-.152.038-.15.038-.114.075-.151.076-.114.075-.15.076-.114.076-.114.113-.113.113-.076.114-.113.113-.076.114-.113.15-.076.152-.075.151-.076.151-.075.151-.038.152-.076.189-.038.189-.037.189-.038.189-.038.226v.416l-.038.227v.453l.038.227v.416l.038.189.038.227.037.189.038.15.076.19.038.15.075.19.076.151.075.151.076.151.076.114.113.113.076.151.113.114.113.075.114.114.113.075.151.114.114.038.15.075.152.076.151.038.151.037.152.038.15.038.19.038h.792l.227-.038.19-.076.188-.037.19-.076.188-.076.151-.113.151-.113.19-.152.15-.15.152-.152.151-.189.151-.189.114-.227.15-.264z" id="path4492" fill="#002b49"/>
	<path d="M74.721 55.635h2.192v6.425l.114-.227.151-.227.151-.189.151-.189.151-.189.19-.15.188-.114.19-.151.226-.114.227-.075.227-.076.227-.076.264-.037.227-.038.264-.038h.719l.189.038.188.038.19.037.188.038.152.038.189.076.15.075.152.076.151.113.151.076.151.113.114.114.113.113.151.151.076.151.113.152.114.15.075.152.076.151.076.189.075.189.076.189.038.227.075.189v.226l.038.227.038.227.038.227v7.294h-2.193v-7.294l-.075-.303-.038-.226-.076-.227-.075-.227-.038-.075-.076-.076-.037-.113-.076-.076-.038-.076-.113-.075-.038-.038-.076-.076-.113-.075-.075-.038-.076-.038-.113-.038-.076-.037-.113-.038-.114-.038h-.113l-.227-.038h-.567l-.151.038h-.113l-.152.038-.113.038-.151.037-.114.038-.113.076-.113.038-.114.075-.075.038-.114.076-.075.075-.114.076-.075.075-.076.114-.075.113-.076.076-.076.113-.037.113-.076.114-.038.113-.075.114-.038.15-.038.114-.038.151v.114l-.038.151v6.954h-2.192z" id="path4494" fill="#002b49"/>
	<path d="M105.487 67.049l-.114.264-.113.303-.114.227-.113.264-.113.227-.114.227-.113.189-.151.226-.114.152-.15.189-.152.189-.113.15-.19.152-.15.151-.152.151-.189.114-.189.15-.189.152-.226.113-.19.114-.226.113-.227.076-.227.075-.227.076-.264.076-.227.075-.264.038-.227.038-.303.037h-.264l-.265.038h-.642l-.378-.038-.378-.037-.34-.076-.34-.075-.34-.076-.303-.113-.302-.114-.34-.151-.265-.151-.302-.19-.265-.15-.265-.227-.264-.19-.227-.226-.227-.264-.226-.227-.19-.303-.188-.264-.19-.303-.15-.302-.152-.302-.15-.34-.114-.34-.114-.34-.075-.379-.114-.378-.075-.378-.038-.415-.038-.378-.038-.416v-.869l.038-.378.038-.416.038-.378.075-.416.114-.34.075-.378.114-.378.15-.34.114-.302.151-.34.19-.303.188-.302.19-.265.188-.302.227-.227.227-.264.227-.227.264-.227.265-.189.264-.189.265-.189.302-.151.303-.151.302-.114.34-.113.303-.113.34-.076.34-.076.378-.037h.378l.34-.038h.34l.302.038.303.037.302.038.303.038.264.076.265.075.302.076.227.113.264.114.227.113.227.151.227.151.226.151.19.152.226.189.227.264.227.265.113.113.114.151.075.151.114.152.189.34.188.378.19.416.188.49-1.927.719-.151-.378-.151-.378-.114-.189-.075-.151-.076-.19-.113-.15-.076-.151-.113-.114-.076-.151-.113-.113-.114-.152-.113-.113-.114-.076-.113-.113-.113-.076-.114-.113-.113-.076-.151-.075-.114-.038-.15-.075-.152-.076-.113-.038-.19-.038-.15-.037-.152-.038-.15-.038h-.343l-.15-.038h-.19l-.264.038h-.264l-.227.038-.265.038-.227.037-.226.076-.227.076-.189.113-.189.113-.227.114-.189.113-.15.151-.19.151-.151.152-.19.189-.15.189-.114.189-.15.188-.114.227-.114.227-.113.227-.076.227-.113.264-.076.265-.075.302-.076.265-.038.302-.037.302-.038.303-.038.34v1.322l.038.303.038.302.037.303.038.302.076.265.075.302.076.265.113.226.076.265.113.227.114.227.113.226.151.19.152.188.15.19.152.15.151.19.19.15.188.114.189.151.189.114.189.075.227.114.227.075.226.076.227.038.265.037.226.038.265.038h.642l.152-.038h.189l.15-.038.19-.037.151-.038.151-.038.151-.076.152-.037.15-.076.152-.076.113-.075.114-.076.15-.113.114-.076.114-.113.113-.114.113-.113.114-.113.113-.152.076-.15.113-.152.114-.151.075-.151.076-.19.075-.15.114-.19.15-.377.114-.454z" id="path4496" fill="#002b49"/>
	<path d="M112.592 69.657h.341l.15-.038.19-.038.113-.038.189-.038.151-.037.113-.076.152-.075.113-.076.151-.076.113-.113.114-.076.113-.113.114-.113.075-.114.114-.151.075-.113.114-.152.037-.15.076-.152.076-.151.075-.19.038-.188.038-.189.075-.189.038-.189v-.189l.038-.227v-.189l.038-.226v-.454l-.038-.189v-.227l-.038-.189v-.226l-.038-.19-.075-.15-.038-.19-.038-.189-.075-.15-.076-.152-.038-.189-.075-.113-.114-.152-.075-.15-.076-.114-.113-.151-.114-.114-.075-.113-.114-.076-.15-.113-.114-.076-.114-.075-.15-.076-.152-.075-.113-.038-.152-.038-.15-.038-.152-.038-.151-.037h-.34l-.87-.794.87-.945h.264l.265.038.302.038.227.037.265.038.264.076.265.075.226.114.227.113.227.114.227.113.189.151.227.151.188.152.19.189.15.188.19.19.15.188.152.227.151.19.114.226.113.265.113.226.114.227.113.265.038.264.075.265.076.302.038.265.038.302v1.21l-.038.264-.038.302-.076.265-.075.302-.076.265-.075.264-.114.227-.113.265-.113.227-.114.226-.151.227-.151.227-.151.189-.19.189-.15.189-.227.151-.19.189-.188.151-.227.114-.189.15-.265.114-.226.114-.227.075-.265.114-.264.075-.227.038-.302.075h-.265l-.265.038h-.302l-.87-.945z" id="path4498" fill="#002b49"/>
	<path d="M112.592 71.395h-.264l-.265-.038h-.302l-.265-.075-.265-.038-.226-.076-.265-.075-.227-.113-.264-.114-.227-.113-.189-.114-.227-.15-.189-.152-.189-.151-.226-.19-.152-.188-.189-.19-.15-.188-.152-.227-.151-.189-.114-.227-.113-.264-.113-.227-.114-.227-.075-.264-.076-.265-.075-.264-.076-.303-.038-.264-.038-.303v-1.209l.038-.303.038-.264.076-.302.075-.265.076-.265.075-.264.114-.265.113-.226.113-.227.114-.227.151-.227.151-.227.151-.189.19-.189.188-.188.19-.19.188-.15.19-.152.226-.151.227-.113.227-.114.226-.113.265-.114.265-.075.226-.076.265-.038.302-.037.265-.038.264-.038h.303l.604.945-.604.794h-.34l-.19.037-.15.038-.152.038-.151.038-.151.038-.151.075-.151.076-.114.075-.151.076-.113.076-.114.113-.113.113-.114.114-.075.113-.114.114-.075.15-.114.152-.075.151-.038.151-.076.151-.075.152-.038.189-.038.189-.075.189-.038.189v.226l-.038.19v.226l-.038.227v.453l.038.19v.226l.038.19v.226l.075.189.038.189.038.189.038.151.075.189.076.151.038.151.075.151.114.152.075.113.114.151.075.114.114.113.113.113.114.076.113.113.113.076.152.076.113.075.151.076.151.038.151.037.152.038.15.038.152.038h.341l.604.907z" id="path4500" fill="#002b49"/>
	<path d="M122.948 62.022l.151-.227.114-.226.15-.19.152-.188.151-.152.19-.15.15-.152.19-.113.188-.114.19-.075.226-.076.227-.076.227-.037.226-.038.227-.038h.529l.227.038.265.038.226.037.227.076.19.076.188.075.189.114.189.15.189.114.151.19.151.15.152.227.113.19.151.226.113.227.152-.227.189-.227.15-.189.19-.227.189-.15.189-.19.227-.113.189-.151.188-.114.227-.075.227-.076.227-.076.264-.037.227-.038.265-.038h.642l.19.038.188.038.19.037.15.038.19.076.15.075.152.038.15.114.152.075.151.114.114.075.15.151.114.114.114.113.113.151.076.152.113.15.076.19.075.15.076.19.075.189.076.189.038.189.038.227.037.188.038.227.038.227v.227l.038.264v7.03h-2.192v-7.03l-.038-.302-.038-.265-.038-.226-.076-.227-.075-.227-.038-.075-.038-.114-.038-.075-.075-.076-.038-.076-.076-.075-.075-.076-.076-.038-.038-.075-.113-.038-.075-.038-.076-.038-.076-.037-.113-.038-.076-.038h-.113l-.227-.038h-.491l-.114.038h-.113l-.151.038-.114.038-.113.037-.113.038-.076.076-.113.038-.114.075-.075.038-.114.076-.075.075-.076.076-.075.113-.114.076-.038.113-.075.076-.076.113-.038.113-.075.114-.038.113-.038.114-.038.15-.037.114-.038.151v.114l-.038.302-.038.303v6.5h-2.154v-7.03l-.038-.264-.038-.303-.037-.226-.076-.227-.076-.227-.037-.075-.038-.076-.076-.076-.038-.113-.075-.076-.038-.037-.076-.076-.075-.076-.076-.037-.075-.076-.076-.038-.113-.038-.076-.037-.113-.038h-.076l-.113-.038-.19-.038h-.491l-.15.038h-.114l-.113.038-.114.038-.113.037-.114.038-.113.076-.113.038-.076.075-.113.038-.076.076-.075.075-.114.076-.075.113-.076.076-.076.113-.037.076-.076.113-.076.113-.037.114-.038.113-.076.114v.15l-.038.114-.037.151-.038.114v.302l-.038.303v6.5h-2.154V60.36h2.154z" id="path4502" fill="#002b49"/>
	<path d="M144.416 69.657h.34l.151-.038.151-.038.19-.038h.113l.15-.075.152-.038.151-.076.114-.075.113-.076.113-.075.114-.114.113-.075.113-.114.076-.113.076-.151.075-.114.114-.151.037-.151.076-.151.076-.151.037-.152.076-.189.038-.189.038-.189v-.189l.037-.189.038-.226v-1.361l-.038-.227-.037-.189-.038-.189v-.189l-.076-.189-.038-.189-.075-.15-.038-.19-.076-.15-.075-.152-.076-.151-.075-.114-.114-.15-.075-.114-.114-.114-.075-.113-.114-.113-.113-.076-.151-.076-.114-.075-.113-.076-.151-.075-.151-.038-.114-.038-.15-.038-.19-.038-.151-.037h-.302l-.303-.87.794-.869h.264l.227.038h.265l.227.038.226.075.227.076.227.075.227.114.189.075.189.114.189.113.189.151.189.152.15.15.19.19.15.15.152.19.113.189.152.227.113.226.113.19.076.264.113.227.076.264.076.265.075.264.038.265.076.302.037.265v.302l.038.303v.642l-.038.302v.303l-.037.302-.038.303-.076.264-.075.265-.076.264-.076.265-.075.227-.114.264-.113.227-.113.227-.152.189-.113.189-.151.226-.151.152-.152.189-.188.15-.152.152-.226.113-.19.152-.188.113-.19.113-.226.076-.227.075-.227.076-.226.038-.227.075h-.265l-.227.038h-.264l-.794-.831z" id="path4504" fill="#002b49"/>
	<path d="M144.945 71.395h-.302l-.265-.038-.265-.037-.264-.038-.265-.076-.227-.075-.226-.114-.227-.113-.227-.113-.189-.152-.189-.15-.227-.152-.15-.227-.19-.189-.15-.189-.152-.226v5.442h-2.154V60.359h2.154v1.739l.151-.227.19-.227.188-.189.151-.189.19-.189.226-.151.189-.151.227-.114.227-.113.226-.113.227-.076.265-.076.226-.037.265-.038.302-.038h.265l.302.832-.793.907h-.378l-.152.037-.15.038-.19.038-.15.038-.152.038-.151.075-.114.076-.15.075-.114.076-.114.076-.113.113-.113.113-.114.114-.113.113-.114.114-.075.15-.076.152-.075.151-.076.151-.076.151-.075.19-.038.188-.038.152-.038.189-.037.189-.038.226-.038.19v1.323l.038.226.038.189.037.189.038.189.038.189.038.189.075.15.038.19.114.151.037.151.114.114.075.15.114.114.075.114.114.113.113.113.114.114.113.075.151.076.114.076.113.075.151.076.151.038.151.037.152.038.189.038.15.038h.379l.831.907z" id="path4506" fill="#002b49"/>
	<path d="M155.64 69.732l.266-.038.302-.037.227-.038.264-.076.227-.075.227-.114.113-.037.076-.076.113-.076.076-.075.075-.076.114-.038.075-.113.076-.076.038-.075.075-.114.038-.075.076-.114.038-.113.037-.076.038-.113v-.113l.038-.114v-.113l.038-.113V66.18l-.605-.756.605-.718v-.87l-.038-.227-.038-.264-.038-.19-.075-.226-.076-.189-.075-.075-.038-.076-.038-.076-.076-.075-.075-.076-.038-.038-.113-.075-.038-.038-.076-.076-.113-.037-.076-.038-.113-.038-.19-.038-.226-.038-.227-.037h-.68l-.19.037-.188.038-.189.038-.189.038-.189.075-.189.076-.189.076-.189.075-.189.114-.189.113-.189.151-.189.114-.189.15-.227.19-1.096-1.399.227-.226.265-.19.264-.188.227-.152.227-.15.264-.114.265-.114.265-.113.264-.076.265-.113.302-.038.265-.075.302-.038.302-.038h1.134l.227.038.227.038h.189l.226.075.19.038.188.076.19.037.188.114.152.075.15.076.19.113.113.076.151.113.151.152.114.113.113.151.114.114.113.15.076.19.075.15.114.19.037.151.076.189.038.189.075.227v.189l.038.226.038.227v4.989l.038.114v.226l.038.114.037.113.038.076.038.075.038.076.038.038.075.038.076.037.075.038.114.038.075.038h.453v1.587h-.264l-.189.038h-.756l-.226-.038-.19-.038-.188-.075-.19-.038-.15-.076-.152-.113-.15-.113-.114-.114-.114-.113-.113-.151-.113-.152-.076-.189-.075-.189-.076-.188-.19.226-.15.19-.19.188-.188.151-.19.152-.188.15-.19.152-.226.076-.189.113-.227.076-.189.075-.226.038-.227.076h-.265l-.227.037h-.264l-.113-.945z" id="path4508" fill="#002b49"/>
	<path d="M155.112 71.395h-.378l-.19-.038h-.15l-.19-.037-.15-.038-.152-.038-.189-.076-.15-.037-.152-.076-.113-.075-.152-.076-.113-.076-.151-.075-.114-.114-.113-.075-.113-.114-.076-.113-.113-.113-.114-.114-.075-.113-.076-.151-.075-.114-.038-.15-.076-.152-.038-.151-.037-.151-.038-.152-.038-.15v-.152l-.038-.151v-.492l.038-.113v-.151l.038-.113.038-.152.037-.113.038-.151.038-.114.076-.113.037-.113.076-.114.076-.113.037-.114.114-.113.075-.113.076-.076.113-.113.076-.076.113-.113.227-.151.265-.152.264-.15.303-.152.302-.113.34-.114.378-.075.416-.114.378-.075.416-.038.453-.038.53-.038.566-.038h.643l.604.68-.604.795h-.53l-.529.037-.453.038-.416.038-.416.075-.34.114-.189.038-.151.037-.151.076-.151.076-.114.037-.113.076-.114.076-.113.075-.113.076-.076.113-.113.076-.038.075-.076.114-.075.113-.038.114-.038.075-.038.113v.114l-.037.113v.303l.037.189.038.15.038.152.076.113.075.114.114.113.075.114.151.113.114.075.15.038.152.076.189.038.151.037.19.038h.226l.34.832z" id="path4510" fill="#002b49"/>
	<path d="M164.258 60.36h2.155v1.7l.15-.227.152-.227.113-.189.19-.189.15-.189.19-.15.188-.114.19-.151.188-.114.227-.075.227-.076.265-.076.226-.037.265-.038.264-.038h.681l.227.038.188.038.152.037.189.038.189.038.189.076.15.075.152.076.151.113.114.076.15.113.152.114.113.113.114.151.113.151.113.152.076.15.076.152.113.151.076.189.075.189.038.189.076.227.037.189.038.226.038.227.038.227v.227l.038.264v7.03h-2.192v-7.03l-.038-.264-.038-.303-.038-.226-.075-.227-.076-.227-.076-.075-.037-.076-.076-.113-.038-.076-.075-.076-.076-.075-.076-.038-.075-.076-.076-.075-.076-.038-.113-.038-.075-.038-.114-.037-.113-.038-.114-.038h-.113l-.227-.038h-.529l-.151.038h-.151l-.114.038-.15.038-.114.037-.114.038-.113.076-.113.038-.114.075-.113.038-.076.076-.113.075-.076.076-.075.075-.114.114-.075.113-.038.076-.076.113-.075.113-.038.114-.076.113-.038.114-.037.15-.038.114-.038.151v.114l-.038.151v.151l-.038.151v6.652h-2.154z" id="path4512" fill="#002b49"/>
	<path d="M180.624 72.567l-.114.302-.113.303-.151.264-.152.227-.15.265-.19.189-.189.189-.189.188-.075.038-.114.076-.113.075-.113.076-.227.076-.227.113-.227.076-.264.037-.265.038h-.641l-.303-.038-.264-.037-.265-.076-.264-.113-.265-.114-.227-.113-.264-.151.718-1.55.151.113.151.114.19.075.15.038.19.076.15.038h.643l.113-.038.152-.038.113-.038.113-.075.114-.038.075-.076.076-.113.113-.076.076-.113.075-.113.076-.152.076-.113.037-.151.038-.151.34-1.02-4.12-10.697h2.344l2.835 7.824 2.645-7.824h2.155v.038z" id="path4514" fill="#002b49"/>
	<path d="M12.246 44.598v-7.861l-4.271-2.381-4.271.529v9.713z" id="path4516" fill="#0cf"/>
	<path d="M12.246 29.934v-.832l.037-.378.076-.378.038-.377.075-.378.114-.34.075-.34.114-.34.113-.303.151-.303.152-.302.15-.265.19-.264.189-.265.189-.226.189-.227.226-.227.227-.189.227-.189.265-.189.264-.151.265-.151.264-.114.303-.15.264-.076.34-.114.303-.075.302-.038.34-.038.34-.038h.87l.226.038.227.038h.227l.189.038.227.075.189.038.226.076.19.075.226.076.19.075.226.114.189.113.227.113.226.114L24 15.987l-.265-.15-.226-.152-.265-.113-.227-.114-.264-.113-.265-.114-.227-.075-.264-.076-.265-.075-.264-.038-.265-.038-.264-.038-.303-.037-.264-.038h-.907l-.303.038h-.302l-.303.037-.264.038-.265.076-.302.075-.265.076-.264.075-.265.114-.226.113-.265.114-.265.113-.226.151-.227.151-.227.19-.227.15-.226.19-.227.189-.227.226-.227.227-.189.227-.227.264-.189.265-.188.265-.227.264-.19.302-.188.303-.19.302-.188.34-.151.34-.19.378V15.42h-8.54v19.465l.302.076.34.075.378.076.378.113.454.076.453.113.492.114.529.113.53.113.604.152.605.113.642.151.68.151.68.114.719.15.756.152z" id="path4518" fill="#002b49"/>
	<path d="M38.74 45.203h.832l.415-.038.378-.037.416-.038.378-.038.416-.076.378-.037.378-.076.378-.076.34-.075.378-.114.34-.075.378-.114.34-.113.34-.151.34-.114.303-.15.34-.152.302-.151.34-.189.303-.151.302-.19.302-.188.265-.19.302-.188.265-.227.302-.227.227-.226.265-.227.264-.227.265-.265-11.452-1.55-11.906-.528.227.34.265.34.264.34.265.34.302.303.265.302.302.302.34.303.303.264.34.265.34.265.34.226.378.265.378.227.378.226.378.19.416.226.415.151.416.19.416.15.453.152.416.15.492.114.453.114.454.113.49.076.492.075.492.076.529.038.491.037.567.038z" id="path4520" fill="#0cf"/>
	<path d="M32.353 26.948l.075-.378.114-.34.075-.378.076-.34.113-.303.114-.34.113-.302.113-.265.114-.302.151-.227.151-.264.114-.227.189-.227.15-.227.152-.189.189-.189.189-.189.189-.15.189-.152.227-.151.226-.151.227-.114.227-.113.227-.076.226-.075.265-.076.265-.075.264-.038.303-.038.302-.038h.605l1.398-3.137-1.36-3.175h-.794l-.794.076-.756.076-.756.15-.756.152-.718.189-.68.227-.68.264-.68.303-.643.34-.605.34-.605.378-.567.416-.529.453-.529.491-.491.492-.492.529-.453.567-.416.567-.378.605-.378.642-.34.643-.302.68-.303.68-.226.718-.227.756-.19.756-.15.756-.114.832-.113.793-.038.832v1.474l.038.604.038.567.075.605.076.605.113.567.151.567.152.567.15.529.19.529.226.529.227.53.265.49.227.492.302.491.302.454 1.285.189 1.285.15 1.323.152 1.36.189 1.4.151 1.398.151 1.436.114 1.436.151 1.474.113 1.512.152 1.512.113 1.55.113 1.549.076 1.587.113 1.626.076 1.625.075.264-.264.265-.302.227-.303.264-.302.227-.303.227-.34.227-.302.226-.34-6.652-3.288-.264.453-.303.416-.15.189-.152.189-.151.189-.151.151-.151.151-.19.151-.15.152-.152.15-.189.114-.15.151-.19.114-.151.113-.19.076-.188.113-.189.076-.189.075-.189.076-.227.038-.189.075-.226.038-.19.038-.226.075h-.227l-.227.038-.264.038h-1.323l-.567-.076-.491-.075-.492-.114-.453-.15-.454-.152-.378-.189-.378-.227-.302-.226-.303-.265-.302-.265-.264-.302-.227-.265-.19-.302-.188-.302-.19-.303-.15-.302-.114-.302-.113-.303-.113-.302-.076-.265-.076-.302-.037-.265-.076-.226-.038-.454-.075-.34v-.34l1.436-2.457z" id="path4522" fill="#002b49"/>
	<path d="M32.202 32.164h19.804v-2.306l-.037-.869-.038-.87-.076-.83-.113-.795-.114-.793-.15-.756-.19-.718-.227-.718-.226-.68-.303-.681-.264-.642-.34-.605-.34-.567-.379-.567-.415-.53-.416-.528-.454-.454-.49-.453-.492-.416-.53-.378-.566-.378-.567-.302-.605-.303-.605-.302-.642-.227-.68-.189-.68-.189-.719-.151-.718-.113-.718-.076-.794-.076h-.794l-1.474 3.326 1.437 2.986h.604l.303.038.264.038.303.038.226.075.265.076.227.075.264.076.19.113.226.114.189.113.227.151.189.151.151.152.189.189.151.189.151.189.151.226.114.227.151.227.113.264.114.265.075.265.114.302.075.302.076.303.076.34.075.34.038.378.076.34.037.378H32.353l-1.55 2.646z" id="path4524" fill="#002b49"/>
	<path d="M72 44.598h9.978l-3.061-4.573-5.065-.831-4.12 1.738z" id="path4526" fill="#a3bac8"/>
	<path d="M60.132 44.598l2.117-3.326-4.195-.982-4.46.945-2.306 3.363z" id="path4528" fill="#5a7c91"/>
	<path d="M62.249 41.272l3.893-6.047 3.59 5.707.567-.038.567-.037.567-.038.605-.038.567-.075.567-.038.567-.076.604-.038.567-.075.567-.038.567-.076.567-.075.567-.038.605-.076.567-.075.567-.076-7.408-10.998 9.486-13.607H72.19l-5.178 8.315-5.216-8.315H51.97l9.486 14.287-7.861 11.528h.793l.794.037h1.588l.793.038h3.552l.302-.038h.567z" id="path4530" fill="#002b49"/>
	<path d="M93.317 44.598V37.72l-4.725-.53-3.817 2.004v5.404z" id="path4532" fill="#a3bac8"/>
	<path d="M93.317 29.934v-.416l.037-.416.038-.378.038-.378.038-.377.075-.378.114-.34.113-.34.076-.34.15-.303.114-.303.151-.302.152-.265.189-.264.189-.265.189-.226.226-.227.19-.227.226-.189.265-.189.226-.189.265-.151.265-.151.264-.114.302-.15.265-.076.34-.114.303-.075.302-.038.34-.038.34-.038h.87l.226.038.227.038h.227l.189.038.227.075.189.038.226.076.19.075.226.076.189.075.227.114.189.113.227.113.226.114 2.117-7.673-.227-.15-.264-.152-.265-.113-.227-.114-.264-.113-.265-.114-.227-.075-.264-.076-.265-.075-.264-.038-.265-.038-.265-.038-.302-.037-.264-.038h-.908l-.302.038h-.302l-.303.037-.264.038-.265.076-.264.075-.303.076-.264.075-.227.114-.265.113-.264.114-.265.113-.227.151-.226.151-.227.19-.227.15-.227.19-.226.189-.227.226-.227.227-.189.227-.227.264-.189.265-.189.265-.226.264-.19.302-.188.303-.19.302-.188.34-.151.34-.19.378V15.42h-8.541v23.774l.529-.076.53-.075.566-.076.53-.113.528-.076.53-.076.529-.113.529-.076.529-.113.567-.076.529-.113.529-.076.53-.113.528-.076.53-.113.529-.113z" id="path4534" fill="#002b49"/>
	<path d="M134.324 29.858v-.604l-.037-.303v-.302l-4.271-.53-4.384 2.457v.416l-.038.454-.038.264-.038.303-.038.264-.038.303-.037.302-.076.302-.076.34-.075.303-.113.34-.114.302-.113.34-.151.303-.152.302-.15.34-.19.303-.189.264-.227.303-.226.264-.265.227-.302.265-.265.226-.34.19-.34.188-.34.151-.378.152-.416.075-.454.114-.453.037-.605 3.326 1.323 3.289.756-.076.718-.076.718-.15.68-.19.719-.189.642-.227.643-.226.642-.303.605-.302.605-.34.567-.378.529-.378.567-.416.491-.453.491-.454.454-.491.453-.53.378-.529.416-.529.34-.604.34-.605.34-.605.265-.642.265-.68.226-.643.19-.718.188-.718.114-.719.113-.755.114-.756.037-.794z" id="path4536" fill="#5a7c91"/>
	<path d="M119.395 38.551h-.34l-.34-.038-.34-.037-.303-.038-.302-.076-.302-.075-.265-.076-.264-.113-.265-.114-.227-.15-.227-.114-.226-.151-.19-.152-.188-.189-.19-.15-.188-.19-.151-.189-.152-.189-.15-.227-.152-.189-.113-.226-.151-.227-.114-.227-.075-.189-.114-.227-.113-.226-.076-.227-.075-.227-.152-.453-.113-.454h-4.46l-3.855 1.89.227.756.302.718.303.68.34.643.378.604.378.605.415.53.416.528.454.454.491.453.491.454.492.378.491.34.53.34.528.303.53.302.529.227.529.227.529.226.529.19.529.15.491.19.492.113.491.113.491.076.454.075.453.076.416.076.416.037h.378l.34.038h.68l.34-.038h.303l.34-.037-.718-6.615-.151.038h-.303z" id="path4538" fill="#0cf"/>
	<path d="M113.197 29.972v-.53l.038-.49v-.492l.037-.491.076-.454.076-.454.075-.415.114-.416.113-.378.113-.416.114-.34.151-.34.151-.34.151-.303.19-.302.188-.265.227-.302.227-.227.227-.226.226-.227.265-.19.265-.188.264-.151.302-.152.303-.113.34-.113.302-.114.34-.075.34-.076h.379l.378-.038h.755l.34.038.34.038.34.038.303.075.303.114.302.113.302.113.265.19.264.15.265.19.265.189.226.226.227.227.19.227.188.264.19.303.188.302.151.303.151.302.152.378.15.34.114.378.114.378.075.416.076.415.075.454.038.454.076.453v.491l.038.492v1.171l.529-.113.567-.151.567-.114.529-.113.529-.151.567-.114.529-.113.529-.113.567-.114.53-.15.528-.114.53-.114.566-.113.53-.113.529-.114.529-.113-.076-.605-.076-.605-.075-.642-.151-.605-.151-.605-.19-.604-.188-.643-.227-.567-.227-.604-.302-.605-.303-.605-.302-.567-.378-.567-.378-.529-.378-.53-.453-.49-.454-.492-.491-.491-.53-.454-.529-.415-.567-.416-.604-.378-.643-.34-.642-.303-.68-.302-.719-.227-.756-.227-.793-.188-.794-.152-.832-.113-.869-.038-.907-.038h-.831l-.832.076-.794.076-.756.15-.755.152-.756.189-.718.227-.68.264-.681.303-.68.302-.643.378-.605.378-.567.416-.566.415-.53.492-.529.491-.491.53-.454.566-.415.567-.416.605-.378.604-.34.643-.34.68-.265.68-.265.719-.226.756-.19.756-.15.755-.114.794-.075.794-.076.831v1.929l.038.34.038.34v.34l.075.34.038.303.038.34.075.302.038.303.076.302.113.605.19.567.49-.114.567-.15.492-.114.529-.114.529-.113.53-.113.528-.114.492-.113.529-.151.529-.114.529-.113.53-.113.49-.114.53-.113.529-.114.491-.113-.038-.302-.075-.303-.038-.302-.038-.265-.076-.529-.037-.453-.038-.416v-.682z" id="path4540" fill="#002b49"/>
	<path d="M148.384 45.203h.492l.529-.038.453-.037.492-.076.453-.076.491-.113.416-.113.454-.114.416-.151.415-.151.416-.19.416-.226.378-.227.378-.226.378-.265.378-.302-2.08-5.67-.377.227-.378.151-.189.114-.189.075-.151.038-.19.076-.188.037-.151.038-.19.038-.188.038-.19.038h-.188l-.19.037h-.338l-.152-.037h-.15l-.114-.038h-.151l-.114-.038-.113-.038-.113-.075-.114-.038-.113-.038-.114-.076-.113-.075-.076-.076-.075-.075-.114-.076-.075-.113-.038-.114-.076-.113-.075-.113-.076-.114-.038-.113-.037-.114-.038-.15-.076-.152-.038-.151v-.151l-.037-.19v-.15l-.038-.378-.038-.378v-8.882l-4.309-.68-4.195 2.192v8.957l.038.53.038.49.075.492.076.491.113.454.114.453.113.454.189.416.151.377.227.416.189.378.227.34.264.34.265.303.264.302.303.303.302.264.34.265.34.226.378.19.378.226.378.151.416.19.454.113.415.151.454.113.491.076.492.038.49.075.53.038z" id="path4542" fill="#5a7c91"/>
	<path d="M147.855 22.072h6.16V15.42h-6.16V6.614l-8.504 2.948v5.858h-4.044v6.652h4.044v5.519l.53-.114.528-.113.567-.076.53-.113.529-.114.529-.075.567-.114.529-.075.529-.114.53-.113.528-.076.53-.075.529-.113.529-.076.529-.076.491-.075z" id="path4544" fill="#002b49"/>
	<path d="M176.504 26.872v17.726h8.542V27.061l-4.309-2.418-4.309.907.038.302.038.34v.302z" id="path4546" fill="#df0024"/>
	<path d="M166.828 44.598V26.646l.038-.378.038-.34.076-.34.075-.303.076-.302.075-.303-4.61-1.171-4.31 1.36V44.6z" id="path4548" fill="#0cf"/>
	<path d="M167.206 24.68l.114-.264.113-.303.151-.264.114-.227.15-.227.19-.226.151-.19.189-.188.151-.19.19-.15.188-.152.19-.113.188-.114.189-.113.189-.113.189-.076.189-.076.189-.075.189-.038.151-.038.378-.075.302-.076.303-.038h.604l.227-.037.454.037h.151l.151.038h.151l.19.038.15.038.19.075.188.076.152.075.189.076.189.113.189.152.189.113.15.151.19.19.15.226.152.189.151.264.151.265.114.265.113.34.114.34.075.34.114.416.037.416.567.075.53.076.566.075.53.114.529.075.567.076.529.113.529.076.529.113.567.114.529.075.53.114.528.113.53.076.529.113.529.113v-1.133l-.038-.643-.038-.605-.076-.604-.075-.567-.076-.567-.075-.567-.114-.567-.15-.53-.152-.49-.151-.492-.19-.491-.188-.454-.227-.453-.227-.416-.264-.416-.265-.378-.302-.378-.34-.34-.34-.302-.34-.303-.379-.302-.415-.227-.454-.264-.454-.19-.453-.15-.491-.19-.567-.113-.53-.113-.604-.038-.605-.076h-.983l-.415.038h-.34l-.378.038-.34.038-.379.075-.34.076-.34.076-.302.075-.34.113-.303.076-.34.151-.264.114-.303.113-.302.151-.265.19-.302.15-.265.19-.264.188-.265.19-.264.226-.227.227-.227.227-.265.264-.226.227-.227.265-.189.302-.227.264-.189.303-.227.302-.189.303-.15.34V2.608h-8.542v22.261l.718-.075.756-.038.718-.038.718-.038.718-.037h4.12l.378.037h.415z" id="path4550" fill="#002b49"/>
</g>
</svg>