<svg width="390" height="46" viewBox="0 0 390 46" fill="none" xmlns="http://www.w3.org/2000/svg">
<g opacity="0.5">
<path fill-rule="evenodd" clip-rule="evenodd" d="M35.7262 27.3559C35.7262 37.2124 27.7359 45.2027 17.8794 45.2027C13.5679 45.2027 9.61345 43.6739 6.52868 41.1287L7.91798 39.7394C10.6431 41.9343 14.1078 43.2481 17.8794 43.2481C26.6564 43.2481 33.7716 36.1329 33.7716 27.3559C33.7716 18.5789 26.6564 11.4637 17.8794 11.4637C14.0753 11.4637 10.5833 12.8003 7.84756 15.0295L6.45898 13.6409C9.55378 11.0611 13.5353 9.50903 17.8794 9.50903C27.7359 9.50903 35.7262 17.4993 35.7262 27.3559Z" fill="black"/>
<path d="M13.8101 16.6902V26.5485H2.08213C2.02548 24.6646 2.66003 20.1491 5.6515 17.1576L4.16427 15.7129C0.96883 18.9083 0.0566567 24.4663 0 26.8459C0 32.9649 2.83283 37.4974 4.24925 38.9988L5.694 37.5116C2.87249 34.69 2.11046 30.5286 2.08213 28.8006H13.8101V38.4889H15.8072V18.6449H22.9035C25.9969 19.9706 26.7136 22.7383 26.6853 23.9564C26.6853 27.6618 23.5692 28.7298 22.0111 28.8006H18.3143L25.4955 38.4889H28.13L22.0111 30.2028H22.9035C27.7306 30.2028 28.7958 26.0386 28.7249 23.9564C28.7249 18.8148 24.844 17.2143 22.9035 16.6902H13.8101Z" fill="black"/>
<path fill-rule="evenodd" clip-rule="evenodd" d="M46.6568 33.3054C51.3973 33.3054 55.2402 29.4624 55.2402 24.7219C55.2402 19.9814 51.3973 16.1384 46.6568 16.1384C41.9584 16.1384 38.1417 19.9134 38.0742 24.5957L38.0733 24.5944L37.9883 38.617H40.5378V30.7415C42.0949 32.3241 44.2612 33.3054 46.6568 33.3054ZM46.6568 31.1808C50.2239 31.1808 53.1156 28.289 53.1156 24.7219C53.1156 21.1548 50.2239 18.2631 46.6568 18.2631C43.0896 18.2631 40.1979 21.1548 40.1979 24.7219C40.1979 28.289 43.0896 31.1808 46.6568 31.1808Z" fill="black"/>
<path fill-rule="evenodd" clip-rule="evenodd" d="M74.5318 24.7219C74.5318 25.067 74.5115 25.4073 74.4719 25.7417H59.5696C60.0585 28.8243 62.7282 31.1808 65.9484 31.1808C68.544 31.1808 70.782 29.6497 71.8085 27.4414H74.0921C72.9547 30.849 69.7384 33.3054 65.9484 33.3054C61.2078 33.3054 57.3649 29.4624 57.3649 24.7219C57.3649 19.9814 61.2078 16.1384 65.9484 16.1384C70.6889 16.1384 74.5318 19.9814 74.5318 24.7219ZM59.6517 23.2772C60.3079 20.4056 62.8779 18.2631 65.9484 18.2631C69.0188 18.2631 71.5889 20.4056 72.245 23.2772H59.6517Z" fill="black"/>
<path fill-rule="evenodd" clip-rule="evenodd" d="M91.0614 30.5177C89.4922 32.231 87.2366 33.3054 84.7301 33.3054C79.9895 33.3054 76.1466 29.4624 76.1466 24.7219C76.1466 19.9814 79.9895 16.1384 84.7301 16.1384C89.4706 16.1384 93.3135 19.9814 93.3135 24.7219C93.3135 24.737 93.3135 24.752 93.3134 24.767C93.3134 24.7803 93.3133 24.7936 93.3131 24.8069H93.3135L93.441 33.1354H91.0614V30.5177ZM91.1889 24.7219C91.1889 28.289 88.2972 31.1808 84.7301 31.1808C81.1629 31.1808 78.2712 28.289 78.2712 24.7219C78.2712 21.1548 81.1629 18.2631 84.7301 18.2631C88.2972 18.2631 91.1889 21.1548 91.1889 24.7219Z" fill="black"/>
<path d="M95.5232 16.5634V33.1354H97.8602V29.3536L100.452 26.2516L106.189 33.1354H108.781L101.642 24.6794L108.186 16.5634H105.126L97.8602 25.9967V16.5634H95.5232Z" fill="black"/>
<path d="M42.1426 37.6348C42.1426 37.4042 42.1856 37.2041 42.2715 37.0343C42.3595 36.8624 42.4853 36.7292 42.6488 36.6349C42.8123 36.5406 43.0063 36.4934 43.2306 36.4934C43.4549 36.4934 43.6488 36.5406 43.8123 36.6349C43.9758 36.7292 44.1016 36.8624 44.1896 37.0343C44.2798 37.2041 44.3248 37.4032 44.3248 37.6317C44.3248 37.8644 44.2798 38.0667 44.1896 38.2386C44.1016 38.4084 43.9758 38.5415 43.8123 38.6379C43.6488 38.7323 43.4549 38.7794 43.2306 38.7794C43.0063 38.7794 42.8123 38.7323 42.6488 38.6379C42.4874 38.5415 42.3627 38.4073 42.2746 38.2354C42.1866 38.0635 42.1426 37.8633 42.1426 37.6348ZM42.6551 37.6348C42.6551 37.8633 42.7023 38.0426 42.7966 38.1725C42.8931 38.3004 43.0377 38.3644 43.2306 38.3644C43.4192 38.3644 43.5628 38.3004 43.6613 38.1725C43.7599 38.0426 43.8091 37.8633 43.8091 37.6348C43.8091 37.4042 43.7599 37.2261 43.6613 37.1003C43.5649 36.9724 43.4213 36.9085 43.2306 36.9085C43.0377 36.9085 42.8931 36.9724 42.7966 37.1003C42.7023 37.2261 42.6551 37.4042 42.6551 37.6348Z" fill="black"/>
<path d="M45.5581 38.7448V36.528H45.9228L47.1271 38.0593H47.0422V36.528H47.4982V38.7448H47.1334L45.9322 37.2135H46.014V38.7448H45.5581Z" fill="black"/>
<path d="M48.7969 38.7448V36.528H49.2875V38.3329H50.2874V38.7448H48.7969Z" fill="black"/>
<path d="M51.437 38.7448V36.528H51.9276V38.7448H51.437Z" fill="black"/>
<path d="M53.2265 38.7448V36.528H53.5913L54.7956 38.0593H54.7107V36.528H55.1667V38.7448H54.8019L53.6007 37.2135H53.6825V38.7448H53.2265Z" fill="black"/>
<path d="M56.4654 38.7448V36.528H58.0062V36.9085H56.934V37.4273H57.9307V37.8109H56.934V38.3644H58.0062V38.7448H56.4654Z" fill="black"/>
<path d="M60.674 38.7448L61.6928 36.528H62.0984L63.1298 38.7448H62.6329L62.3657 38.1285L62.5575 38.2637H61.24L61.4349 38.1285L61.1676 38.7448H60.674ZM61.894 37.0437L61.4884 38.0059L61.4035 37.8864H62.394L62.3217 38.0059L61.9066 37.0437H61.894Z" fill="black"/>
<path d="M64.945 38.7794C64.7668 38.7794 64.6001 38.7574 64.445 38.7134C64.2899 38.6694 64.1578 38.6086 64.0488 38.531L64.1934 38.1474C64.2647 38.1956 64.3402 38.2365 64.4198 38.27C64.4995 38.3036 64.5834 38.3298 64.6714 38.3486C64.7594 38.3654 64.8517 38.3738 64.9481 38.3738C65.099 38.3738 65.206 38.3507 65.2688 38.3046C65.3338 38.2585 65.3663 38.1998 65.3663 38.1285C65.3663 38.0635 65.3443 38.0143 65.3003 37.9807C65.2584 37.9451 65.1808 37.9147 65.0676 37.8895L64.6966 37.8141C64.4932 37.7721 64.3412 37.7009 64.2406 37.6003C64.14 37.4996 64.0897 37.3655 64.0897 37.1978C64.0897 37.0552 64.1274 36.9315 64.2029 36.8267C64.2783 36.7219 64.3842 36.6401 64.5205 36.5815C64.6588 36.5228 64.8202 36.4934 65.0047 36.4934C65.1619 36.4934 65.3087 36.5154 65.4449 36.5594C65.5812 36.6035 65.6933 36.6664 65.7814 36.7481L65.6367 37.1066C65.5508 37.0374 65.4544 36.986 65.3475 36.9525C65.2426 36.9169 65.1253 36.899 64.9953 36.899C64.859 36.899 64.7542 36.9231 64.6808 36.9714C64.6096 37.0196 64.5739 37.0856 64.5739 37.1695C64.5739 37.2324 64.5959 37.2837 64.64 37.3235C64.684 37.3613 64.7615 37.3917 64.8726 37.4147L65.2374 37.4871C65.4449 37.529 65.599 37.5992 65.6996 37.6977C65.8003 37.7963 65.8506 37.9273 65.8506 38.0908C65.8506 38.2291 65.8128 38.3497 65.7374 38.4524C65.664 38.5551 65.5592 38.6358 65.4229 38.6945C65.2888 38.7511 65.1294 38.7794 64.945 38.7794Z" fill="black"/>
<path d="M67.8645 38.7794C67.6863 38.7794 67.5197 38.7574 67.3645 38.7134C67.2094 38.6694 67.0773 38.6086 66.9683 38.531L67.113 38.1474C67.1843 38.1956 67.2597 38.2365 67.3394 38.27C67.419 38.3036 67.5029 38.3298 67.5909 38.3486C67.679 38.3654 67.7712 38.3738 67.8676 38.3738C68.0186 38.3738 68.1255 38.3507 68.1884 38.3046C68.2534 38.2585 68.2859 38.1998 68.2859 38.1285C68.2859 38.0635 68.2638 38.0143 68.2198 37.9807C68.1779 37.9451 68.1003 37.9147 67.9871 37.8895L67.6161 37.8141C67.4128 37.7721 67.2608 37.7009 67.1601 37.6003C67.0595 37.4996 67.0092 37.3655 67.0092 37.1978C67.0092 37.0552 67.0469 36.9315 67.1224 36.8267C67.1979 36.7219 67.3037 36.6401 67.44 36.5815C67.5784 36.5228 67.7398 36.4934 67.9242 36.4934C68.0815 36.4934 68.2282 36.5154 68.3645 36.5594C68.5007 36.6035 68.6129 36.6664 68.7009 36.7481L68.5563 37.1066C68.4703 37.0374 68.3739 36.986 68.267 36.9525C68.1622 36.9169 68.0448 36.899 67.9148 36.899C67.7786 36.899 67.6737 36.9231 67.6004 36.9714C67.5291 37.0196 67.4935 37.0856 67.4935 37.1695C67.4935 37.2324 67.5155 37.2837 67.5595 37.3235C67.6035 37.3613 67.6811 37.3917 67.7922 37.4147L68.1569 37.4871C68.3645 37.529 68.5185 37.5992 68.6192 37.6977C68.7198 37.7963 68.7701 37.9273 68.7701 38.0908C68.7701 38.2291 68.7324 38.3497 68.6569 38.4524C68.5835 38.5551 68.4787 38.6358 68.3425 38.6945C68.2083 38.7511 68.049 38.7794 67.8645 38.7794Z" fill="black"/>
<path d="M69.9822 38.7448V36.528H71.523V36.9085H70.4507V37.4273H71.4475V37.8109H70.4507V38.3644H71.523V38.7448H69.9822Z" fill="black"/>
<path d="M73.4855 38.7794C73.3074 38.7794 73.1407 38.7574 72.9856 38.7134C72.8305 38.6694 72.6984 38.6086 72.5894 38.531L72.734 38.1474C72.8053 38.1956 72.8808 38.2365 72.9604 38.27C73.0401 38.3036 73.1239 38.3298 73.212 38.3486C73.3 38.3654 73.3923 38.3738 73.4887 38.3738C73.6396 38.3738 73.7465 38.3507 73.8094 38.3046C73.8744 38.2585 73.9069 38.1998 73.9069 38.1285C73.9069 38.0635 73.8849 38.0143 73.8409 37.9807C73.7989 37.9451 73.7214 37.9147 73.6082 37.8895L73.2371 37.8141C73.0338 37.7721 72.8818 37.7009 72.7812 37.6003C72.6806 37.4996 72.6303 37.3655 72.6303 37.1978C72.6303 37.0552 72.668 36.9315 72.7435 36.8267C72.8189 36.7219 72.9248 36.6401 73.0611 36.5815C73.1994 36.5228 73.3608 36.4934 73.5453 36.4934C73.7025 36.4934 73.8493 36.5154 73.9855 36.5594C74.1218 36.6035 74.2339 36.6664 74.322 36.7481L74.1773 37.1066C74.0914 37.0374 73.9949 36.986 73.888 36.9525C73.7832 36.9169 73.6658 36.899 73.5359 36.899C73.3996 36.899 73.2948 36.9231 73.2214 36.9714C73.1501 37.0196 73.1145 37.0856 73.1145 37.1695C73.1145 37.2324 73.1365 37.2837 73.1805 37.3235C73.2246 37.3613 73.3021 37.3917 73.4132 37.4147L73.778 37.4871C73.9855 37.529 74.1396 37.5992 74.2402 37.6977C74.3408 37.7963 74.3912 37.9273 74.3912 38.0908C74.3912 38.2291 74.3534 38.3497 74.278 38.4524C74.2046 38.5551 74.0998 38.6358 73.9635 38.6945C73.8293 38.7511 73.67 38.7794 73.4855 38.7794Z" fill="black"/>
<path d="M76.4051 38.7794C76.2269 38.7794 76.0602 38.7574 75.9051 38.7134C75.75 38.6694 75.6179 38.6086 75.5089 38.531L75.6536 38.1474C75.7248 38.1956 75.8003 38.2365 75.88 38.27C75.9596 38.3036 76.0435 38.3298 76.1315 38.3486C76.2196 38.3654 76.3118 38.3738 76.4082 38.3738C76.5592 38.3738 76.6661 38.3507 76.729 38.3046C76.7939 38.2585 76.8264 38.1998 76.8264 38.1285C76.8264 38.0635 76.8044 38.0143 76.7604 37.9807C76.7185 37.9451 76.6409 37.9147 76.5277 37.8895L76.1567 37.8141C75.9533 37.7721 75.8014 37.7009 75.7007 37.6003C75.6001 37.4996 75.5498 37.3655 75.5498 37.1978C75.5498 37.0552 75.5875 36.9315 75.663 36.8267C75.7385 36.7219 75.8443 36.6401 75.9806 36.5815C76.1189 36.5228 76.2804 36.4934 76.4648 36.4934C76.6221 36.4934 76.7688 36.5154 76.9051 36.5594C77.0413 36.6035 77.1535 36.6664 77.2415 36.7481L77.0969 37.1066C77.0109 37.0374 76.9145 36.986 76.8076 36.9525C76.7028 36.9169 76.5854 36.899 76.4554 36.899C76.3191 36.899 76.2143 36.9231 76.141 36.9714C76.0697 37.0196 76.034 37.0856 76.034 37.1695C76.034 37.2324 76.0561 37.2837 76.1001 37.3235C76.1441 37.3613 76.2217 37.3917 76.3328 37.4147L76.6975 37.4871C76.9051 37.529 77.0591 37.5992 77.1598 37.6977C77.2604 37.7963 77.3107 37.9273 77.3107 38.0908C77.3107 38.2291 77.273 38.3497 77.1975 38.4524C77.1241 38.5551 77.0193 38.6358 76.883 38.6945C76.7489 38.7511 76.5896 38.7794 76.4051 38.7794Z" fill="black"/>
<path d="M78.5259 38.7448V36.528H78.9567L79.7271 38.2574H79.6265L80.3969 36.528H80.8245V38.7448H80.378V37.2386H80.5038L79.8152 38.7448H79.5322L78.8404 37.2386H78.9724V38.7448H78.5259Z" fill="black"/>
<path d="M82.1302 38.7448V36.528H83.6709V36.9085H82.5987V37.4273H83.5955V37.8109H82.5987V38.3644H83.6709V38.7448H82.1302Z" fill="black"/>
<path d="M84.8624 38.7448V36.528H85.2271L86.4315 38.0593H86.3466V36.528H86.8025V38.7448H86.4378L85.2366 37.2135H85.3183V38.7448H84.8624Z" fill="black"/>
<path d="M88.6138 38.7448V36.9273H87.9095V36.528H89.8087V36.9273H89.1044V38.7448H88.6138Z" fill="black"/>
<path d="M93.7352 38.7794C93.4983 38.7794 93.295 38.7323 93.1252 38.6379C92.9554 38.5436 92.8243 38.4115 92.7321 38.2417C92.642 38.0698 92.5969 37.8675 92.5969 37.6348C92.5969 37.4022 92.642 37.2009 92.7321 37.0311C92.8243 36.8613 92.9554 36.7292 93.1252 36.6349C93.295 36.5406 93.4983 36.4934 93.7352 36.4934C93.8882 36.4934 94.0276 36.5154 94.1534 36.5594C94.2792 36.6014 94.3861 36.6632 94.4741 36.745L94.32 37.1317C94.2236 37.0563 94.1314 37.0028 94.0433 36.9714C93.9574 36.9399 93.8599 36.9242 93.7509 36.9242C93.5434 36.9242 93.384 36.986 93.2729 37.1097C93.1639 37.2313 93.1094 37.4063 93.1094 37.6348C93.1094 37.8633 93.1639 38.0394 93.2729 38.1631C93.384 38.2868 93.5434 38.3486 93.7509 38.3486C93.8599 38.3486 93.9574 38.3329 94.0433 38.3015C94.1314 38.27 94.2236 38.2166 94.32 38.1411L94.4741 38.5279C94.3861 38.6075 94.2792 38.6694 94.1534 38.7134C94.0276 38.7574 93.8882 38.7794 93.7352 38.7794Z" fill="black"/>
<path d="M95.6654 38.7448V36.528H97.2061V36.9085H96.1339V37.4273H97.1307V37.8109H96.1339V38.3644H97.2061V38.7448H95.6654Z" fill="black"/>
<path d="M98.3976 38.7448V36.528H98.7623L99.9667 38.0593H99.8818V36.528H100.338V38.7448H99.9729L98.7718 37.2135H98.8535V38.7448H98.3976Z" fill="black"/>
<path d="M102.149 38.7448V36.9273H101.445V36.528H103.344V36.9273H102.64V38.7448H102.149Z" fill="black"/>
<path d="M104.461 38.7448V36.528H106.002V36.9085H104.929V37.4273H105.926V37.8109H104.929V38.3644H106.002V38.7448H104.461Z" fill="black"/>
<path d="M107.193 38.7448V36.528H108.199C108.449 36.528 108.642 36.5877 108.778 36.7072C108.914 36.8246 108.982 36.9892 108.982 37.2009C108.982 37.3393 108.951 37.4588 108.888 37.5594C108.827 37.6579 108.739 37.7344 108.624 37.7889C108.511 37.8413 108.374 37.8675 108.215 37.8675L108.253 37.7984H108.382C108.472 37.7984 108.551 37.8225 108.621 37.8707C108.692 37.9189 108.751 37.9891 108.797 38.0814L109.127 38.7448H108.586L108.243 38.031C108.218 37.9702 108.178 37.9304 108.124 37.9116C108.071 37.8906 108.011 37.8801 107.941 37.8801H107.684V38.7448H107.193ZM107.684 37.5279H108.114C108.242 37.5279 108.34 37.5017 108.407 37.4493C108.474 37.3969 108.507 37.3193 108.507 37.2166C108.507 37.1139 108.474 37.0374 108.407 36.9871C108.34 36.9347 108.242 36.9085 108.114 36.9085H107.684V37.5279Z" fill="black"/>
<path fill-rule="evenodd" clip-rule="evenodd" d="M111.88 17.5408C111.88 18.3366 111.234 18.9818 110.438 18.9818C109.643 18.9818 108.997 18.3366 108.997 17.5408C108.997 16.7449 109.643 16.0997 110.438 16.0997C111.234 16.0997 111.88 16.7449 111.88 17.5408ZM112.096 17.5408C112.096 18.456 111.354 19.198 110.438 19.198C109.523 19.198 108.781 18.456 108.781 17.5408C108.781 16.6255 109.523 15.8835 110.438 15.8835C111.354 15.8835 112.096 16.6255 112.096 17.5408ZM109.934 16.8202V18.1892H110.184V17.6339H110.396C110.448 17.6339 110.492 17.641 110.528 17.6552C110.565 17.6695 110.593 17.6992 110.611 17.7445L110.812 18.1892H111.087L110.888 17.7601C110.861 17.7018 110.826 17.6585 110.783 17.63C110.765 17.6175 110.745 17.6078 110.724 17.6008C110.746 17.5944 110.767 17.5866 110.787 17.5775C110.855 17.5452 110.908 17.4992 110.944 17.4397C110.981 17.3801 111 17.3083 111 17.2241C111 17.0973 110.959 16.9982 110.876 16.927C110.795 16.8558 110.679 16.8202 110.53 16.8202H109.934ZM110.489 17.4494H110.184V17.0164H110.489C110.577 17.0164 110.643 17.0345 110.688 17.0707C110.735 17.107 110.758 17.1607 110.758 17.2319C110.758 17.3031 110.735 17.3575 110.688 17.395C110.643 17.4313 110.577 17.4494 110.489 17.4494Z" fill="black"/>
</g>
<g opacity="0.5">
<path d="M280.447 43.1105C280.148 43.4816 279.76 43.6696 279.294 43.6696C278.903 43.6696 278.576 43.5386 278.322 43.2802C278.068 43.0217 277.938 42.707 277.938 42.345C277.938 41.9837 278.069 41.6766 278.327 41.4324C278.586 41.1877 278.911 41.0636 279.294 41.0636C279.78 41.0636 280.168 41.2514 280.447 41.6219L280.465 41.6458L280.849 41.4038L280.832 41.3762C280.686 41.1345 280.474 40.9424 280.202 40.8052C279.93 40.6684 279.631 40.5991 279.312 40.5991C278.769 40.5991 278.318 40.7749 277.972 41.1215C277.625 41.4681 277.449 41.8903 277.449 42.3759C277.449 42.8618 277.623 43.2787 277.966 43.6152C278.308 43.9516 278.741 44.122 279.251 44.122C279.574 44.122 279.879 44.0569 280.158 43.9287C280.438 43.8002 280.665 43.6124 280.831 43.3711L280.85 43.3435L280.466 43.0874L280.447 43.1105Z" fill="black"/>
<path d="M283.865 40.5991C283.386 40.5991 282.973 40.774 282.638 41.1189C282.304 41.4634 282.135 41.8841 282.135 42.3698C282.135 42.8474 282.303 43.263 282.635 43.6056C282.968 43.9483 283.383 44.1222 283.868 44.1222C284.354 44.1222 284.768 43.9482 285.099 43.6056C285.429 43.2629 285.596 42.8452 285.596 42.3638C285.596 41.8825 285.427 41.4638 285.092 41.1189C284.758 40.7741 284.345 40.5991 283.865 40.5991ZM285.107 42.3761C285.107 42.73 284.985 43.0353 284.745 43.2838C284.505 43.5318 284.207 43.6576 283.859 43.6576C283.512 43.6576 283.217 43.533 282.983 43.287C282.749 43.0406 282.63 42.7362 282.63 42.3823C282.63 42.0283 282.753 41.7187 282.996 41.4621C283.238 41.2059 283.53 41.0762 283.865 41.0762C284.2 41.0762 284.494 41.2059 284.738 41.4621C284.983 41.7189 285.107 42.0263 285.107 42.3761Z" fill="black"/>
<path d="M289.879 41.2169C289.55 40.8068 289.126 40.5991 288.616 40.5991C288.147 40.5991 287.738 40.7731 287.401 41.1157C287.065 41.4582 286.895 41.8751 286.895 42.3546C286.895 42.8341 287.064 43.2529 287.398 43.5992C287.733 43.9463 288.148 44.122 288.635 44.122C289.097 44.122 289.515 43.9155 289.879 43.5081V44.0116H290.356V40.6852H289.879V41.2169ZM289.539 41.444C289.781 41.6924 289.904 42.0019 289.904 42.3638C289.904 42.7378 289.779 43.0525 289.533 43.2984C289.286 43.5448 288.987 43.6698 288.644 43.6698C288.301 43.6698 288.002 43.5398 287.755 43.2838C287.509 43.0275 287.384 42.72 287.384 42.3699C287.384 42.0197 287.507 41.7124 287.749 41.456C287.992 41.1998 288.292 41.0701 288.644 41.0701C288.995 41.07 289.296 41.1958 289.539 41.444Z" fill="black"/>
<path d="M294.83 43.1105C294.531 43.4816 294.143 43.6696 293.676 43.6696C293.286 43.6696 292.959 43.5386 292.705 43.2802C292.45 43.0217 292.321 42.707 292.321 42.345C292.321 41.9837 292.452 41.6766 292.71 41.4324C292.969 41.1877 293.294 41.0636 293.676 41.0636C294.163 41.0636 294.551 41.2514 294.829 41.6219L294.847 41.6458L295.232 41.4038L295.215 41.3762C295.069 41.1345 294.857 40.9424 294.585 40.8052C294.313 40.6684 294.014 40.5991 293.695 40.5991C293.152 40.5991 292.701 40.7749 292.354 41.1215C292.008 41.4681 291.832 41.8903 291.832 42.3759C291.832 42.8618 292.006 43.2787 292.349 43.6152C292.691 43.9516 293.123 44.122 293.634 44.122C293.957 44.122 294.262 44.0569 294.541 43.9287C294.821 43.8002 295.048 43.6124 295.214 43.3711L295.233 43.3435L294.849 43.0874L294.83 43.1105Z" fill="black"/>
<path d="M299.031 40.8043C298.83 40.668 298.601 40.599 298.35 40.599C297.89 40.599 297.49 40.8031 297.16 41.2064V39.426H296.671V44.0113H297.16V42.7809C297.16 42.3403 297.178 42.0431 297.214 41.8984C297.25 41.7558 297.321 41.6153 297.424 41.4804C297.527 41.3458 297.653 41.2394 297.8 41.1644C297.946 41.0892 298.101 41.0512 298.261 41.0512C298.42 41.0512 298.558 41.0799 298.669 41.1367C298.78 41.1931 298.87 41.2767 298.936 41.3855C299.003 41.4958 299.047 41.6138 299.066 41.7361C299.087 41.8618 299.097 42.0935 299.097 42.4249V44.0114H299.586V42.3021C299.586 41.8825 299.544 41.5592 299.461 41.3418C299.377 41.1213 299.233 40.9405 299.031 40.8043Z" fill="black"/>
<path d="M301.575 40.6858H301.086V44.0122H301.575V40.6858Z" fill="black"/>
<path d="M301.331 39.426C301.226 39.426 301.135 39.4645 301.062 39.5403C300.988 39.6161 300.951 39.7064 300.951 39.8088C300.951 39.9073 300.988 39.9956 301.062 40.071C301.135 40.1469 301.226 40.1854 301.331 40.1854C301.436 40.1854 301.526 40.1481 301.6 40.0745C301.673 40.0008 301.711 39.9105 301.711 39.8056C301.711 39.7009 301.673 39.6106 301.6 39.537C301.526 39.4633 301.436 39.426 301.331 39.426Z" fill="black"/>
<path d="M305.467 40.8044C305.266 40.6682 305.036 40.5991 304.785 40.5991C304.325 40.5991 303.926 40.8033 303.596 41.2065V40.6852H303.106V44.0115H303.596V42.7811C303.596 42.34 303.614 42.043 303.65 41.8987C303.686 41.7564 303.756 41.6156 303.859 41.4807C303.962 41.3461 304.089 41.2397 304.235 41.1647C304.381 41.0895 304.532 41.0515 304.684 41.0515C304.836 41.0515 304.967 41.0752 305.073 41.1224C305.178 41.1689 305.265 41.238 305.333 41.3272C305.402 41.4174 305.454 41.529 305.487 41.6593C305.521 41.7911 305.538 42.0487 305.538 42.425V44.0114H306.021V42.3022C306.021 41.8823 305.979 41.5591 305.896 41.3418C305.812 41.1214 305.668 40.9405 305.467 40.8044Z" fill="black"/>
<path d="M310.439 41.1948C310.087 40.7996 309.676 40.5991 309.216 40.5991C308.733 40.5991 308.315 40.7676 307.974 41.0997C307.634 41.4324 307.461 41.8349 307.461 42.2961C307.461 42.7412 307.623 43.1332 307.943 43.4614C308.264 43.7897 308.67 43.9563 309.152 43.9563C309.409 43.9563 309.657 43.9036 309.89 43.8C310.097 43.7075 310.281 43.5708 310.439 43.3928V43.4447C310.439 43.7898 310.398 44.0461 310.317 44.2067C310.237 44.3654 310.097 44.4981 309.901 44.6007C309.704 44.7042 309.469 44.7566 309.201 44.7566C308.647 44.7566 308.25 44.5474 308.02 44.135L308.01 44.1181H307.488L307.506 44.1628C307.781 44.8529 308.357 45.203 309.219 45.203C309.471 45.203 309.707 45.1651 309.918 45.0905C310.13 45.0158 310.314 44.906 310.464 44.7641C310.614 44.6223 310.731 44.4424 310.81 44.2298C310.889 44.0183 310.929 43.6839 310.929 43.2358V40.6853H310.439V41.1948ZM310.105 41.4228C310.339 41.6569 310.458 41.9508 310.458 42.2962C310.458 42.6498 310.34 42.9413 310.109 43.1629C309.877 43.3851 309.573 43.4978 309.207 43.4978C308.841 43.4978 308.536 43.3821 308.302 43.1541C308.069 42.9264 307.95 42.646 307.95 42.321C307.95 41.9956 308.073 41.7026 308.316 41.4499C308.558 41.198 308.866 41.0702 309.232 41.0702C309.577 41.0701 309.871 41.1887 310.105 41.4228Z" fill="black"/>
<path d="M317.55 41.2169C317.221 40.8068 316.797 40.5991 316.287 40.5991C315.817 40.5991 315.409 40.7731 315.072 41.1157C314.736 41.4582 314.565 41.8751 314.565 42.3546C314.565 42.834 314.735 43.2528 315.069 43.5993C315.403 43.9463 315.819 44.122 316.305 44.122C316.768 44.122 317.186 43.9155 317.55 43.5081V44.0116H318.027V40.6852H317.55V41.2169ZM317.209 41.444C317.452 41.6925 317.575 42.0019 317.575 42.3638C317.575 42.7379 317.45 43.0525 317.203 43.2984C316.957 43.5448 316.658 43.6698 316.315 43.6698C315.971 43.6698 315.673 43.5398 315.426 43.2838C315.18 43.0273 315.055 42.7199 315.055 42.3699C315.055 42.0199 315.178 41.7125 315.42 41.456C315.663 41.1998 315.963 41.0701 316.315 41.0701C316.666 41.07 316.967 41.1958 317.209 41.444Z" fill="black"/>
<path d="M321.999 40.8044C321.798 40.6682 321.568 40.5991 321.317 40.5991C320.857 40.5991 320.458 40.8033 320.128 41.2065V40.6852H319.639V44.0115H320.128V42.7811C320.128 42.3402 320.146 42.0433 320.182 41.8987C320.218 41.7564 320.288 41.6156 320.391 41.4807C320.495 41.3461 320.621 41.2397 320.767 41.1647C320.913 41.0895 321.064 41.0515 321.216 41.0515C321.368 41.0515 321.499 41.0752 321.605 41.1224C321.71 41.1691 321.797 41.238 321.865 41.3272C321.934 41.4174 321.986 41.5291 322.02 41.6593C322.053 41.7911 322.07 42.0489 322.07 42.425V44.0114H322.554V42.3022C322.554 41.8826 322.512 41.5593 322.429 41.3418C322.345 41.1215 322.2 40.9406 321.999 40.8044Z" fill="black"/>
<path d="M326.958 41.2166C326.629 40.8065 326.205 40.5989 325.695 40.5989C325.226 40.5989 324.817 40.7727 324.481 41.1153C324.144 41.458 323.974 41.8759 323.974 42.3571C323.974 42.8384 324.142 43.2572 324.474 43.602C324.806 43.9468 325.222 44.1217 325.711 44.1217C326.175 44.1217 326.594 43.9152 326.958 43.5077V44.0113H327.435V39.426H326.958V41.2166ZM326.623 41.4462C326.862 41.6967 326.983 42.0073 326.983 42.3695C326.983 42.7433 326.854 43.0567 326.6 43.301C326.345 43.5454 326.046 43.6694 325.711 43.6694C325.375 43.6694 325.081 43.5385 324.835 43.2804C324.588 43.022 324.463 42.7145 324.463 42.3664C324.463 42.0185 324.585 41.7118 324.826 41.4554C325.066 41.1994 325.369 41.0696 325.726 41.0696C326.084 41.0696 326.386 41.1963 326.623 41.4462Z" fill="black"/>
<path d="M333.102 40.599C332.606 40.599 332.177 40.7973 331.826 41.1884V39.426H331.35V44.0113H331.826V43.4735C332.169 43.9039 332.594 44.1219 333.089 44.1219C333.559 44.1219 333.968 43.947 334.304 43.6023C334.64 43.2578 334.811 42.8389 334.811 42.3572C334.811 41.8759 334.644 41.458 334.314 41.1155C333.983 40.7728 333.575 40.599 333.102 40.599ZM334.322 42.3481C334.322 42.6963 334.198 43.0038 333.953 43.2622C333.709 43.5203 333.408 43.651 333.059 43.651C332.709 43.651 332.409 43.5223 332.167 43.2681C331.925 43.0139 331.802 42.6971 331.802 42.3268C331.802 41.9608 331.924 41.6525 332.164 41.4101C332.404 41.168 332.707 41.0454 333.065 41.0454C333.422 41.0454 333.724 41.1761 333.962 41.4339C334.201 41.6925 334.322 42.0001 334.322 42.3481Z" fill="black"/>
<path d="M338.614 41.9161C338.614 42.3576 338.596 42.6546 338.56 42.7986C338.524 42.9406 338.454 43.0812 338.351 43.2165C338.248 43.3511 338.121 43.4576 337.975 43.5327C337.829 43.6076 337.678 43.6457 337.526 43.6457C337.374 43.6457 337.243 43.6219 337.137 43.5749C337.032 43.5281 336.945 43.4593 336.877 43.3701C336.808 43.2801 336.756 43.1685 336.723 43.0379C336.689 42.9064 336.672 42.6486 336.672 42.2723V40.686H336.188V42.3951C336.188 42.8152 336.231 43.1385 336.313 43.3556C336.397 43.5759 336.542 43.7567 336.743 43.8929C336.944 44.0291 337.174 44.0981 337.425 44.0981C337.885 44.0981 338.284 43.8939 338.614 43.4907V44.0121H339.103V40.6858H338.614V41.9161Z" fill="black"/>
<path d="M341.447 41.0576C341.65 41.0576 341.864 41.1641 342.082 41.3741L342.105 41.3965L342.421 41.0737L342.397 41.0508C342.094 40.7511 341.793 40.5991 341.505 40.5991C341.218 40.5991 340.983 40.685 340.807 40.854C340.632 41.0235 340.543 41.2307 340.543 41.4701C340.543 41.7084 340.606 41.9056 340.731 42.0559C340.854 42.204 341.041 42.3421 341.288 42.4667C341.528 42.5873 341.701 42.6961 341.803 42.7901C341.901 42.8806 341.949 42.9932 341.949 43.1345C341.949 43.2757 341.894 43.3954 341.781 43.5005C341.669 43.6047 341.532 43.6575 341.374 43.6575C341.147 43.6575 340.926 43.5391 340.716 43.3059L340.692 43.2788L340.385 43.6215L340.402 43.6432C340.524 43.7939 340.673 43.9124 340.847 43.9961C341.02 44.0796 341.204 44.1221 341.392 44.1221C341.678 44.1221 341.922 44.0238 342.118 43.83C342.314 43.6362 342.414 43.395 342.414 43.1128C342.414 42.8889 342.346 42.6967 342.212 42.5418C342.081 42.3899 341.889 42.2469 341.641 42.1167C341.399 41.9899 341.227 41.8799 341.129 41.79C341.035 41.7034 340.989 41.6028 340.989 41.4823C340.989 41.3618 341.032 41.2631 341.12 41.181C341.208 41.0979 341.315 41.0576 341.447 41.0576Z" fill="black"/>
<path d="M343.999 39.426C343.894 39.426 343.803 39.4645 343.73 39.5403C343.656 39.6161 343.619 39.7064 343.619 39.8088C343.619 39.9074 343.656 39.9957 343.73 40.071C343.803 40.1469 343.894 40.1854 343.999 40.1854C344.104 40.1854 344.194 40.148 344.268 40.0745C344.341 40.0008 344.379 39.9105 344.379 39.8056C344.379 39.7009 344.341 39.6106 344.268 39.537C344.194 39.4634 344.104 39.426 343.999 39.426Z" fill="black"/>
<path d="M344.243 40.6858H343.754V44.0122H344.243V40.6858Z" fill="black"/>
<path d="M348.135 40.8044C347.933 40.6682 347.704 40.5991 347.453 40.5991C346.993 40.5991 346.594 40.8033 346.264 41.2065V40.6852H345.774V44.0115H346.264V42.7811C346.264 42.3398 346.282 42.0429 346.318 41.8989C346.354 41.7561 346.424 41.6154 346.527 41.4807C346.63 41.3461 346.757 41.2397 346.903 41.1647C347.049 41.0895 347.2 41.0515 347.352 41.0515C347.504 41.0515 347.635 41.0752 347.741 41.1224C347.846 41.1689 347.933 41.238 348.001 41.3272C348.07 41.4174 348.122 41.5291 348.155 41.6593C348.189 41.7911 348.206 42.0489 348.206 42.425V44.0114H348.689V42.3022C348.689 41.8826 348.647 41.5593 348.564 41.3418C348.48 41.1214 348.336 40.9405 348.135 40.8044Z" fill="black"/>
<path d="M353.528 42.3937C353.516 41.843 353.345 41.4014 353.018 41.0813C352.692 40.7614 352.283 40.5991 351.804 40.5991C351.324 40.5991 350.915 40.774 350.589 41.1191C350.263 41.4635 350.098 41.8823 350.098 42.3637C350.098 42.8453 350.262 43.2628 350.586 43.6052C350.91 43.9481 351.327 44.1221 351.825 44.1221C352.523 44.1221 353.058 43.7857 353.414 43.1223L353.43 43.0928L353.015 42.8785L353 42.9072C352.733 43.413 352.326 43.6696 351.788 43.6696C351.463 43.6696 351.183 43.5521 350.955 43.3202C350.734 43.095 350.612 42.7946 350.594 42.4271H353.529L353.528 42.3937ZM350.647 41.9994C350.837 41.3741 351.217 41.07 351.807 41.07C352.097 41.07 352.357 41.1566 352.579 41.3273C352.791 41.49 352.929 41.7162 352.989 41.9994H350.647Z" fill="black"/>
<path d="M355.719 41.0576C355.922 41.0576 356.136 41.1641 356.354 41.3741L356.377 41.3965L356.693 41.0737L356.67 41.0508C356.366 40.7511 356.066 40.5991 355.778 40.5991C355.49 40.5991 355.255 40.685 355.079 40.854C354.904 41.0235 354.815 41.2307 354.815 41.4701C354.815 41.7085 354.878 41.9059 355.003 42.0559C355.126 42.2039 355.313 42.3421 355.56 42.4667C355.8 42.5871 355.973 42.696 356.075 42.7901C356.173 42.8806 356.221 42.9932 356.221 43.1345C356.221 43.2757 356.166 43.3954 356.053 43.5005C355.941 43.6047 355.804 43.6575 355.646 43.6575C355.419 43.6575 355.198 43.5391 354.988 43.3059L354.964 43.2788L354.657 43.6215L354.675 43.6432C354.796 43.7939 354.945 43.9124 355.119 43.9961C355.292 44.0796 355.476 44.1221 355.664 44.1221C355.95 44.1221 356.195 44.0238 356.39 43.83C356.586 43.6362 356.686 43.395 356.686 43.1128C356.686 42.8889 356.618 42.6967 356.484 42.5418C356.353 42.3899 356.161 42.2469 355.913 42.1167C355.671 41.9899 355.499 41.8799 355.401 41.79C355.307 41.7034 355.261 41.6028 355.261 41.4823C355.261 41.3619 355.304 41.2632 355.392 41.181C355.48 41.0979 355.587 41.0576 355.719 41.0576Z" fill="black"/>
<path d="M358.833 41.0576C359.036 41.0576 359.249 41.1641 359.467 41.3741L359.491 41.3965L359.806 41.0737L359.783 41.0508C359.479 40.7511 359.179 40.5991 358.891 40.5991C358.603 40.5991 358.368 40.6847 358.193 40.854C358.017 41.0235 357.928 41.2307 357.928 41.4701C357.928 41.7084 357.992 41.9056 358.117 42.0559C358.24 42.204 358.427 42.3421 358.674 42.4667C358.913 42.5873 359.086 42.6961 359.188 42.7901C359.286 42.8806 359.334 42.9932 359.334 43.1345C359.334 43.2757 359.279 43.3954 359.167 43.5005C359.053 43.6061 358.92 43.6575 358.759 43.6575C358.532 43.6575 358.311 43.5391 358.102 43.3059L358.077 43.2788L357.771 43.6215L357.788 43.6432C357.909 43.7937 358.059 43.9124 358.232 43.9961C358.406 44.0796 358.589 44.1221 358.778 44.1221C359.064 44.1221 359.308 44.0238 359.504 43.83C359.7 43.6364 359.799 43.3951 359.799 43.1128C359.799 42.8889 359.731 42.6967 359.598 42.5418C359.467 42.39 359.275 42.247 359.026 42.1167C358.784 41.9897 358.612 41.8797 358.514 41.79C358.42 41.7034 358.374 41.6028 358.374 41.4823C358.374 41.3619 358.417 41.2632 358.505 41.181C358.594 41.0979 358.701 41.0576 358.833 41.0576Z" fill="black"/>
<path d="M364.324 39.426H363.835V40.6849H363.258V41.1066H363.835V43.5302C363.835 43.7305 363.882 43.8808 363.973 43.9766C364.065 44.0729 364.209 44.1218 364.402 44.1218C364.502 44.1218 364.64 44.1072 364.813 44.0783L364.84 44.0738V43.6572H364.556C364.404 43.6572 364.364 43.64 364.354 43.6327C364.349 43.6292 364.324 43.6044 364.324 43.4627V41.1066H364.988V40.6849H364.324V39.426Z" fill="black"/>
<path d="M366.896 40.7417C366.804 40.8176 366.71 40.9296 366.614 41.0762V40.6852H366.119V44.0116H366.614V42.8735C366.614 42.3345 366.641 41.9579 366.693 41.7547C366.745 41.5538 366.826 41.3876 366.935 41.2612C367.094 41.0759 367.276 41.0264 367.443 41.1266L367.471 41.1431L367.727 40.7302L367.697 40.7136C367.416 40.5604 367.121 40.5538 366.896 40.7417Z" fill="black"/>
<path d="M371.696 41.2169C371.367 40.8068 370.942 40.5991 370.433 40.5991C369.963 40.5991 369.554 40.7731 369.218 41.1157C368.882 41.4582 368.711 41.8751 368.711 42.3546C368.711 42.834 368.88 43.2528 369.215 43.5992C369.549 43.9463 369.965 44.122 370.451 44.122C370.913 44.122 371.332 43.9155 371.696 43.5081V44.0116H372.173V40.6852H371.696V41.2169ZM371.355 41.444C371.597 41.6924 371.72 42.0019 371.72 42.3638C371.72 42.7378 371.596 43.0522 371.349 43.2984C371.103 43.5448 370.804 43.6698 370.46 43.6698C370.117 43.6698 369.818 43.5398 369.572 43.2838C369.325 43.0275 369.2 42.72 369.2 42.3699C369.2 42.0197 369.323 41.7124 369.566 41.456C369.808 41.1998 370.109 41.0701 370.46 41.0701C370.812 41.07 371.113 41.1958 371.355 41.444Z" fill="black"/>
<path d="M374.212 40.6858H373.723V44.0122H374.212V40.6858Z" fill="black"/>
<path d="M373.967 39.426C373.862 39.426 373.771 39.4645 373.697 39.5403C373.624 39.6161 373.587 39.7064 373.587 39.8088C373.587 39.9073 373.624 39.9956 373.697 40.071C373.771 40.1469 373.862 40.1854 373.967 40.1854C374.071 40.1854 374.162 40.1481 374.235 40.0745C374.309 40.0008 374.346 39.9105 374.346 39.8056C374.346 39.7009 374.309 39.6106 374.235 39.537C374.162 39.4633 374.071 39.426 373.967 39.426Z" fill="black"/>
<path d="M378.102 40.8044C377.901 40.6682 377.672 40.5991 377.421 40.5991C376.961 40.5991 376.561 40.8033 376.231 41.2065V40.6852H375.742V44.0115H376.231V42.7811C376.231 42.3402 376.25 42.0433 376.285 41.8987C376.321 41.7564 376.392 41.6156 376.495 41.4807C376.598 41.3461 376.724 41.2399 376.871 41.1647C377.017 41.0895 377.168 41.0515 377.319 41.0515C377.472 41.0515 377.603 41.0752 377.708 41.1224C377.813 41.1691 377.901 41.238 377.969 41.3272C378.037 41.4174 378.089 41.5291 378.123 41.6593C378.157 41.7911 378.174 42.0489 378.174 42.425V44.0114H378.657V42.3022C378.657 41.8826 378.615 41.5593 378.532 41.3418C378.448 41.1214 378.303 40.9405 378.102 40.8044Z" fill="black"/>
<path d="M380.402 39.426C380.297 39.426 380.207 39.4645 380.133 39.5403C380.06 39.6161 380.022 39.7064 380.022 39.8088C380.022 39.9073 380.06 39.9956 380.133 40.071C380.207 40.1469 380.297 40.1854 380.402 40.1854C380.507 40.1854 380.597 40.1481 380.671 40.0745C380.745 40.0008 380.782 39.9105 380.782 39.8056C380.782 39.7009 380.745 39.6106 380.671 39.537C380.597 39.4633 380.507 39.426 380.402 39.426Z" fill="black"/>
<path d="M380.647 40.6858H380.158V44.0122H380.647V40.6858Z" fill="black"/>
<path d="M384.539 40.8044C384.338 40.6682 384.108 40.5991 383.857 40.5991C383.397 40.5991 382.998 40.8033 382.668 41.2065V40.6852H382.179V44.0115H382.668V42.7811C382.668 42.3402 382.686 42.0433 382.722 41.8987C382.758 41.7564 382.828 41.6156 382.931 41.4807C383.035 41.3461 383.161 41.2397 383.307 41.1647C383.453 41.0895 383.604 41.0515 383.756 41.0515C383.908 41.0515 384.039 41.0752 384.145 41.1224C384.25 41.1689 384.338 41.238 384.406 41.3272C384.474 41.4174 384.526 41.5291 384.56 41.6593C384.593 41.7911 384.611 42.0489 384.611 42.425V44.0114H385.094V42.3022C385.094 41.8826 385.051 41.5593 384.969 41.3418C384.885 41.1215 384.74 40.9406 384.539 40.8044Z" fill="black"/>
<path d="M389.511 40.6852V41.1947C389.158 40.7995 388.747 40.5991 388.288 40.5991C387.804 40.5991 387.386 40.7675 387.046 41.0997C386.705 41.432 386.532 41.8347 386.532 42.2961C386.532 42.7411 386.695 43.1331 387.015 43.4613C387.335 43.7896 387.741 43.9563 388.223 43.9563C388.481 43.9563 388.729 43.9036 388.961 43.8C389.168 43.7076 389.353 43.5707 389.511 43.3929V43.4447C389.511 43.7896 389.47 44.046 389.388 44.2066C389.308 44.3654 389.168 44.498 388.973 44.6008C388.776 44.7041 388.54 44.7566 388.272 44.7566C387.719 44.7566 387.321 44.5475 387.091 44.1349L387.082 44.1181H386.56L386.578 44.1629C386.852 44.8529 387.429 45.2029 388.291 45.2029C388.543 45.2029 388.778 45.1651 388.989 45.0905C389.202 45.0158 389.385 44.9058 389.535 44.764C389.685 44.6223 389.802 44.4424 389.881 44.2297C389.96 44.0177 390 43.6835 390 43.2359V40.6852H389.511ZM389.529 42.2962C389.529 42.6496 389.412 42.9412 389.18 43.1628C388.948 43.385 388.645 43.4977 388.278 43.4977C387.912 43.4977 387.608 43.3819 387.374 43.154C387.14 42.9262 387.022 42.646 387.022 42.3208C387.022 41.9955 387.145 41.7025 387.387 41.4499C387.629 41.1978 387.937 41.0701 388.303 41.0701C388.648 41.0701 388.942 41.1888 389.176 41.4228C389.41 41.6568 389.529 41.9507 389.529 42.2962Z" fill="black"/>
<path d="M350.834 37.5675H365.61L366.913 34.2188H354.183V26.0045H363.642L364.995 22.6737H354.183V12.8581H365.589L366.913 9.50928H350.834V37.5675Z" fill="black"/>
<path d="M383.368 25.5757C384.643 25.1525 385.763 24.4088 386.7 23.3633C388.042 21.8684 388.721 19.7018 388.721 17.7026C388.721 15.4911 387.899 13.3187 386.405 11.825C384.869 10.2884 382.997 9.50928 380.843 9.50928L370.622 9.54245V37.5675H373.971V25.9761H379.816L386.199 37.5675H389.959L383.368 25.5757ZM385.373 17.7026C385.373 18.9679 384.937 20.4088 384.041 21.2957C383.145 22.1917 382.099 22.6272 380.843 22.6272H373.971V12.8581H380.843C382.099 12.8581 383.145 13.2936 384.041 14.1897C384.9 15.0485 385.373 16.381 385.373 17.7026Z" fill="black"/>
<path d="M313.93 9.50928H306.802V37.5676H313.93C317.769 37.5676 321.102 36.1809 323.837 33.446C326.56 30.7232 327.941 27.3899 327.941 23.5385C327.941 19.6871 326.56 16.3537 323.837 13.6308C321.102 10.896 317.769 9.50928 313.93 9.50928ZM324.61 23.5385C324.61 26.4738 323.555 29.017 321.474 31.0971C319.393 33.1685 316.854 34.2187 313.93 34.2187H310.151V12.8582H313.93C316.854 12.8582 319.392 13.9078 321.472 15.9777C323.554 18.0594 324.61 20.6033 324.61 23.5385Z" fill="black"/>
<path d="M334.928 9.50928H331.579V37.5675H346.317L347.658 34.2189H334.928V9.50928Z" fill="black"/>
<path d="M282.109 25.9907H286.073L287.312 22.7218L283.386 22.7209L282.109 25.9907Z" fill="black"/>
<path d="M290.67 14.2732L292.536 9.54897L292.535 9.54655L292.529 9.53198H288.693L284.714 19.4874H288.631L290.669 14.2731" fill="black"/>
<path d="M292.528 9.53003L290.669 14.2722L292.716 19.4868H281.256L279.969 22.7217H297.831L292.528 9.53003Z" fill="black"/>
<path d="M298.377 34.3374L298.365 34.3376L282.763 34.3432H278.75L277.469 37.568H303.642L302.366 34.3374H298.377Z" fill="black"/>
<path d="M296.43 29.2266L298.369 34.3616H302.358L299.029 25.9917H278.725L277.438 29.2266H296.43Z" fill="black"/>
<path d="M284.792 29.2283H280.807L278.75 34.3441H282.777L283.863 31.5841L284.792 29.2283Z" fill="black"/>
</g>
<g opacity="0.5">
<path d="M163.38 44.9771H161.699L160.295 40.6885L158.865 44.9771H157.21L154.928 37.9297H156.784L158.088 42.2685L159.567 37.9297H160.997L162.502 42.2685L163.806 37.9297H165.637L163.38 44.9771Z" fill="black"/>
<path d="M174.641 41.4408C174.645 41.9257 174.55 42.4064 174.364 42.8542C174.178 43.3019 173.904 43.7076 173.557 44.047C173.211 44.3864 172.8 44.6525 172.348 44.8295C171.897 45.0066 171.414 45.0908 170.929 45.0774C170.425 45.1192 169.917 45.056 169.438 44.8916C168.959 44.7272 168.519 44.4653 168.147 44.1223C167.774 43.7794 167.477 43.3629 167.273 42.8992C167.07 42.4355 166.965 41.9346 166.965 41.4282C166.965 40.9219 167.07 40.421 167.273 39.9573C167.477 39.4936 167.774 39.0771 168.147 38.7342C168.519 38.3912 168.959 38.1293 169.438 37.9649C169.917 37.8005 170.425 37.7373 170.929 37.7791C171.416 37.7656 171.901 37.8506 172.354 38.0292C172.807 38.2077 173.219 38.4761 173.566 38.8182C173.913 39.1603 174.187 39.569 174.372 40.0196C174.556 40.4703 174.648 40.9538 174.641 41.4408ZM172.885 41.4408C172.871 41.0574 172.744 40.6869 172.52 40.3752C172.296 40.0636 171.986 39.8246 171.627 39.688C171.269 39.5514 170.878 39.5232 170.504 39.607C170.129 39.6908 169.788 39.8828 169.522 40.1591C169.256 40.4355 169.077 40.7839 169.007 41.1612C168.937 41.5385 168.98 41.9279 169.13 42.281C169.28 42.6341 169.531 42.9353 169.851 43.1471C170.171 43.3589 170.546 43.472 170.929 43.4722C171.193 43.4724 171.453 43.4195 171.696 43.3165C171.938 43.2135 172.157 43.0626 172.34 42.8729C172.522 42.6832 172.665 42.4586 172.759 42.2125C172.853 41.9664 172.896 41.7039 172.885 41.4408Z" fill="black"/>
<path d="M180.359 42.8955H179.054V44.9269H177.299V37.9297H180.359C182.114 37.9297 183.268 38.8827 183.268 40.3875C183.274 40.8113 183.169 41.2293 182.962 41.5993C182.755 41.9692 182.454 42.2779 182.089 42.4942L183.744 44.9269H181.713L180.359 42.8955ZM180.333 41.3405C181.011 41.3405 181.537 40.9643 181.537 40.3875C181.537 39.8107 181.011 39.4596 180.333 39.4596H179.054V41.3405H180.333Z" fill="black"/>
<path d="M188.134 43.5225V44.9269H186.403V37.9297H188.134V41.1148L190.918 37.9297H192.999L190.316 40.9894L193.225 44.9269H191.093L189.137 42.3688L188.134 43.5225Z" fill="black"/>
<path d="M197.589 44.9269H195.833V37.9297H197.589V44.9269Z" fill="black"/>
<path d="M207.269 44.9269H205.94L202.579 41.0897V44.9269H200.823V37.9297H202.152L205.538 41.8672V37.9297H207.269V44.9269Z" fill="black"/>
<path d="M213.89 39.4846V44.9269H212.16V39.4846H209.928V37.9297H216.122V39.4846H213.89Z" fill="black"/>
<path d="M225.402 41.4407C225.412 42.1769 225.203 42.8994 224.801 43.5164C224.399 44.1334 223.823 44.6169 223.146 44.9056C222.468 45.1942 221.72 45.2749 220.997 45.1374C220.274 44.9999 219.608 44.6504 219.084 44.1333C218.559 43.6163 218.201 42.955 218.054 42.2337C217.906 41.5123 217.977 40.7635 218.256 40.0823C218.536 39.4011 219.011 38.8184 219.623 38.4083C220.234 37.9982 220.954 37.7792 221.69 37.7791C222.176 37.769 222.659 37.8565 223.111 38.0363C223.562 38.2161 223.973 38.4847 224.319 38.826C224.665 39.1674 224.939 39.5746 225.125 40.0238C225.311 40.4729 225.405 40.9547 225.402 41.4407ZM223.646 41.4407C223.631 41.0574 223.504 40.6868 223.281 40.3752C223.057 40.0635 222.746 39.8245 222.388 39.688C222.029 39.5514 221.639 39.5232 221.264 39.607C220.89 39.6907 220.548 39.8827 220.282 40.1591C220.016 40.4354 219.837 40.7839 219.768 41.1612C219.698 41.5385 219.741 41.9279 219.891 42.281C220.041 42.634 220.292 42.9352 220.611 43.147C220.931 43.3588 221.306 43.4719 221.69 43.4722C221.953 43.4724 222.214 43.4194 222.456 43.3164C222.699 43.2135 222.918 43.0626 223.101 42.8729C223.283 42.6832 223.426 42.4586 223.519 42.2125C223.613 41.9664 223.656 41.7039 223.646 41.4407Z" fill="black"/>
<path d="M234.607 44.9269H233.277L229.917 41.0897V44.9269H228.161V37.9297H229.515L232.876 41.8672V37.9297H234.607V44.9269Z" fill="black"/>
<path d="M204.19 12.4743C203.664 13.8856 203.053 15.2643 202.361 16.603H210.029V28.8489C208.762 29.0468 207.467 28.9752 206.23 28.639C202.572 27.6593 199.547 24.5803 197.296 19.3321L198.422 17.0228C200.462 13.0342 201.869 10.0951 201.869 8.13577C201.966 7.18174 201.861 6.21803 201.561 5.30686C201.26 4.39569 200.771 3.55732 200.125 2.84587C199.479 2.13443 198.689 1.56574 197.808 1.17651C196.927 0.787287 195.974 0.586182 195.01 0.586182C194.046 0.586182 193.093 0.787287 192.212 1.17651C191.331 1.56574 190.542 2.13443 189.896 2.84587C189.249 3.55732 188.76 4.39569 188.46 5.30686C188.16 6.21803 188.055 7.18174 188.152 8.13577C188.152 10.0951 189.629 13.0342 191.599 17.0228L192.795 19.3321C190.473 24.5803 187.519 27.6593 183.791 28.639C182.554 28.9752 181.259 29.0468 179.992 28.8489V16.603H187.73C186.956 15.0635 186.323 13.6639 185.831 12.4743H175.842V31.9279L177.108 32.4178C178.484 32.9069 179.938 33.144 181.399 33.1175C183.235 33.1386 185.055 32.7812 186.745 32.0679C189.981 30.6683 192.795 28.0092 195.045 24.1605C197.226 28.0092 200.04 30.6683 203.346 32.0679C205.01 32.7856 206.808 33.1433 208.622 33.1175C210.083 33.144 211.537 32.9069 212.913 32.4178L214.249 31.9279V12.4743H204.19ZM195.045 14.5736C193.92 12.4044 192.372 9.18542 192.372 8.13577C192.31 7.75527 192.331 7.36576 192.435 6.99425C192.538 6.62274 192.722 6.27811 192.973 5.98425C193.224 5.69039 193.536 5.45433 193.888 5.29244C194.24 5.13055 194.623 5.0467 195.01 5.0467C195.398 5.0467 195.781 5.13055 196.133 5.29244C196.484 5.45433 196.797 5.69039 197.048 5.98425C197.298 6.27811 197.482 6.62274 197.586 6.99425C197.69 7.36576 197.711 7.75527 197.648 8.13577C197.648 9.18542 196.101 12.4044 195.045 14.5736Z" fill="black"/>
</g>
</svg>
