<svg width="20" height="19" viewBox="0 0 20 19" fill="none" xmlns="http://www.w3.org/2000/svg">
<path fill-rule="evenodd" clip-rule="evenodd" d="M20 18.1818H15.5797V11.7902C15.5797 10.1172 14.8883 8.97507 13.3678 8.97507C12.2049 8.97507 11.5581 9.74579 11.257 10.4886C11.1442 10.7552 11.1618 11.1266 11.1618 11.498V18.1818H6.7827C6.7827 18.1818 6.83914 6.85966 6.7827 5.83048H11.1618V7.76893C11.4205 6.92137 12.8198 5.71173 15.0529 5.71173C17.8234 5.71173 20 7.48835 20 11.314V18.1818ZM2.35418 4.28554H2.32597C0.914866 4.28554 0 3.34134 0 2.14451C0 0.924396 0.941908 0 2.38123 0C3.81938 0 4.70367 0.922079 4.73189 2.14103C4.73189 3.33786 3.81937 4.28554 2.35418 4.28554ZM0.504456 5.83048H4.40263V18.1818H0.504456V5.83048Z" fill="white"/>
</svg>
