<svg width="200" height="50" viewBox="0 0 200 50" fill="none" xmlns="http://www.w3.org/2000/svg">
<path d="M33.481 22.0137L27.3438 28.1616L32.5901 33.4171C34.2848 35.1148 37.0326 35.1148 38.7273 33.4171C40.422 31.7194 40.422 28.9669 38.7273 27.2692L33.481 22.0137Z" fill="#CF253F"/>
<path d="M38.8264 0H21.2211C20.5043 0 20.1563 0.877879 20.6779 1.37046L26.156 6.54456L2.7833 29.958C-0.927766 33.6755 -0.927768 39.7029 2.7833 43.4204L6.56813 47.2118C10.2792 50.9294 16.296 50.9294 20.0071 47.2118L28.9276 38.2758L22.9884 32.3262L14.2775 41.0522C13.1688 42.1628 11.3079 41.7794 10.516 41.4489L8.53623 39.4657C7.11081 38.0378 8.20627 36.2265 8.93218 35.4993L32.2932 12.0975L38.2664 18.0811C38.7653 18.5809 39.6183 18.227 39.6183 17.5202V0.79328C39.6183 0.355164 39.2637 0 38.8264 0Z" fill="#CF253F"/>
<path d="M51.0742 28.1614V12.0073H53.027V26.4261H60.523V28.1614H51.0742Z" fill="black"/>
<path d="M68.3655 28.4138C67.2002 28.4138 66.1949 28.1561 65.3498 27.6408C64.5099 27.1202 63.8616 26.3945 63.4049 25.4638C62.9535 24.5278 62.7277 23.4393 62.7277 22.1983C62.7277 20.9573 62.9535 19.8635 63.4049 18.917C63.8616 17.9652 64.4968 17.2237 65.3104 16.6926C66.1293 16.1563 67.0847 15.8881 68.1765 15.8881C68.8065 15.8881 69.4285 15.9933 70.0427 16.2036C70.6568 16.4139 71.2159 16.7557 71.7198 17.229C72.2238 17.697 72.6253 18.3175 72.9246 19.0905C73.2238 19.8635 73.3734 20.8153 73.3734 21.9459V22.7346H64.0506V21.1255H71.4836C71.4836 20.4419 71.3471 19.832 71.0742 19.2956C70.8065 18.7592 70.4232 18.3359 69.9246 18.0257C69.4311 17.7154 68.8484 17.5603 68.1765 17.5603C67.4364 17.5603 66.796 17.7443 66.2553 18.1124C65.7198 18.4753 65.3078 18.9485 65.0191 19.5322C64.7304 20.1159 64.586 20.7417 64.586 21.4095V22.4822C64.586 23.3972 64.7435 24.1728 65.0584 24.8091C65.3786 25.4401 65.8222 25.9213 66.3891 26.2526C66.9561 26.5786 67.6149 26.7416 68.3655 26.7416C68.8537 26.7416 69.2946 26.6732 69.6883 26.5365C70.0873 26.3945 70.4311 26.1842 70.7198 25.9055C71.0086 25.6215 71.2316 25.2692 71.3891 24.8485L73.1844 25.3534C72.9954 25.9633 72.6778 26.4997 72.2316 26.9625C71.7854 27.4199 71.2343 27.7775 70.5781 28.0352C69.9219 28.2876 69.1844 28.4138 68.3655 28.4138Z" fill="black"/>
<path d="M81.46 16.0458V17.6234H75.1923V16.0458H81.46ZM77.019 13.1432H78.8773V24.6908C78.8773 25.2166 78.9534 25.611 79.1056 25.874C79.2631 26.1316 79.4626 26.3051 79.7041 26.3945C79.9508 26.4787 80.2106 26.5207 80.4836 26.5207C80.6883 26.5207 80.8563 26.5102 80.9875 26.4892C81.1188 26.4629 81.2237 26.4419 81.3025 26.4261L81.6804 28.0983C81.5545 28.1456 81.3786 28.1929 81.1529 28.2403C80.9272 28.2929 80.6411 28.3191 80.2946 28.3191C79.7697 28.3191 79.2553 28.2061 78.7513 27.98C78.2526 27.7539 77.8379 27.4094 77.5072 26.9467C77.1818 26.4839 77.019 25.9002 77.019 25.1956V13.1432Z" fill="black"/>
<path d="M86.521 12.0073V13.4271C86.521 13.8583 86.4422 14.3184 86.2848 14.8075C86.1325 15.2912 85.9068 15.7619 85.6076 16.2194C85.3136 16.6716 84.9567 17.066 84.5367 17.4025L83.5289 16.5822C83.8596 16.1089 84.1457 15.6173 84.3871 15.1072C84.6338 14.5919 84.7572 14.0424 84.7572 13.4587V12.0073H86.521Z" fill="black"/>
<path d="M95.832 18.7592L94.1627 19.2325C94.0577 18.9538 93.9029 18.683 93.6981 18.42C93.4987 18.1519 93.2257 17.931 92.8792 17.7575C92.5328 17.5839 92.0892 17.4972 91.5485 17.4972C90.8084 17.4972 90.1916 17.6681 89.6981 18.0099C89.2099 18.3464 88.9659 18.775 88.9659 19.2956C88.9659 19.7583 89.1338 20.1238 89.4698 20.392C89.8057 20.6602 90.3307 20.8836 91.0446 21.0624L92.8399 21.5041C93.9212 21.7671 94.727 22.1693 95.2572 22.711C95.7874 23.2473 96.0525 23.9388 96.0525 24.7854C96.0525 25.4796 95.853 26.1001 95.454 26.6469C95.0603 27.1938 94.5091 27.625 93.8005 27.9405C93.0918 28.256 92.2677 28.4138 91.3281 28.4138C90.0945 28.4138 89.0735 28.1456 88.2651 27.6093C87.4567 27.0729 86.9449 26.2894 86.7296 25.2587L88.4934 24.817C88.6614 25.469 88.979 25.9581 89.4462 26.2841C89.9186 26.6101 90.5354 26.7732 91.2966 26.7732C92.1627 26.7732 92.8504 26.5891 93.3595 26.221C93.874 25.8477 94.1312 25.4007 94.1312 24.8801C94.1312 24.4594 93.9842 24.1071 93.6903 23.8231C93.3963 23.5339 92.9448 23.3183 92.3359 23.1763L90.3202 22.7031C89.2126 22.4402 88.3989 22.0326 87.8792 21.4805C87.3648 20.9231 87.1076 20.2263 87.1076 19.3902C87.1076 18.7066 87.2992 18.1019 87.6824 17.5761C88.0708 17.0502 88.5984 16.6374 89.2651 16.3377C89.937 16.038 90.6981 15.8881 91.5485 15.8881C92.7454 15.8881 93.685 16.151 94.3674 16.6769C95.0551 17.2027 95.5433 17.8968 95.832 18.7592Z" fill="black"/>
<path d="M105.338 28.1614V12.0073H115.007V13.7426H107.291V19.2009H114.283V20.9362H107.291V28.1614H105.338Z" fill="black"/>
<path d="M124.964 23.2079V16.0458H126.822V28.1614H124.964V26.1106H124.838C124.554 26.7258 124.113 27.249 123.515 27.6802C122.917 28.1062 122.161 28.3191 121.247 28.3191C120.491 28.3191 119.819 28.1535 119.232 27.8222C118.644 27.4857 118.182 26.9809 117.846 26.3078C117.51 25.6294 117.342 24.7749 117.342 23.7443V16.0458H119.2V23.6181C119.2 24.5015 119.447 25.2061 119.94 25.732C120.439 26.2578 121.074 26.5207 121.846 26.5207C122.308 26.5207 122.777 26.4024 123.255 26.1658C123.738 25.9292 124.142 25.5663 124.468 25.0773C124.798 24.5883 124.964 23.9651 124.964 23.2079Z" fill="black"/>
<path d="M135.485 16.0458V17.6234H129.218V16.0458H135.485ZM131.044 13.1432H132.903V24.6908C132.903 25.2166 132.979 25.611 133.131 25.874C133.289 26.1316 133.488 26.3051 133.73 26.3945C133.976 26.4787 134.236 26.5207 134.509 26.5207C134.714 26.5207 134.882 26.5102 135.013 26.4892C135.144 26.4629 135.249 26.4419 135.328 26.4261L135.706 28.0983C135.58 28.1456 135.404 28.1929 135.178 28.2403C134.953 28.2929 134.667 28.3191 134.32 28.3191C133.795 28.3191 133.281 28.2061 132.777 27.98C132.278 27.7539 131.863 27.4094 131.533 26.9467C131.207 26.4839 131.044 25.9002 131.044 25.1956V13.1432Z" fill="black"/>
<path d="M145.903 23.2079V16.0458H147.761V28.1614H145.903V26.1106H145.777C145.493 26.7258 145.052 27.249 144.454 27.6802C143.855 28.1062 143.1 28.3191 142.186 28.3191C141.43 28.3191 140.758 28.1535 140.17 27.8222C139.583 27.4857 139.121 26.9809 138.785 26.3078C138.449 25.6294 138.281 24.7749 138.281 23.7443V16.0458H140.139V23.6181C140.139 24.5015 140.386 25.2061 140.879 25.732C141.378 26.2578 142.013 26.5207 142.785 26.5207C143.247 26.5207 143.716 26.4024 144.194 26.1658C144.677 25.9292 145.081 25.5663 145.407 25.0773C145.737 24.5883 145.903 23.9651 145.903 23.2079Z" fill="black"/>
<path d="M151.165 28.1614V16.0458H152.96V17.8758H153.086C153.306 17.2763 153.705 16.7899 154.283 16.4166C154.86 16.0432 155.511 15.8565 156.235 15.8565C156.372 15.8565 156.542 15.8592 156.747 15.8644C156.952 15.8697 157.107 15.8776 157.212 15.8881V17.7811C157.149 17.7654 157.004 17.7417 156.779 17.7102C156.558 17.6733 156.325 17.6549 156.078 17.6549C155.49 17.6549 154.965 17.7785 154.503 18.0257C154.046 18.2676 153.684 18.6041 153.416 19.0353C153.154 19.4612 153.023 19.9476 153.023 20.4945V28.1614H151.165Z" fill="black"/>
<path d="M164.117 28.4138C162.952 28.4138 161.947 28.1561 161.101 27.6408C160.262 27.1202 159.613 26.3945 159.157 25.4638C158.705 24.5278 158.479 23.4393 158.479 22.1983C158.479 20.9573 158.705 19.8635 159.157 18.917C159.613 17.9652 160.248 17.2237 161.062 16.6926C161.881 16.1563 162.836 15.8881 163.928 15.8881C164.558 15.8881 165.18 15.9933 165.794 16.2036C166.409 16.4139 166.968 16.7557 167.472 17.229C167.975 17.697 168.377 18.3175 168.676 19.0905C168.975 19.8635 169.125 20.8153 169.125 21.9459V22.7346H159.802V21.1255H167.235C167.235 20.4419 167.099 19.832 166.826 19.2956C166.558 18.7592 166.175 18.3359 165.676 18.0257C165.183 17.7154 164.6 17.5603 163.928 17.5603C163.188 17.5603 162.548 17.7443 162.007 18.1124C161.472 18.4753 161.06 18.9485 160.771 19.5322C160.482 20.1159 160.338 20.7417 160.338 21.4095V22.4822C160.338 23.3972 160.495 24.1728 160.81 24.8091C161.13 25.4401 161.574 25.9213 162.141 26.2526C162.708 26.5786 163.367 26.7416 164.117 26.7416C164.605 26.7416 165.046 26.6732 165.44 26.5365C165.839 26.3945 166.183 26.1842 166.472 25.9055C166.76 25.6215 166.983 25.2692 167.141 24.8485L168.936 25.3534C168.747 25.9633 168.43 26.4997 167.983 26.9625C167.537 27.4199 166.986 27.7775 166.33 28.0352C165.674 28.2876 164.936 28.4138 164.117 28.4138Z" fill="black"/>
<path d="M181.644 12.0073H185.054V22.498C185.054 23.6759 184.773 24.7066 184.211 25.59C183.655 26.4734 182.875 27.1623 181.873 27.6566C180.87 28.1456 179.702 28.3901 178.369 28.3901C177.03 28.3901 175.859 28.1456 174.857 27.6566C173.854 27.1623 173.075 26.4734 172.518 25.59C171.962 24.7066 171.684 23.6759 171.684 22.498V12.0073H175.093V22.2062C175.093 22.8214 175.227 23.3683 175.495 23.8468C175.768 24.3253 176.151 24.7013 176.644 24.9748C177.138 25.2482 177.712 25.3849 178.369 25.3849C179.03 25.3849 179.605 25.2482 180.093 24.9748C180.586 24.7013 180.967 24.3253 181.235 23.8468C181.508 23.3683 181.644 22.8214 181.644 22.2062V12.0073Z" fill="#CF253F"/>
<path d="M187.859 28.1614V12.0073H194.221C195.444 12.0073 196.486 12.2413 197.347 12.7093C198.208 13.1721 198.864 13.8162 199.315 14.6418C199.772 15.4621 200 16.4087 200 17.4814C200 18.5541 199.769 19.5007 199.308 20.321C198.846 21.1413 198.176 21.7802 197.3 22.2377C196.428 22.6952 195.373 22.9239 194.134 22.9239H190.079V20.1869H193.583C194.239 20.1869 194.78 20.0738 195.205 19.8477C195.636 19.6164 195.956 19.2982 196.166 18.8933C196.381 18.4831 196.489 18.0125 196.489 17.4814C196.489 16.945 196.381 16.477 196.166 16.0774C195.956 15.6725 195.636 15.3596 195.205 15.1388C194.775 14.9126 194.229 14.7996 193.567 14.7996H191.268V28.1614H187.859Z" fill="#CF253F"/>
<path d="M73.3193 44.8206V37.8974H74.1562V40.9804H77.8413V37.8974H78.6782V44.8206H77.8413V41.7241H74.1562V44.8206H73.3193Z" fill="black"/>
<path d="M86.3784 44.9287C85.8789 44.9287 85.4481 44.8183 85.0859 44.5975C84.7259 44.3743 84.4481 44.0633 84.2524 43.6644C84.0589 43.2633 83.9622 42.7968 83.9622 42.2649C83.9622 41.7331 84.0589 41.2643 84.2524 40.8587C84.4481 40.4508 84.7203 40.133 85.069 39.9054C85.42 39.6755 85.8294 39.5606 86.2974 39.5606C86.5673 39.5606 86.8339 39.6056 87.0971 39.6958C87.3604 39.7859 87.5999 39.9324 87.8159 40.1352C88.0319 40.3358 88.204 40.6018 88.3322 40.933C88.4605 41.2643 88.5246 41.6722 88.5246 42.1568V42.4948H84.5291V41.8052H87.7147C87.7147 41.5122 87.6562 41.2508 87.5392 41.0209C87.4245 40.7911 87.2602 40.6096 87.0465 40.4767C86.835 40.3437 86.5853 40.2772 86.2974 40.2772C85.9802 40.2772 85.7057 40.3561 85.474 40.5139C85.2445 40.6694 85.0679 40.8722 84.9442 41.1223C84.8204 41.3725 84.7586 41.6407 84.7586 41.9269V42.3866C84.7586 42.7788 84.8261 43.1112 84.961 43.3839C85.0983 43.6543 85.2884 43.8605 85.5313 44.0025C85.7743 44.1422 86.0566 44.2121 86.3784 44.2121C86.5876 44.2121 86.7766 44.1828 86.9453 44.1242C87.1163 44.0633 87.2636 43.9732 87.3874 43.8538C87.5111 43.7321 87.6067 43.5811 87.6742 43.4008L88.4436 43.6171C88.3626 43.8785 88.2265 44.1084 88.0353 44.3067C87.844 44.5028 87.6078 44.656 87.3266 44.7665C87.0454 44.8746 86.7293 44.9287 86.3784 44.9287Z" fill="black"/>
<path d="M94.4919 37.8974V44.8206H93.6955V37.8974H94.4919Z" fill="black"/>
<path d="M100.706 37.8974V44.8206H99.9101V37.8974H100.706Z" fill="black"/>
<path d="M108.23 44.9287C107.762 44.9287 107.352 44.8172 106.999 44.5941C106.648 44.371 106.373 44.0588 106.175 43.6577C105.98 43.2565 105.882 42.7878 105.882 42.2514C105.882 41.7105 105.98 41.2384 106.175 40.835C106.373 40.4316 106.648 40.1183 106.999 39.8952C107.352 39.6721 107.762 39.5606 108.23 39.5606C108.698 39.5606 109.108 39.6721 109.459 39.8952C109.812 40.1183 110.086 40.4316 110.282 40.835C110.48 41.2384 110.579 41.7105 110.579 42.2514C110.579 42.7878 110.48 43.2565 110.282 43.6577C110.086 44.0588 109.812 44.371 109.459 44.5941C109.108 44.8172 108.698 44.9287 108.23 44.9287ZM108.23 44.2121C108.586 44.2121 108.878 44.1208 109.108 43.9383C109.337 43.7557 109.507 43.5157 109.617 43.2182C109.728 42.9207 109.783 42.5985 109.783 42.2514C109.783 41.9044 109.728 41.581 109.617 41.2812C109.507 40.9815 109.337 40.7392 109.108 40.5544C108.878 40.3696 108.586 40.2772 108.23 40.2772C107.875 40.2772 107.582 40.3696 107.353 40.5544C107.124 40.7392 106.954 40.9815 106.843 41.2812C106.733 41.581 106.678 41.9044 106.678 42.2514C106.678 42.5985 106.733 42.9207 106.843 43.2182C106.954 43.5157 107.124 43.7557 107.353 43.9383C107.582 44.1208 107.875 44.2121 108.23 44.2121Z" fill="black"/>
<path d="M121.424 40.0609H120.587C120.537 39.8197 120.451 39.6079 120.327 39.4254C120.205 39.2428 120.057 39.0896 119.881 38.9656C119.708 38.8394 119.516 38.7448 119.304 38.6817C119.093 38.6186 118.872 38.587 118.643 38.587C118.224 38.587 117.845 38.6929 117.506 38.9048C117.168 39.1166 116.899 39.4287 116.699 39.8411C116.501 40.2536 116.402 40.7595 116.402 41.359C116.402 41.9584 116.501 42.4644 116.699 42.8768C116.899 43.2892 117.168 43.6013 117.506 43.8132C117.845 44.025 118.224 44.1309 118.643 44.1309C118.872 44.1309 119.093 44.0994 119.304 44.0363C119.516 43.9732 119.708 43.8797 119.881 43.7557C120.057 43.6295 120.205 43.4751 120.327 43.2926C120.451 43.1078 120.537 42.896 120.587 42.6571H121.424C121.361 43.0109 121.246 43.3275 121.079 43.607C120.913 43.8864 120.706 44.1242 120.458 44.3203C120.211 44.5141 119.933 44.6617 119.625 44.7631C119.319 44.8645 118.992 44.9152 118.643 44.9152C118.053 44.9152 117.529 44.771 117.07 44.4825C116.611 44.194 116.25 43.7839 115.987 43.252C115.724 42.7202 115.592 42.0892 115.592 41.359C115.592 40.6288 115.724 39.9978 115.987 39.4659C116.25 38.9341 116.611 38.5239 117.07 38.2354C117.529 37.947 118.053 37.8027 118.643 37.8027C118.992 37.8027 119.319 37.8534 119.625 37.9549C119.933 38.0563 120.211 38.205 120.458 38.4011C120.706 38.5949 120.913 38.8315 121.079 39.111C121.246 39.3882 121.361 39.7048 121.424 40.0609Z" fill="black"/>
<path d="M128.153 44.9423C127.824 44.9423 127.526 44.8803 127.258 44.7563C126.991 44.6301 126.778 44.4487 126.621 44.2121C126.463 43.9732 126.384 43.6847 126.384 43.3467C126.384 43.0492 126.443 42.8081 126.56 42.6233C126.677 42.4362 126.833 42.2897 127.029 42.1838C127.225 42.0779 127.441 41.999 127.677 41.9472C127.915 41.8931 128.155 41.8503 128.396 41.8187C128.711 41.7782 128.966 41.7477 129.162 41.7274C129.36 41.7049 129.504 41.6677 129.594 41.6159C129.686 41.5641 129.732 41.4739 129.732 41.3455V41.3184C129.732 40.9849 129.641 40.7257 129.459 40.5409C129.279 40.3561 129.005 40.2637 128.639 40.2637C128.258 40.2637 127.96 40.3471 127.744 40.5139C127.528 40.6806 127.377 40.8587 127.289 41.048L126.533 40.7775C126.668 40.462 126.848 40.2164 127.073 40.0406C127.3 39.8626 127.548 39.7386 127.815 39.6687C128.085 39.5966 128.351 39.5606 128.612 39.5606C128.778 39.5606 128.969 39.5809 129.185 39.6214C129.404 39.6597 129.614 39.7397 129.816 39.8614C130.021 39.9831 130.191 40.1668 130.326 40.4124C130.461 40.6581 130.528 40.9871 130.528 41.3995V44.8206H129.732V44.1174H129.692C129.638 44.2301 129.548 44.3507 129.422 44.4791C129.296 44.6076 129.128 44.7169 128.919 44.807C128.71 44.8972 128.454 44.9423 128.153 44.9423ZM128.274 44.2256C128.589 44.2256 128.855 44.1636 129.071 44.0397C129.289 43.9157 129.453 43.7557 129.563 43.5597C129.676 43.3636 129.732 43.1574 129.732 42.941V42.2108C129.698 42.2514 129.624 42.2886 129.509 42.3224C129.397 42.354 129.266 42.3821 129.118 42.4069C128.972 42.4295 128.829 42.4497 128.689 42.4678C128.552 42.4835 128.441 42.4971 128.355 42.5083C128.148 42.5354 127.955 42.5793 127.775 42.6402C127.597 42.6988 127.453 42.7878 127.343 42.9072C127.235 43.0244 127.181 43.1844 127.181 43.3872C127.181 43.6644 127.283 43.874 127.488 44.016C127.695 44.1557 127.957 44.2256 128.274 44.2256Z" fill="black"/>
<path d="M135.941 44.8206V39.6282H136.711V40.4124H136.765C136.859 40.1555 137.03 39.9471 137.278 39.7871C137.525 39.6271 137.804 39.547 138.115 39.547C138.173 39.547 138.246 39.5482 138.334 39.5504C138.422 39.5527 138.488 39.5561 138.533 39.5606V40.3719C138.506 40.3651 138.444 40.355 138.348 40.3415C138.253 40.3257 138.153 40.3178 138.047 40.3178C137.795 40.3178 137.57 40.3708 137.372 40.4767C137.177 40.5803 137.021 40.7246 136.907 40.9094C136.794 41.0919 136.738 41.3004 136.738 41.5348V44.8206H135.941Z" fill="black"/>
<path d="M145.452 44.9287C144.953 44.9287 144.522 44.8183 144.16 44.5975C143.8 44.3743 143.522 44.0633 143.326 43.6644C143.133 43.2633 143.036 42.7968 143.036 42.2649C143.036 41.7331 143.133 41.2643 143.326 40.8587C143.522 40.4508 143.794 40.133 144.143 39.9054C144.494 39.6755 144.903 39.5606 145.371 39.5606C145.641 39.5606 145.908 39.6056 146.171 39.6958C146.434 39.7859 146.674 39.9324 146.89 40.1352C147.106 40.3358 147.278 40.6018 147.406 40.933C147.534 41.2643 147.598 41.6722 147.598 42.1568V42.4948H143.603V41.8052H146.788C146.788 41.5122 146.73 41.2508 146.613 41.0209C146.498 40.7911 146.334 40.6096 146.12 40.4767C145.909 40.3437 145.659 40.2772 145.371 40.2772C145.054 40.2772 144.779 40.3561 144.548 40.5139C144.318 40.6694 144.142 40.8722 144.018 41.1223C143.894 41.3725 143.832 41.6407 143.832 41.9269V42.3866C143.832 42.7788 143.9 43.1112 144.035 43.3839C144.172 43.6543 144.362 43.8605 144.605 44.0025C144.848 44.1422 145.13 44.2121 145.452 44.2121C145.661 44.2121 145.85 44.1828 146.019 44.1242C146.19 44.0633 146.337 43.9732 146.461 43.8538C146.585 43.7321 146.681 43.5811 146.748 43.4008L147.517 43.6171C147.436 43.8785 147.3 44.1084 147.109 44.3067C146.918 44.5028 146.682 44.656 146.4 44.7665C146.119 44.8746 145.803 44.9287 145.452 44.9287Z" fill="black"/>
<path d="M154.943 44.9287C154.443 44.9287 154.012 44.8183 153.65 44.5975C153.29 44.3743 153.012 44.0633 152.817 43.6644C152.623 43.2633 152.526 42.7968 152.526 42.2649C152.526 41.7331 152.623 41.2643 152.817 40.8587C153.012 40.4508 153.285 40.133 153.633 39.9054C153.984 39.6755 154.394 39.5606 154.862 39.5606C155.132 39.5606 155.398 39.6056 155.661 39.6958C155.925 39.7859 156.164 39.9324 156.38 40.1352C156.596 40.3358 156.768 40.6018 156.896 40.933C157.025 41.2643 157.089 41.6722 157.089 42.1568V42.4948H153.093V41.8052H156.279C156.279 41.5122 156.22 41.2508 156.103 41.0209C155.989 40.7911 155.824 40.6096 155.611 40.4767C155.399 40.3437 155.15 40.2772 154.862 40.2772C154.544 40.2772 154.27 40.3561 154.038 40.5139C153.809 40.6694 153.632 40.8722 153.508 41.1223C153.385 41.3725 153.323 41.6407 153.323 41.9269V42.3866C153.323 42.7788 153.39 43.1112 153.525 43.3839C153.662 43.6543 153.853 43.8605 154.096 44.0025C154.339 44.1422 154.621 44.2121 154.943 44.2121C155.152 44.2121 155.341 44.1828 155.509 44.1242C155.68 44.0633 155.828 43.9732 155.952 43.8538C156.075 43.7321 156.171 43.5811 156.238 43.4008L157.008 43.6171C156.927 43.8785 156.791 44.1084 156.599 44.3067C156.408 44.5028 156.172 44.656 155.891 44.7665C155.61 44.8746 155.294 44.9287 154.943 44.9287Z" fill="black"/>
<path d="M162.26 44.8206V39.6282H163.029V40.4124H163.083C163.178 40.1555 163.349 39.9471 163.596 39.7871C163.844 39.6271 164.123 39.547 164.433 39.547C164.491 39.547 164.565 39.5482 164.652 39.5504C164.74 39.5527 164.806 39.5561 164.851 39.5606V40.3719C164.824 40.3651 164.763 40.355 164.666 40.3415C164.571 40.3257 164.471 40.3178 164.365 40.3178C164.114 40.3178 163.889 40.3708 163.691 40.4767C163.495 40.5803 163.34 40.7246 163.225 40.9094C163.112 41.0919 163.056 41.3004 163.056 41.5348V44.8206H162.26Z" fill="black"/>
</svg>
